<svg id="add" xmlns="http://www.w3.org/2000/svg" width="136" height="136" viewBox="0 0 136 136">
  <g id="Group_135" data-name="Group 135">
    <g id="Group_134" data-name="Group 134">
      <path id="Path_1033" data-name="Path 1033" d="M51,0A51.051,51.051,0,0,0,0,51c0,35.352,46.036,81.8,47.991,83.759a4.268,4.268,0,0,0,6.018,0s3.74-3.732,9.035-9.817a4.253,4.253,0,1,0-6.409-5.593c-2.227,2.55-4.165,4.675-5.636,6.247C40.851,114.75,8.5,78,8.5,51a42.5,42.5,0,0,1,85,0,23.486,23.486,0,0,1-.28,3.8,4.249,4.249,0,1,0,8.381,1.411A31.491,31.491,0,0,0,102,51,51.051,51.051,0,0,0,51,0Z" fill="#00aeef"/>
    </g>
  </g>
  <g id="Group_137" data-name="Group 137" transform="translate(25.5 25.5)">
    <g id="Group_136" data-name="Group 136">
      <path id="Path_1034" data-name="Path 1034" d="M121.5,96A25.5,25.5,0,1,0,147,121.5,25.531,25.531,0,0,0,121.5,96Zm0,42.5a17,17,0,1,1,17-17A17.017,17.017,0,0,1,121.5,138.5Z" transform="translate(-96 -96)" fill="#00aeef"/>
    </g>
  </g>
  <g id="Group_139" data-name="Group 139" transform="translate(68 68)">
    <g id="Group_138" data-name="Group 138">
      <path id="Path_1035" data-name="Path 1035" d="M290,256a34,34,0,1,0,34,34A34.034,34.034,0,0,0,290,256Zm0,59.5A25.5,25.5,0,1,1,315.5,290,25.531,25.531,0,0,1,290,315.5Z" transform="translate(-256 -256)" fill="#00aeef"/>
    </g>
  </g>
  <g id="Group_141" data-name="Group 141" transform="translate(85 85)">
    <g id="Group_140" data-name="Group 140">
      <path id="Path_1036" data-name="Path 1036" d="M349.75,332.75h-8.5v-8.5a4.25,4.25,0,1,0-8.5,0v8.5h-8.5a4.25,4.25,0,1,0,0,8.5h8.5v8.5a4.25,4.25,0,0,0,8.5,0v-8.5h8.5a4.25,4.25,0,0,0,0-8.5Z" transform="translate(-320 -320)" fill="#00aeef"/>
    </g>
  </g>
</svg>
