<?xml version="1.0" encoding="utf-8"?>
<!-- Generator: Adobe Illustrator 19.0.0, SVG Export Plug-In . SVG Version: 6.00 Build 0)  -->
<svg version="1.1" id="Layer_1" xmlns="http://www.w3.org/2000/svg" xmlns:xlink="http://www.w3.org/1999/xlink" x="0px" y="0px"
	 viewBox="0 0 189 216" style="enable-background:new 0 0 189 216;" xml:space="preserve">
<style type="text/css">
	.st0{fill:#FFFFFF;}
	.st1{fill:#2BACE2;}
	.st2{opacity:8.000000e-002;}
	.st3{clip-path:url(#XMLID_637_);}
	.st4{fill:#E5B985;}
	.st5{fill:#DD3D26;}
	.st6{fill:#343624;}
	.st7{fill:#353820;}
	.st8{fill:#353721;}
	.st9{fill:#4E1813;}
	.st10{fill:#9EDCF6;}
	.st11{fill:#91C6E7;}
	.st12{fill:#268AC2;}
	.st13{fill:#1F130E;}
	.st14{fill:#3F3029;}
	.st15{fill:#8AC6E6;}
	.st16{fill:#0E0D0E;}
	.st17{fill:#825B32;}
	.st18{fill:#2E2226;}
	.st19{fill:#0F0E10;}
	.st20{fill:#111115;}
	.st21{fill:#2F2228;}
	.st22{fill:#181211;}
	.st23{fill:#130E0E;}
	.st24{fill:#170F10;}
	.st25{fill:#F0F3F8;}
	.st26{fill:#2C1112;}
	.st27{fill:#511515;}
	.st28{fill:#DD8194;}
	.st29{fill:#F5E5ED;}
	.st30{fill:#2F3036;}
	.st31{fill:#EDF1F9;}
	.st32{fill:#313036;}
	.st33{fill:#0F0E0E;}
	.st34{fill:#5A5F67;}
	.st35{fill:#303033;}
	.st36{fill:#ECF2F9;}
	.st37{fill:#DEC8C0;}
	.st38{fill:#E7EAEF;}
	.st39{fill:#595C65;}
	.st40{fill:#0D0D0F;}
	.st41{fill:#E1E6EE;}
	.st42{clip-path:url(#XMLID_638_);fill:#2697D4;}
	.st43{clip-path:url(#XMLID_638_);fill:#2797D4;}
	.st44{clip-path:url(#XMLID_638_);fill:#2696D3;}
	.st45{clip-path:url(#XMLID_638_);fill:#2595D2;}
	.st46{clip-path:url(#XMLID_638_);fill:#2794D2;}
	.st47{clip-path:url(#XMLID_638_);fill:#2693D1;}
	.st48{clip-path:url(#XMLID_638_);fill:#2492D0;}
	.st49{clip-path:url(#XMLID_638_);fill:#2791CF;}
	.st50{clip-path:url(#XMLID_638_);fill:#2590CF;}
	.st51{clip-path:url(#XMLID_638_);fill:#248FCE;}
	.st52{clip-path:url(#XMLID_638_);fill:#268ECD;}
	.st53{clip-path:url(#XMLID_638_);fill:#258DCD;}
	.st54{clip-path:url(#XMLID_638_);fill:#248CCC;}
	.st55{clip-path:url(#XMLID_638_);fill:#268BCB;}
	.st56{clip-path:url(#XMLID_638_);fill:#268ACA;}
	.st57{clip-path:url(#XMLID_638_);fill:#2489CA;}
	.st58{clip-path:url(#XMLID_638_);fill:#2288C9;}
	.st59{clip-path:url(#XMLID_638_);fill:#2687C8;}
	.st60{clip-path:url(#XMLID_638_);fill:#2486C8;}
	.st61{clip-path:url(#XMLID_638_);fill:#2285C7;}
	.st62{clip-path:url(#XMLID_638_);fill:#2484C7;}
	.st63{clip-path:url(#XMLID_638_);fill:#2483C6;}
	.st64{clip-path:url(#XMLID_638_);fill:#2382C5;}
	.st65{clip-path:url(#XMLID_638_);fill:#2482C5;}
	.st66{clip-path:url(#XMLID_638_);fill:#2480C4;}
	.st67{clip-path:url(#XMLID_638_);fill:#237FC3;}
	.st68{clip-path:url(#XMLID_638_);fill:#257EC2;}
	.st69{clip-path:url(#XMLID_638_);fill:#247EC2;}
	.st70{clip-path:url(#XMLID_638_);fill:#237DC1;}
	.st71{clip-path:url(#XMLID_638_);fill:#257CC0;}
	.st72{clip-path:url(#XMLID_638_);fill:#247ABF;}
	.st73{clip-path:url(#XMLID_638_);fill:#257ABF;}
	.st74{clip-path:url(#XMLID_638_);fill:#2479BE;}
	.st75{clip-path:url(#XMLID_638_);fill:#2678BE;}
	.st76{clip-path:url(#XMLID_638_);fill:#2677BD;}
	.st77{clip-path:url(#XMLID_638_);fill:#2576BC;}
	.st78{clip-path:url(#XMLID_638_);fill:#2675BC;}
	.st79{clip-path:url(#XMLID_638_);fill:#2874BB;}
	.st80{clip-path:url(#XMLID_638_);fill:#2773BA;}
	.st81{clip-path:url(#XMLID_638_);fill:#2672B9;}
	.st82{clip-path:url(#XMLID_638_);fill:#2572B9;}
	.st83{clip-path:url(#XMLID_638_);fill:#2770B8;}
	.st84{clip-path:url(#XMLID_638_);fill:#256FB7;}
	.st85{clip-path:url(#XMLID_638_);fill:#276EB6;}
	.st86{clip-path:url(#XMLID_638_);fill:#266DB6;}
	.st87{clip-path:url(#XMLID_638_);fill:#286CB5;}
	.st88{clip-path:url(#XMLID_638_);fill:#276BB5;}
	.st89{clip-path:url(#XMLID_638_);fill:#266AB4;}
	.st90{clip-path:url(#XMLID_638_);fill:#2769B3;}
	.st91{clip-path:url(#XMLID_638_);fill:#2768B2;}
	.st92{clip-path:url(#XMLID_638_);fill:#2867B2;}
	.st93{clip-path:url(#XMLID_638_);fill:#2767B1;}
	.st94{clip-path:url(#XMLID_638_);fill:#2666B1;}
	.st95{clip-path:url(#XMLID_638_);fill:#2865B0;}
	.st96{clip-path:url(#XMLID_638_);fill:#2764AF;}
	.st97{clip-path:url(#XMLID_638_);fill:#2963AF;}
	.st98{clip-path:url(#XMLID_638_);fill:#2862AE;}
	.st99{clip-path:url(#XMLID_638_);fill:#2A61AD;}
	.st100{clip-path:url(#XMLID_638_);fill:#2960AD;}
	.st101{clip-path:url(#XMLID_638_);fill:#2A5FAC;}
	.st102{clip-path:url(#XMLID_638_);fill:#295EAC;}
	.st103{clip-path:url(#XMLID_638_);fill:#295DAB;}
	.st104{clip-path:url(#XMLID_638_);fill:#2A5CAA;}
	.st105{clip-path:url(#XMLID_638_);fill:#295CAA;}
	.st106{clip-path:url(#XMLID_638_);fill:#295AA9;}
	.st107{clip-path:url(#XMLID_638_);fill:#2A59A9;}
	.st108{clip-path:url(#XMLID_638_);fill:#2A58A8;}
	.st109{clip-path:url(#XMLID_638_);fill:#2957A7;}
	.st110{clip-path:url(#XMLID_638_);fill:#2857A7;}
	.st111{clip-path:url(#XMLID_638_);fill:#2956A6;}
	.st112{clip-path:url(#XMLID_638_);fill:#2B55A6;}
	.st113{clip-path:url(#XMLID_638_);fill:#2A54A5;}
	.st114{clip-path:url(#XMLID_638_);fill:#2953A5;}
	.st115{clip-path:url(#XMLID_638_);fill:#2A52A4;}
	.st116{clip-path:url(#XMLID_638_);fill:#2A51A3;}
	.st117{clip-path:url(#XMLID_638_);fill:#2A50A3;}
	.st118{clip-path:url(#XMLID_638_);fill:#294FA2;}
	.st119{clip-path:url(#XMLID_638_);fill:#2A4EA2;}
	.st120{clip-path:url(#XMLID_638_);fill:#294DA1;}
	.st121{clip-path:url(#XMLID_638_);fill:#294CA0;}
	.st122{clip-path:url(#XMLID_638_);fill:#2A4BA0;}
	.st123{clip-path:url(#XMLID_638_);fill:#2B4A9F;}
	.st124{clip-path:url(#XMLID_638_);fill:#2A499F;}
	.st125{clip-path:url(#XMLID_638_);fill:#2B499E;}
	.st126{clip-path:url(#XMLID_638_);fill:#2B479E;}
	.st127{clip-path:url(#XMLID_638_);fill:#2B479D;}
	.st128{clip-path:url(#XMLID_638_);fill:#2B469D;}
	.st129{clip-path:url(#XMLID_638_);fill:#2B459B;}
	.st130{clip-path:url(#XMLID_638_);fill:#2A449A;}
	.st131{clip-path:url(#XMLID_638_);fill:#2B439A;}
	.st132{clip-path:url(#XMLID_638_);fill:#2A4299;}
	.st133{clip-path:url(#XMLID_638_);fill:#2B4199;}
	.st134{clip-path:url(#XMLID_638_);fill:#2B4098;}
	.st135{clip-path:url(#XMLID_638_);fill:#2C3F98;}
	.st136{clip-path:url(#XMLID_638_);fill:#2D3E97;}
	.st137{clip-path:url(#XMLID_638_);fill:#2D3D96;}
	.st138{clip-path:url(#XMLID_638_);fill:#2C3C96;}
	.st139{clip-path:url(#XMLID_638_);fill:#2E3B96;}
	.st140{clip-path:url(#XMLID_638_);fill:#2D3A93;}
	.st141{clip-path:url(#XMLID_638_);fill:#2E3993;}
	.st142{clip-path:url(#XMLID_638_);fill:#2D3992;}
	.st143{clip-path:url(#XMLID_638_);fill:#2E3892;}
	.st144{clip-path:url(#XMLID_638_);fill:#2F3790;}
	.st145{clip-path:url(#XMLID_638_);fill:#2E368F;}
	.st146{clip-path:url(#XMLID_639_);fill:#249DD8;}
	.st147{clip-path:url(#XMLID_639_);fill:#249BD7;}
	.st148{clip-path:url(#XMLID_639_);fill:#269AD6;}
	.st149{clip-path:url(#XMLID_639_);fill:#279AD6;}
	.st150{clip-path:url(#XMLID_639_);fill:#2699D5;}
	.st151{clip-path:url(#XMLID_639_);fill:#2697D4;}
	.st152{clip-path:url(#XMLID_639_);fill:#2797D4;}
	.st153{clip-path:url(#XMLID_639_);fill:#2696D3;}
	.st154{clip-path:url(#XMLID_639_);fill:#2595D2;}
	.st155{clip-path:url(#XMLID_639_);fill:#2794D2;}
	.st156{clip-path:url(#XMLID_639_);fill:#2693D1;}
	.st157{clip-path:url(#XMLID_639_);fill:#2492D0;}
	.st158{clip-path:url(#XMLID_639_);fill:#2791CF;}
	.st159{clip-path:url(#XMLID_639_);fill:#2590CF;}
	.st160{clip-path:url(#XMLID_639_);fill:#248FCE;}
	.st161{clip-path:url(#XMLID_639_);fill:#268ECD;}
	.st162{clip-path:url(#XMLID_639_);fill:#258DCD;}
	.st163{clip-path:url(#XMLID_639_);fill:#248CCC;}
	.st164{clip-path:url(#XMLID_639_);fill:#268BCB;}
	.st165{clip-path:url(#XMLID_639_);fill:#268ACA;}
	.st166{clip-path:url(#XMLID_639_);fill:#2489CA;}
	.st167{clip-path:url(#XMLID_639_);fill:#2288C9;}
	.st168{clip-path:url(#XMLID_639_);fill:#2687C8;}
	.st169{clip-path:url(#XMLID_639_);fill:#2486C8;}
	.st170{clip-path:url(#XMLID_639_);fill:#2285C7;}
	.st171{clip-path:url(#XMLID_639_);fill:#2484C7;}
	.st172{clip-path:url(#XMLID_639_);fill:#2483C6;}
	.st173{clip-path:url(#XMLID_639_);fill:#2382C5;}
	.st174{clip-path:url(#XMLID_639_);fill:#2482C5;}
	.st175{clip-path:url(#XMLID_639_);fill:#2480C4;}
	.st176{clip-path:url(#XMLID_639_);fill:#237FC3;}
	.st177{clip-path:url(#XMLID_639_);fill:#257EC2;}
	.st178{clip-path:url(#XMLID_639_);fill:#247EC2;}
	.st179{clip-path:url(#XMLID_639_);fill:#237DC1;}
	.st180{clip-path:url(#XMLID_639_);fill:#257CC0;}
	.st181{clip-path:url(#XMLID_639_);fill:#247ABF;}
	.st182{clip-path:url(#XMLID_639_);fill:#257ABF;}
	.st183{clip-path:url(#XMLID_639_);fill:#2479BE;}
	.st184{clip-path:url(#XMLID_639_);fill:#2678BE;}
	.st185{clip-path:url(#XMLID_639_);fill:#2677BD;}
	.st186{clip-path:url(#XMLID_639_);fill:#2576BC;}
	.st187{clip-path:url(#XMLID_639_);fill:#2675BC;}
	.st188{clip-path:url(#XMLID_639_);fill:#2874BB;}
	.st189{clip-path:url(#XMLID_639_);fill:#2773BA;}
	.st190{clip-path:url(#XMLID_639_);fill:#2672B9;}
	.st191{clip-path:url(#XMLID_639_);fill:#2572B9;}
	.st192{clip-path:url(#XMLID_639_);fill:#2770B8;}
	.st193{clip-path:url(#XMLID_639_);fill:#256FB7;}
	.st194{clip-path:url(#XMLID_639_);fill:#276EB6;}
	.st195{clip-path:url(#XMLID_639_);fill:#266DB6;}
	.st196{clip-path:url(#XMLID_639_);fill:#286CB5;}
	.st197{clip-path:url(#XMLID_639_);fill:#276BB5;}
	.st198{clip-path:url(#XMLID_639_);fill:#266AB4;}
	.st199{clip-path:url(#XMLID_639_);fill:#2769B3;}
	.st200{clip-path:url(#XMLID_639_);fill:#2768B2;}
	.st201{clip-path:url(#XMLID_639_);fill:#2867B2;}
	.st202{clip-path:url(#XMLID_639_);fill:#2767B1;}
	.st203{clip-path:url(#XMLID_639_);fill:#2666B1;}
	.st204{clip-path:url(#XMLID_639_);fill:#2865B0;}
	.st205{clip-path:url(#XMLID_639_);fill:#2764AF;}
	.st206{clip-path:url(#XMLID_639_);fill:#2963AF;}
	.st207{clip-path:url(#XMLID_639_);fill:#2862AE;}
	.st208{clip-path:url(#XMLID_639_);fill:#2A61AD;}
	.st209{clip-path:url(#XMLID_639_);fill:#2960AD;}
	.st210{clip-path:url(#XMLID_639_);fill:#2A5FAC;}
	.st211{clip-path:url(#XMLID_639_);fill:#295EAC;}
	.st212{clip-path:url(#XMLID_639_);fill:#295DAB;}
	.st213{clip-path:url(#XMLID_639_);fill:#2A5CAA;}
	.st214{clip-path:url(#XMLID_639_);fill:#295CAA;}
	.st215{clip-path:url(#XMLID_639_);fill:#295AA9;}
	.st216{clip-path:url(#XMLID_639_);fill:#2A59A9;}
	.st217{clip-path:url(#XMLID_639_);fill:#2A58A8;}
	.st218{clip-path:url(#XMLID_639_);fill:#2957A7;}
	.st219{clip-path:url(#XMLID_639_);fill:#2857A7;}
	.st220{clip-path:url(#XMLID_639_);fill:#2956A6;}
	.st221{clip-path:url(#XMLID_639_);fill:#2B55A6;}
	.st222{clip-path:url(#XMLID_639_);fill:#2A54A5;}
	.st223{clip-path:url(#XMLID_639_);fill:#2953A5;}
	.st224{clip-path:url(#XMLID_639_);fill:#2A52A4;}
	.st225{clip-path:url(#XMLID_639_);fill:#2A51A3;}
	.st226{clip-path:url(#XMLID_639_);fill:#2A50A3;}
	.st227{clip-path:url(#XMLID_639_);fill:#294FA2;}
	.st228{clip-path:url(#XMLID_639_);fill:#2A4EA2;}
	.st229{clip-path:url(#XMLID_639_);fill:#294DA1;}
	.st230{clip-path:url(#XMLID_639_);fill:#294CA0;}
	.st231{clip-path:url(#XMLID_639_);fill:#2A4BA0;}
	.st232{clip-path:url(#XMLID_639_);fill:#2B4A9F;}
	.st233{clip-path:url(#XMLID_639_);fill:#2A499F;}
	.st234{clip-path:url(#XMLID_639_);fill:#2B499E;}
	.st235{clip-path:url(#XMLID_639_);fill:#2B479E;}
	.st236{clip-path:url(#XMLID_639_);fill:#2B479D;}
	.st237{clip-path:url(#XMLID_639_);fill:#2B469D;}
	.st238{clip-path:url(#XMLID_639_);fill:#2B459B;}
	.st239{clip-path:url(#XMLID_639_);fill:#2A449A;}
	.st240{clip-path:url(#XMLID_639_);fill:#2B439A;}
	.st241{clip-path:url(#XMLID_639_);fill:#2A4299;}
	.st242{clip-path:url(#XMLID_639_);fill:#2B4199;}
	.st243{clip-path:url(#XMLID_639_);fill:#2B4098;}
	.st244{clip-path:url(#XMLID_639_);fill:#2C3F98;}
	.st245{clip-path:url(#XMLID_639_);fill:#2D3E97;}
	.st246{clip-path:url(#XMLID_639_);fill:#2D3D96;}
	.st247{clip-path:url(#XMLID_639_);fill:#2C3C96;}
	.st248{clip-path:url(#XMLID_639_);fill:#2E3B96;}
	.st249{clip-path:url(#XMLID_639_);fill:#2D3A93;}
	.st250{clip-path:url(#XMLID_639_);fill:#2E3993;}
	.st251{clip-path:url(#XMLID_639_);fill:#2D3992;}
	.st252{clip-path:url(#XMLID_639_);fill:#2E3892;}
	.st253{clip-path:url(#XMLID_639_);fill:#2F3790;}
	.st254{clip-path:url(#XMLID_639_);fill:#2E368F;}
	.st255{clip-path:url(#XMLID_640_);fill:#2BACE2;}
	.st256{clip-path:url(#XMLID_640_);fill:#29ABE2;}
	.st257{clip-path:url(#XMLID_640_);fill:#2CAAE1;}
	.st258{clip-path:url(#XMLID_640_);fill:#2AA9E1;}
	.st259{clip-path:url(#XMLID_640_);fill:#29A8E0;}
	.st260{clip-path:url(#XMLID_640_);fill:#2AA7DF;}
	.st261{clip-path:url(#XMLID_640_);fill:#29A6DF;}
	.st262{clip-path:url(#XMLID_640_);fill:#27A5DE;}
	.st263{clip-path:url(#XMLID_640_);fill:#25A4DE;}
	.st264{clip-path:url(#XMLID_640_);fill:#24A3DD;}
	.st265{clip-path:url(#XMLID_640_);fill:#27A2DC;}
	.st266{clip-path:url(#XMLID_640_);fill:#25A1DB;}
	.st267{clip-path:url(#XMLID_640_);fill:#24A0DB;}
	.st268{clip-path:url(#XMLID_640_);fill:#25A0DA;}
	.st269{clip-path:url(#XMLID_640_);fill:#249ED9;}
	.st270{clip-path:url(#XMLID_640_);fill:#269DD8;}
	.st271{clip-path:url(#XMLID_640_);fill:#249DD8;}
	.st272{clip-path:url(#XMLID_640_);fill:#249BD7;}
	.st273{clip-path:url(#XMLID_640_);fill:#269AD6;}
	.st274{clip-path:url(#XMLID_640_);fill:#279AD6;}
	.st275{clip-path:url(#XMLID_640_);fill:#2699D5;}
	.st276{clip-path:url(#XMLID_640_);fill:#2697D4;}
	.st277{clip-path:url(#XMLID_640_);fill:#2797D4;}
	.st278{clip-path:url(#XMLID_640_);fill:#2696D3;}
	.st279{clip-path:url(#XMLID_640_);fill:#2595D2;}
	.st280{clip-path:url(#XMLID_640_);fill:#2794D2;}
	.st281{clip-path:url(#XMLID_640_);fill:#2693D1;}
	.st282{clip-path:url(#XMLID_640_);fill:#2492D0;}
	.st283{clip-path:url(#XMLID_640_);fill:#2791CF;}
	.st284{clip-path:url(#XMLID_640_);fill:#2590CF;}
	.st285{clip-path:url(#XMLID_640_);fill:#248FCE;}
	.st286{clip-path:url(#XMLID_640_);fill:#268ECD;}
	.st287{clip-path:url(#XMLID_640_);fill:#258DCD;}
	.st288{clip-path:url(#XMLID_640_);fill:#248CCC;}
	.st289{clip-path:url(#XMLID_640_);fill:#268BCB;}
	.st290{clip-path:url(#XMLID_640_);fill:#268ACA;}
	.st291{clip-path:url(#XMLID_640_);fill:#2489CA;}
	.st292{clip-path:url(#XMLID_640_);fill:#2288C9;}
	.st293{clip-path:url(#XMLID_640_);fill:#2687C8;}
	.st294{clip-path:url(#XMLID_640_);fill:#2486C8;}
	.st295{clip-path:url(#XMLID_640_);fill:#2285C7;}
	.st296{clip-path:url(#XMLID_640_);fill:#2484C7;}
	.st297{clip-path:url(#XMLID_640_);fill:#2483C6;}
	.st298{clip-path:url(#XMLID_640_);fill:#2382C5;}
	.st299{clip-path:url(#XMLID_640_);fill:#2482C5;}
	.st300{clip-path:url(#XMLID_640_);fill:#2480C4;}
	.st301{clip-path:url(#XMLID_640_);fill:#237FC3;}
	.st302{clip-path:url(#XMLID_640_);fill:#257EC2;}
	.st303{clip-path:url(#XMLID_640_);fill:#247EC2;}
	.st304{clip-path:url(#XMLID_640_);fill:#237DC1;}
	.st305{clip-path:url(#XMLID_640_);fill:#257CC0;}
	.st306{clip-path:url(#XMLID_640_);fill:#247ABF;}
	.st307{clip-path:url(#XMLID_640_);fill:#257ABF;}
	.st308{clip-path:url(#XMLID_640_);fill:#2479BE;}
	.st309{clip-path:url(#XMLID_640_);fill:#2678BE;}
	.st310{clip-path:url(#XMLID_640_);fill:#2677BD;}
	.st311{clip-path:url(#XMLID_640_);fill:#2576BC;}
	.st312{clip-path:url(#XMLID_640_);fill:#2675BC;}
	.st313{clip-path:url(#XMLID_640_);fill:#2874BB;}
	.st314{clip-path:url(#XMLID_640_);fill:#2773BA;}
	.st315{clip-path:url(#XMLID_640_);fill:#2672B9;}
	.st316{clip-path:url(#XMLID_640_);fill:#2572B9;}
	.st317{clip-path:url(#XMLID_640_);fill:#2770B8;}
	.st318{clip-path:url(#XMLID_640_);fill:#256FB7;}
	.st319{clip-path:url(#XMLID_640_);fill:#276EB6;}
	.st320{clip-path:url(#XMLID_640_);fill:#266DB6;}
	.st321{clip-path:url(#XMLID_640_);fill:#286CB5;}
	.st322{clip-path:url(#XMLID_640_);fill:#276BB5;}
	.st323{clip-path:url(#XMLID_640_);fill:#266AB4;}
	.st324{clip-path:url(#XMLID_640_);fill:#2769B3;}
	.st325{clip-path:url(#XMLID_640_);fill:#2768B2;}
	.st326{clip-path:url(#XMLID_640_);fill:#2867B2;}
	.st327{clip-path:url(#XMLID_640_);fill:#2767B1;}
	.st328{clip-path:url(#XMLID_640_);fill:#2666B1;}
	.st329{clip-path:url(#XMLID_640_);fill:#2865B0;}
	.st330{clip-path:url(#XMLID_640_);fill:#2764AF;}
	.st331{clip-path:url(#XMLID_640_);fill:#2963AF;}
	.st332{clip-path:url(#XMLID_640_);fill:#2862AE;}
	.st333{clip-path:url(#XMLID_640_);fill:#2A61AD;}
	.st334{clip-path:url(#XMLID_640_);fill:#2960AD;}
	.st335{clip-path:url(#XMLID_640_);fill:#2A5FAC;}
	.st336{clip-path:url(#XMLID_640_);fill:#295EAC;}
	.st337{clip-path:url(#XMLID_640_);fill:#295DAB;}
	.st338{clip-path:url(#XMLID_640_);fill:#2A5CAA;}
	.st339{clip-path:url(#XMLID_640_);fill:#295CAA;}
	.st340{clip-path:url(#XMLID_640_);fill:#295AA9;}
	.st341{clip-path:url(#XMLID_640_);fill:#2A59A9;}
	.st342{clip-path:url(#XMLID_640_);fill:#2A58A8;}
	.st343{clip-path:url(#XMLID_640_);fill:#2957A7;}
	.st344{clip-path:url(#XMLID_640_);fill:#2857A7;}
	.st345{clip-path:url(#XMLID_640_);fill:#2956A6;}
	.st346{clip-path:url(#XMLID_640_);fill:#2B55A6;}
	.st347{clip-path:url(#XMLID_640_);fill:#2A54A5;}
	.st348{clip-path:url(#XMLID_640_);fill:#2953A5;}
	.st349{clip-path:url(#XMLID_640_);fill:#2A52A4;}
	.st350{clip-path:url(#XMLID_640_);fill:#2A51A3;}
	.st351{clip-path:url(#XMLID_640_);fill:#2A50A3;}
	.st352{clip-path:url(#XMLID_640_);fill:#294FA2;}
	.st353{clip-path:url(#XMLID_640_);fill:#2A4EA2;}
	.st354{clip-path:url(#XMLID_640_);fill:#294DA1;}
	.st355{clip-path:url(#XMLID_640_);fill:#294CA0;}
	.st356{clip-path:url(#XMLID_640_);fill:#2A4BA0;}
	.st357{clip-path:url(#XMLID_640_);fill:#2B4A9F;}
	.st358{clip-path:url(#XMLID_640_);fill:#2A499F;}
	.st359{clip-path:url(#XMLID_640_);fill:#2B499E;}
	.st360{clip-path:url(#XMLID_640_);fill:#2B479E;}
	.st361{clip-path:url(#XMLID_640_);fill:#2B479D;}
	.st362{clip-path:url(#XMLID_640_);fill:#2B469D;}
	.st363{clip-path:url(#XMLID_640_);fill:#2B459B;}
	.st364{clip-path:url(#XMLID_640_);fill:#2A449A;}
	.st365{clip-path:url(#XMLID_640_);fill:#2B439A;}
	.st366{clip-path:url(#XMLID_640_);fill:#2A4299;}
	.st367{clip-path:url(#XMLID_640_);fill:#2B4199;}
	.st368{clip-path:url(#XMLID_640_);fill:#2B4098;}
	.st369{clip-path:url(#XMLID_640_);fill:#2C3F98;}
	.st370{clip-path:url(#XMLID_640_);fill:#2D3E97;}
	.st371{clip-path:url(#XMLID_640_);fill:#2D3D96;}
	.st372{clip-path:url(#XMLID_640_);fill:#2C3C96;}
	.st373{clip-path:url(#XMLID_640_);fill:#2E3B96;}
	.st374{clip-path:url(#XMLID_640_);fill:#2D3A93;}
	.st375{clip-path:url(#XMLID_640_);fill:#2E3993;}
	.st376{clip-path:url(#XMLID_640_);fill:#2D3992;}
	.st377{clip-path:url(#XMLID_640_);fill:#2E3892;}
	.st378{clip-path:url(#XMLID_640_);fill:#2F3790;}
	.st379{clip-path:url(#XMLID_640_);fill:#2E368F;}
	.st380{fill:url(#XMLID_641_);}
	.st381{fill:url(#XMLID_642_);}
	.st382{fill:url(#XMLID_643_);}
	.st383{fill:url(#XMLID_644_);}
	.st384{fill:#2B3C90;}
</style>
<g id="XMLID_15_">
	<g id="XMLID_466_">
		<g id="XMLID_517_">
			<g id="XMLID_528_">
				<path id="XMLID_529_" class="st0" d="M59.4,79.3c-5.8-6.8-15,7.2-13.4,24.1c2.5,26.8,24.4,41.2,24.4,41.2s-19.5-20.9-18.2-41.3
					C53.2,87.5,62.6,83,59.4,79.3z M56.7,80.9c-0.5,1.1-1.4,1.4-2.2,2.2c-1,0.9-1.8,1.9-2.5,3.1c-1.4,2.1-2.3,4.4-3.4,6.8
					c0,0,0,0,0,0c0.5-3,1.5-6.1,2.8-8.6c1-1.8,2.6-4.7,4.8-4.4C56.6,80,56.8,80.5,56.7,80.9z"/>
			</g>
			<g id="XMLID_524_">
				<path id="XMLID_525_" class="st0" d="M144.7,130.2c7-20,3-41.5,3-41.5s0.4,20.8-3.4,32c-5.1,15-14,17.3-12.5,21.5
					C133.2,146.6,139.7,144.7,144.7,130.2z M134.4,141.1c1.6-0.8,3.1-1.5,4.5-2.8c0.1-0.1,0.4,0.2,0.2,0.3c-1.3,1.7-2.4,3.8-4.1,4.7
					C134,143.7,133.4,141.5,134.4,141.1z"/>
			</g>
			<g id="XMLID_520_">
				<g id="XMLID_521_">
					<g id="XMLID_522_">
						<path id="XMLID_523_" class="st0" d="M154.5,87c-8.6,0.2-8.8,0.3-8.9,8.9c-0.2-8.6-0.3-8.8-8.9-8.9c8.6-0.2,8.8-0.3,8.9-8.9
							C145.8,86.7,145.9,86.8,154.5,87z"/>
					</g>
				</g>
			</g>
			<g id="XMLID_518_">
				<path id="XMLID_519_" class="st0" d="M143.7,73.3C143.7,73.3,143.6,73.3,143.7,73.3c0,2.5,0,5.2-0.2,7.7
					c-0.2,1.9-0.8,3.2-2.8,3.7c-1.1,0.3-2.5,0.3-3.6,0.5c-0.1,0-0.1,0.1,0,0.1c2.4,0.1,5.6,0.5,6.7-2.2
					C145,80.4,143.9,76.4,143.7,73.3z"/>
			</g>
		</g>
		<g id="XMLID_487_">
			<path id="XMLID_514_" class="st0" d="M17,194.1v-16.5c0-0.7,0.2-1.2,0.6-1.6c0.4-0.4,1-0.6,1.6-0.6h4.9c3.3,0,5.8,1,7.6,2.9
				s2.7,4.5,2.7,7.7s-0.9,5.7-2.7,7.5c-1.8,1.9-4.3,2.8-7.3,2.8h-5.1c-0.6,0-1.1-0.2-1.6-0.5C17.3,195.4,17,194.9,17,194.1z
				 M21.4,179.4v12.8h3c1.8,0,3.2-0.6,4.1-1.8c0.9-1.2,1.4-2.7,1.4-4.6c0-1.9-0.5-3.5-1.4-4.6c-1-1.2-2.4-1.8-4.4-1.8H21.4z"/>
			<path id="XMLID_512_" class="st0" d="M36.5,194.1V176c0-0.7,0.2-1.3,0.6-1.7c0.4-0.4,0.9-0.6,1.5-0.6s1.1,0.2,1.5,0.6
				c0.4,0.4,0.6,1,0.6,1.7v5.8h0.1c0.8-1,2.1-1.5,3.8-1.5c1.7,0,3.1,0.5,4.2,1.5c1.1,1,1.6,2.4,1.6,4.2v8.1c0,0.7-0.2,1.3-0.6,1.7
				c-0.4,0.4-0.9,0.6-1.5,0.6c-0.6,0-1.2-0.2-1.5-0.6c-0.4-0.4-0.6-1-0.6-1.7v-7.4c0-0.9-0.3-1.7-0.8-2.2c-0.5-0.5-1.2-0.7-2-0.7
				c-0.8,0-1.5,0.3-2,0.8c-0.5,0.5-0.7,1.2-0.7,2.1v7.4c0,0.7-0.2,1.3-0.6,1.7c-0.4,0.4-0.9,0.6-1.5,0.6c-0.6,0-1.2-0.2-1.5-0.6
				C36.7,195.4,36.5,194.8,36.5,194.1z"/>
			<path id="XMLID_509_" class="st0" d="M59.8,180.3c2.2,0,4,0.8,5.4,2.4c1.4,1.6,2.2,3.6,2.2,5.8c0,2.2-0.7,4.2-2.1,5.7
				c-1.4,1.6-3.2,2.4-5.4,2.4c-2.2,0-4.1-0.8-5.5-2.4c-1.4-1.6-2.1-3.5-2.1-5.7c0-2.2,0.7-4.2,2.2-5.8
				C55.8,181.1,57.7,180.3,59.8,180.3z M62.3,185.5c-0.6-0.9-1.4-1.3-2.5-1.3s-1.9,0.4-2.5,1.3c-0.6,0.9-0.9,1.9-0.9,3
				c0,1.1,0.3,2.1,0.9,3c0.6,0.9,1.4,1.3,2.5,1.3s1.9-0.4,2.5-1.3c0.6-0.9,0.9-1.9,0.9-3C63.2,187.4,62.9,186.4,62.3,185.5z"/>
			<path id="XMLID_506_" class="st0" d="M69.2,194.1V176c0-0.7,0.2-1.3,0.6-1.7c0.4-0.4,0.9-0.6,1.5-0.6s1.1,0.2,1.5,0.6
				c0.4,0.4,0.6,1,0.6,1.7v5.8c1.1-1,2.5-1.5,4-1.5c2.1,0,3.8,0.8,5,2.5c1.2,1.7,1.8,3.6,1.8,5.8c0,2.2-0.7,4.1-2,5.7
				c-1.3,1.6-3,2.4-5,2.4c-0.8,0-1.5-0.2-2.2-0.5c-0.7-0.3-1.3-0.8-1.7-1.4c-0.3,1.2-1,1.8-2.1,1.8c-0.6,0-1.2-0.2-1.5-0.6
				C69.4,195.4,69.2,194.8,69.2,194.1z M74.3,185.4c-0.6,0.8-0.9,1.8-0.9,3c0,1.1,0.3,2.2,0.8,3.1c0.6,0.9,1.4,1.3,2.4,1.3
				c1.1,0,1.9-0.4,2.5-1.3c0.6-0.9,0.9-1.9,0.9-3s-0.3-2.1-0.9-3s-1.4-1.3-2.4-1.3C75.7,184.2,74.9,184.6,74.3,185.4z"/>
			<path id="XMLID_503_" class="st0" d="M88,174.2c0.6,0,1.2,0.2,1.7,0.7c0.5,0.5,0.7,1,0.7,1.7c0,0.6-0.2,1.2-0.7,1.7
				c-0.5,0.5-1,0.7-1.7,0.7c-0.6,0-1.1-0.2-1.6-0.7c-0.5-0.5-0.7-1.1-0.7-1.7c0-0.6,0.2-1.2,0.6-1.6C86.8,174.4,87.3,174.2,88,174.2
				z M85.9,194.1v-11.3c0-0.7,0.2-1.3,0.6-1.7c0.4-0.4,0.9-0.6,1.5-0.6c0.6,0,1.1,0.2,1.5,0.6c0.4,0.4,0.6,1,0.6,1.7v11.3
				c0,0.7-0.2,1.3-0.6,1.7c-0.4,0.4-0.9,0.6-1.5,0.6c-0.6,0-1.2-0.2-1.5-0.6C86,195.4,85.9,194.8,85.9,194.1z"/>
			<path id="XMLID_500_" class="st0" d="M98.8,175.7c0.6-0.5,1.2-0.7,1.9-0.7c0.7,0,1.4,0.2,1.9,0.7c0.5,0.4,0.9,1,1.2,1.8l5.8,16
				c0.2,0.4,0.2,0.8,0.2,1.3c0,0.4-0.2,0.8-0.6,1.2c-0.4,0.4-0.9,0.5-1.4,0.5c-1.1,0-1.8-0.5-2.2-1.5l-0.9-2.8h-8.2l-0.9,2.7
				c-0.3,1-1,1.6-2.1,1.5c-0.6,0-1.1-0.2-1.5-0.6c-0.4-0.4-0.6-0.8-0.6-1.3c0-0.4,0.1-0.8,0.2-1.2l5.9-16
				C97.8,176.8,98.2,176.2,98.8,175.7z M100.7,179.6l-2.8,8.5h5.6L100.7,179.6L100.7,179.6z"/>
			<path id="XMLID_498_" class="st0" d="M109.3,182.2c0-0.4,0.2-0.8,0.6-1.2c0.4-0.4,0.9-0.5,1.3-0.5c1,0,1.8,0.5,2.1,1.5l2.9,8
				l3.1-8c0.4-1,1.1-1.5,2.1-1.5c0.5,0,0.9,0.2,1.3,0.5c0.4,0.4,0.6,0.8,0.6,1.2c0,0.5-0.1,0.9-0.2,1.1l-7.1,17.6
				c-0.5,1.1-1.1,1.7-2,1.7c-0.7,0-1.2-0.2-1.6-0.5c-0.4-0.4-0.6-0.8-0.6-1.2c0-0.4,0.1-0.9,0.3-1.3l1.9-4.6l-4.7-11.7
				C109.4,183,109.3,182.6,109.3,182.2z"/>
			<path id="XMLID_495_" class="st0" d="M139.1,183.3v10.5c0,1.4-0.3,2.2-0.9,2.5c-0.3,0.2-0.7,0.2-1.2,0.2c-1,0-1.6-0.6-1.9-1.8
				c-1.1,1.3-2.4,2-4,2c-2,0-3.7-0.8-5-2.3c-1.3-1.5-2-3.5-2-5.8c0-2.4,0.7-4.3,2-5.9c1.3-1.6,3-2.4,4.8-2.4c1.9,0,3.2,0.6,4.2,1.9
				c0.1-0.5,0.3-0.9,0.7-1.3c0.4-0.3,0.8-0.5,1.3-0.5c1,0,1.6,0.3,1.8,1C139.1,182,139.1,182.6,139.1,183.3z M129.2,185.5
				c-0.6,0.9-0.9,1.9-0.9,3c0,1.1,0.3,2.1,0.9,3c0.6,0.9,1.4,1.3,2.5,1.3s1.9-0.4,2.4-1.3c0.6-0.9,0.8-1.9,0.8-3
				c0-1.1-0.3-2.1-0.8-3c-0.6-0.9-1.4-1.3-2.5-1.3S129.7,184.6,129.2,185.5z"/>
			<path id="XMLID_493_" class="st0" d="M142,194.5c0-0.6,0.2-1.1,0.7-1.5c0.4-0.4,1-0.6,1.6-0.6s1.2,0.2,1.6,0.6
				c0.5,0.4,0.7,0.9,0.7,1.5c0,0.6-0.2,1.1-0.7,1.5c-0.5,0.4-1,0.6-1.6,0.6s-1.2-0.2-1.6-0.6C142.2,195.6,142,195.1,142,194.5z"/>
			<path id="XMLID_490_" class="st0" d="M149.4,200.4v-17.5c0-0.7,0.2-1.3,0.6-1.7c0.4-0.4,0.9-0.6,1.5-0.6c1.1,0,1.8,0.6,2.1,1.8
				c0.4-0.6,0.9-1.1,1.7-1.4c0.7-0.3,1.5-0.5,2.3-0.5c2.1,0,3.8,0.8,5,2.5c1.2,1.7,1.8,3.6,1.8,5.8c0,2.2-0.7,4.1-2,5.7
				c-1.3,1.6-3,2.4-5,2.4c-1.5,0-2.7-0.5-3.9-1.5v5.2c0,0.7-0.2,1.3-0.6,1.7c-0.4,0.4-0.9,0.6-1.5,0.6c-0.6,0-1.2-0.2-1.5-0.6
				C149.6,201.7,149.4,201.1,149.4,200.4z M154.5,185.4c-0.6,0.8-0.9,1.8-0.9,3c0,1.1,0.3,2.2,0.8,3.1c0.6,0.9,1.4,1.3,2.4,1.3
				c1.1,0,1.9-0.4,2.5-1.3c0.6-0.9,0.9-1.9,0.9-3s-0.3-2.1-0.9-3c-0.6-0.9-1.4-1.3-2.4-1.3C155.9,184.2,155.1,184.6,154.5,185.4z"/>
			<path id="XMLID_488_" class="st0" d="M166.3,194.1V176c0-0.7,0.2-1.3,0.6-1.7c0.4-0.4,0.9-0.6,1.5-0.6c0.6,0,1.1,0.2,1.5,0.6
				c0.4,0.4,0.6,1,0.6,1.7v9.9l4.6-4.5c0.6-0.6,1.2-0.9,1.8-0.9c0.6,0,1,0.2,1.4,0.6c0.3,0.4,0.5,0.9,0.5,1.4c0,0.6-0.3,1.1-0.8,1.6
				l-3.8,3.4l5,5.8c0.4,0.4,0.5,0.9,0.5,1.4s-0.2,1-0.6,1.4c-0.4,0.4-0.9,0.6-1.5,0.6c-0.6,0-1.2-0.4-2-1.3l-5.2-6.4h-0.1v5.1
				c0,0.7-0.2,1.3-0.6,1.7c-0.4,0.4-0.9,0.6-1.5,0.6c-0.6,0-1.2-0.2-1.5-0.6C166.5,195.4,166.3,194.8,166.3,194.1z"/>
		</g>
		<circle id="XMLID_486_" class="st1" cx="99.2" cy="106.7" r="49.2"/>
		<circle id="XMLID_485_" class="st1" cx="99.2" cy="106.7" r="45.5"/>
		<g id="XMLID_473_" class="st2">
			<g id="XMLID_474_">
				<path id="XMLID_475_" d="M140.9,114.5c0.2,6.8-4.7,12.6-8,18.3c-1.7-2.5-3.6-5.2-5.3-7.7c-6-8.3-14.4-25.5-14.4-25.5l4.1,1.6
					c0,0,2.5-2.2,5.5-5.6c5.3-5.8,4.4-7.3,4.4-7.3s-14-11.4-18.7-12.5c-4.7-1.1-13.1,2.2-13.1,2.2c-2.3,0.4-4.6,0.4-6.8,0.1
					l-1.8-0.3c0,0,2.1,3.6,0.7,7.8c-1.5,4.3-4.2,6.3-5.4,7l0,0c0,0-0.1,0.1-0.3,0.2c-0.2,0.1-0.3,0.2-0.3,0.2l0,0
					c-1.3,0.7-4.4,2-8.8,1c-4.4-0.9-6.3-4.6-6.3-4.6l-0.7,1.7c-0.9,2.1-2.1,4.1-3.6,5.8c0,0-4.6,3.6-7.2,7.4c0.4,3.4,1,6.8,1.3,10.2
					c0.5,1.3,0.9,2.5,1.5,3.7c1.5,3,3.2,5.8,5,8.7c2.6-0.5,5.2-1.4,7.7-2.6c0.1,0,0.2,0.1,0.1,0.1c-2.2,1.4-4.8,2.4-7.5,2.9
					c0.4,0.6,0.8,1.3,1.2,1.9c3.9-0.8,6.6-1.7,6.6-1.7l0.7-4.4c0,0,6.5,9.9,11.2,18.7c-0.2-0.1-0.4-0.3-0.6-0.4
					c-1.5-1-3.1-1.8-4.7-2.8c-0.1,0-0.1,0-0.1,0.1c1.3,1.2,2.6,2.6,4,3.7c1,0.8,2.4,1.8,3.6,2.2c0.1,0,0.2,0,0.2,0
					c6.9,3.2,14.8,3.8,22.4,2.7c-4.3,0.7-8.7,0.8-13.1,0.6c-3-0.2-7-0.4-9.8-2.1c0.4,0.9,0.9,1.8,1.2,2.6c1,0.1,1.9,0.4,2.9,0.6
					c3,0.4,6,0.7,9,0.7c1.4,0,2.8,0,4.2-0.1c0.8-0.2,1.6-0.4,2.4-0.6c0,0.1,0,0.3,0.1,0.4c0.8,0.6,1.6,0.5,2.4,0
					c0.1-0.1,0.2-0.2,0.2-0.3c0,0.2,0.1,0.4,0.2,0.5c0,0,0,0,0,0c0,0,0,0,0,0c0.1,0.1,0.3,0.2,0.6,0.1c0.2,0,0.4-0.1,0.6-0.1
					c0.6,0,1.1,0,1.7,0c0.3-0.1,0.5-0.1,0.8-0.2c1.7-0.5,3.4-1.1,5.1-1.7c-0.1,0-0.3,0-0.4,0c0.1-0.1,0.2-0.1,0.2-0.2
					c1.6-0.6,2.9-1.2,4.1-2.1c0.5-0.1,1-0.3,1.5-0.4c0.1,0,0.2,0,0.3,0.1c4.8-2.4,9.1-5.8,13.1-9.4c-0.2-0.3-0.3-0.5-0.5-0.8
					c-2.8,3.5-7.8,6.1-10.9,8.2c-0.1,0.1-0.2-0.1-0.1-0.2c3.6-2.6,6.8-5.2,9.7-8.3c0.4-0.3,0.7-0.6,1-1.1c0.1-0.2,0.3-0.5,0.4-0.8
					c1.9-1.9,3.1-4.7,4-7.1C139.7,122.2,141.5,118.2,140.9,114.5C141,114.4,140.9,114.4,140.9,114.5z M120.6,94.9
					c1.8-2.1,3.3-4.3,4.4-6.8c0-0.1,0.2-0.1,0.1,0c-0.7,2.3-1.9,4.2-3.4,6.1c-1.5,1.9-3,4.3-5.1,5.4c0,0,0,0,0,0
					C118.1,98.3,119.3,96.5,120.6,94.9z M71.3,121.1c-1.5-3.9-3.9-6.7-6.4-10c-2.1-2.8-4.1-5.7-7.5-6.8c0,0,0,0,0,0
					c-0.5-0.1-1.1-0.2-1.6-0.2c-0.1,0-0.1-0.1,0-0.1c0.7-0.2,1.4-0.1,2.1,0.1c2.7-0.7,6,3,7.4,4.7c3,3.5,5.6,7.6,6.3,12.2
					C71.7,121.2,71.4,121.3,71.3,121.1z M80.9,96.3c-4.4,1.7-12.3,1.5-15-3c0,0,0,0,0,0c3.3,4,10.2,4,14.6,2.2
					c5.7-2.3,10.2-8.1,9.4-14.5c0-0.1,0.2-0.2,0.2-0.1C91.8,87.5,86.8,94.1,80.9,96.3z M108.1,140C108.1,140,108.1,140.1,108.1,140
					c-0.1,0.6-0.5,0.9-1,1.1c0,0-0.1,0-0.1,0c-0.1,0.1-0.2,0.1-0.3,0.1c-0.3,0-0.6-0.1-0.8-0.3c-0.1-0.1-0.3-0.2-0.4-0.3
					c-0.3-0.4-0.3-0.7-0.2-1.1c0,0,0,0,0,0c0-0.3,0.2-0.6,0.4-0.8c0,0,0-0.1,0.1-0.1c0.2-0.3,0.5-0.4,0.8-0.4c0.3-0.1,0.7-0.1,1,0.1
					c0.2,0.1,0.4,0.3,0.5,0.5c0.2,0.2,0.3,0.4,0.3,0.6C108.3,139.6,108.2,139.8,108.1,140z M110,146.9c1.3-0.3,2.5-0.6,3.8-0.9
					c0,0,0,0,0,0C112.5,146.3,111.3,146.6,110,146.9z M113.5,140.9c0.1,0.2-0.1,0.3-0.3,0.3c-0.1,0-0.2,0-0.3,0c0,0,0,0,0,0
					c0,0,0,0,0,0c0,0,0,0,0,0c-0.1-0.1-0.3-0.3-0.2-0.4c0-0.1,0-0.1,0.1-0.2c0.2-0.3,0.6-0.2,0.7,0.1c0,0,0,0,0-0.1
					C113.5,140.7,113.5,140.8,113.5,140.9C113.5,140.9,113.5,140.9,113.5,140.9z M110.9,123.4c-0.9,2.6-4,2.9-6.3,2.8
					c-0.1,0-0.1-0.1,0-0.1c2.9-0.8,5.8-0.9,6.1-4.5c0.1-2-0.4-3.9-0.2-5.9c0-0.1,0.1-0.1,0.1,0C110.7,118.2,111.8,120.9,110.9,123.4
					z M111.3,97.2c-3-3-5.4-6.9-7.4-10.6c-1.1-2.2-3.8-7.1-1.5-9.4c0,0,0.1,0,0.1,0.1c-2.1,3.2,1.3,8.2,2.9,11
					c1.8,3,3.8,6.1,6.1,8.8C111.6,97.1,111.4,97.3,111.3,97.2z"/>
			</g>
		</g>
		<g id="XMLID_469_">
			<g id="XMLID_470_">
				<g id="XMLID_471_">
					<path id="XMLID_472_" class="st0" d="M116.5,130.6c-8.9,0.2-9,0.3-9.2,9.2c-0.2-8.9-0.3-9-9.2-9.2c8.9-0.2,9-0.3,9.2-9.2
						C107.5,130.2,107.6,130.4,116.5,130.6z"/>
				</g>
			</g>
		</g>
		<g id="XMLID_467_">
			<defs>
				<circle id="XMLID_468_" cx="99.2" cy="106.7" r="45.5"/>
			</defs>
			<clipPath id="XMLID_636_">
				<use xlink:href="#XMLID_468_"  style="overflow:visible;"/>
			</clipPath>
			<use xlink:href="#XMLID_468_"  style="overflow:visible;fill:none;stroke:#FFFFFF;stroke-width:4;stroke-miterlimit:10;"/>
		</g>
	</g>
	<g id="XMLID_16_">
		<defs>
			<path id="XMLID_17_" d="M168.6,76.2c0-34.3-27.8-62.1-62.1-62.1S44.5,41.9,44.5,76.2c0,6.5,1,12.7,2.8,18.6
				c-0.2,1.9-0.3,3.8-0.3,5.7c0,28.6,23.2,51.8,51.8,51.8c19.5,0,36.4-10.8,45.3-26.7C159,114.3,168.6,96.3,168.6,76.2z"/>
		</defs>
		<clipPath id="XMLID_637_">
			<use xlink:href="#XMLID_17_"  style="overflow:visible;"/>
		</clipPath>
		<g id="XMLID_18_" class="st3">
			<path id="XMLID_465_" class="st4" d="M117.4,154.8c-4,0-8,0-11.9,0c-0.5-0.9-0.5-1.9-0.6-2.9c-0.2-1.1-0.2-2.1-0.5-3.2
				c-0.4-1.6,0-3,0.9-4.3c1.4-2,3.4-2.8,5.8-3c1.6-0.1,3,0.3,4.1,1.4c0.1,0.2,0.3,0.3,0.5,0.4c0.1,0,0.1,0.1,0.2,0.1
				c0.2,0.2,0.3,0.5,0.3,0.8c0,0.7,0.4,1.4,0.6,2.1c0.2,0.8,0.4,1.5,0.4,2.3c0.2,1.8,0.5,3.6,0.5,5.4
				C117.6,154.3,117.6,154.6,117.4,154.8z"/>
			<path id="XMLID_464_" class="st5" d="M83.1,154.8c0-0.1,0.1-0.3,0.1-0.4c0.5-0.4,1-0.4,1.6-0.4c2.1,0,4.2,0.1,6.3,0.1
				c2.8,0,5.5,0,8.3-0.1c1.8,0,3.6,0.1,5.4-0.1c0.4,0.2,0.4,0.6,0.1,0.9C97.7,154.8,90.4,154.8,83.1,154.8z"/>
			<path id="XMLID_463_" class="st4" d="M116.2,144.6c0.9,2.5,1.3,5.1,1.5,7.8c0.1,0.8,0,1.7,0.1,2.5c-0.1,0-0.3,0-0.4,0
				c0-2.6-0.3-5.2-0.8-7.8c-0.1-0.8-0.3-1.6-0.7-2.3c-0.1-0.2-0.1-0.4,0-0.7C116.3,144.1,116.2,144.4,116.2,144.6z"/>
			<path id="XMLID_462_" class="st4" d="M105,154.8c0-0.3,0.1-0.6-0.1-0.9c-0.3-0.1-0.3-0.4-0.4-0.7c-0.1-1.2-0.4-2.4-0.4-3.7
				c0-0.3,0-0.7,0.3-0.9c0.2,0,0.3,0.2,0.3,0.4c0.1,1.9,0.4,3.7,0.7,5.6c0,0.1,0,0.1,0,0.2C105.3,154.8,105.2,154.8,105,154.8z"/>
			<path id="XMLID_461_" class="st5" d="M115.3,142.8c-0.1-0.3-0.3-0.6-0.5-0.9c-0.6-0.7-1.1-1.3-1.7-2c-0.1-0.2-0.3-0.3-0.4-0.5
				c-2.1-1.8-4.4-3-7.1-3.5c-0.3-0.1-0.7-0.2-1,0.1c-0.4,1.5-1.6,2.3-3,2.7c-1.3,0.4-2.6,0.7-3.9,0.8c-0.7,0.1-1.1,0.4-1.4,1
				c-0.5,1-1,2-1.4,3c-1.2,3.1-2.2,6.1-2.9,9.3c0.1-0.6,0.3-1.1,0.3-1.7c0.3-3.4,0.8-6.7,1.3-10c0.3-1.7,0.3-1.7-1.2-2.5
				c-0.8-0.5-1.1-1-0.8-2c0.1-0.3,0.3-0.5,0.2-0.9c-0.2-0.2-0.4-0.3-0.7-0.2c-0.2,0,0.1,0.2-0.1,0.2c-1.5,0.2-2.5,1.2-3.4,2.3
				c-0.9,1.2-1.5,2.6-2.1,4c-0.6,1.6-1,3.4-1.5,5c-0.1,0-0.2,0-0.2,0c0.1,0.2,0.1,0.5,0.1,0.7c0.1,0.1,0.2,0.2,0.1,0.5
				c-0.4,1.9-0.9,3.8-0.9,5.8c0.4,0.2,0.7-0.2,1.1-0.2c2.9,0,5.8,0,8.7,0c3.8,0,7.5,0,11.3,0c0.3,0,0.5,0,0.6-0.3
				c-0.2-1.7-0.5-3.5-0.4-5.2c0-0.8-0.2-1.6,0.1-2.3c0.8-2.3,2.4-3.9,4.9-4.4c2.1-0.5,4-0.5,5.7,1.2
				C115.4,143.1,115.4,143,115.3,142.8z"/>
			<path id="XMLID_460_" class="st4" d="M84.4,147.7c-1.4-0.2-2.6-1-3.8-1.7c-0.2-0.1-0.4-0.2-0.6-0.3c-2.1-1.6-4.2-3.2-6.1-5
				c-0.2-0.2-0.4-0.4-0.6-0.6c0,0,0-0.1,0-0.1c0.1-0.2,0.3-0.3,0.5-0.2c1.9,2,4.1,3.6,6.2,5.2c1.2,0.9,2.5,1.6,3.9,2.2
				C84.2,147.2,84.5,147.2,84.4,147.7z"/>
			<path id="XMLID_459_" class="st5" d="M115.4,142.9c0,0.2,0.1,0.4,0.1,0.6c-0.2,0-0.4-0.1-0.4-0.3c0-0.8-0.6-1.2-1-1.8
				c-0.3-0.5-0.7-0.9-1.1-1.4c0.2-0.1,0.4-0.1,0.5,0.1c0.8,0.7,1.5,1.4,1.9,2.4C115.5,142.6,115.5,142.7,115.4,142.9z"/>
			<path id="XMLID_458_" class="st4" d="M88.2,135.8c1,0,2-0.2,3,0c0,0.1,0.3,0.2,0,0.3c-2.8,0.8-4,3.1-5,5.6c-0.8,2-1.3,4-1.8,6.1
				c-0.1-0.4-0.5-0.3-0.8-0.4c-2.3-1-4.2-2.5-6.2-4c-1.2-0.9-2.3-1.9-3.3-2.9c-0.2-0.2-0.4-0.3-0.4-0.6c-0.1-0.1-0.1-0.3,0-0.4
				c0.6-1.1,1.2-2.1,2-3c0.2-0.2,0.5-0.3,0.8-0.1c0.4,0.3,0.7,0.1,1-0.2c0.2-0.3,0.4-0.6,0.7-0.8c0.4-0.3,0.6-0.6,0.2-1.1
				c-0.1-0.1-0.1-0.4,0-0.5c0.8-0.9,1.5-1.9,2.6-2.6c0.5,0,0.8,0.3,1.1,0.5c2,1.4,4,2.6,5.9,4.2C88,135.7,88.1,135.8,88.2,135.8z"/>
			<path id="XMLID_457_" class="st4" d="M92,135.9c0.5-0.2,1.1,0,1.5-0.4c0.2-0.1,0.4-0.2,0.6-0.2c2.6,0.2,5.2-0.1,7.7-1
				c0.3-0.1,0.5-0.2,0.8-0.1c0.4,0.1,0.5,0.5,0.6,0.8c0.1,0.2,0,0.4,0.3,0.5c0.4,0.3,1,0.1,1.2,0.6c0.2,0.9-0.4,1.4-0.9,1.9
				c-1.5,1.2-3.3,1.6-5.1,1.8c-1.1,0.1-1.8,0.5-2.3,1.6c-1.4,3.2-2.5,6.5-3.5,9.8c-0.3,0.8-0.5,1.6-0.8,2.4c0.1-1.5,0.2-3,0.4-4.5
				c0.3-2.6,0.7-5.1,1.1-7.6c0.1-0.6,0.5-1.2,0.2-1.7c-0.2-0.5-1-0.5-1.5-0.8C91.2,138.2,91,137.2,92,135.9z"/>
			<path id="XMLID_456_" class="st6" d="M97.8,143.2c0,0.4-0.2,0.7-0.6,0.7c-0.4,0-0.6-0.3-0.6-0.6c0-0.4,0.2-0.6,0.6-0.6
				C97.6,142.5,97.7,142.8,97.8,143.2z"/>
			<path id="XMLID_455_" class="st7" d="M95.6,146.7c0.5,0,0.7,0.2,0.7,0.6c0,0.4-0.2,0.7-0.6,0.7c-0.4,0-0.6-0.2-0.6-0.6
				C95.1,147,95.3,146.7,95.6,146.7z"/>
			<path id="XMLID_454_" class="st8" d="M94.8,151.7c-0.1,0.4-0.2,0.6-0.6,0.6c-0.4,0-0.6-0.3-0.6-0.6c0-0.4,0.2-0.6,0.6-0.6
				C94.6,151.1,94.8,151.3,94.8,151.7z"/>
			<path id="XMLID_453_" class="st9" d="M80.8,131c-0.8,0.7-1.5,1.5-2.3,2.3c-0.3,0.3-0.3,0.5,0,0.7c0.4,0.3,0.3,0.5,0,0.8
				c-0.5,0.5-0.9,1-1.3,1.5c-0.3,0.3-0.5,0.4-0.8,0.1c-0.3-0.3-0.5-0.2-0.7,0.1c-0.8,1-1.5,2.1-2.1,3.2c-0.1,0.1-0.2,0.3-0.4,0.2
				c0-0.1,0.1-0.2,0.1-0.4c-0.1-0.3,0.1-0.6,0.2-0.9c0.4-0.7,0.8-1.4,1.2-2c0.3-0.4,0.6-0.8,0.4-1.3c-0.1-0.2,0-0.4,0.2-0.6
				c0.4-0.5,0.8-1,1.3-1.5c0.2-0.2,0.4-0.4,0.7-0.3c0.6,0.1,0.8-0.2,1.2-0.6c0.6-0.6,1.1-1.4,2.1-1.7
				C80.8,130.9,80.9,130.9,80.8,131z"/>
			<path id="XMLID_452_" class="st4" d="M80.7,130.9c-0.9,0.6-1.6,1.4-2.4,2.2c-0.2,0.2-0.4,0.4-0.7,0.1c-0.2-0.2-0.4-0.1-0.6,0.1
				c-0.5,0.6-1,1.1-1.5,1.7c-0.1,0.1-0.2,0.3-0.1,0.4c0.5,0.5,0.1,0.8-0.2,1.2c-0.7,0.9-1.2,2-1.8,3c-2.3-2.1-4.4-4.4-6.4-6.8
				c-0.5-0.6-0.9-1.4-1.6-1.9c-0.1,0-0.1,0-0.2,0c-0.7-0.2-0.7-0.9-1.1-1.3c-0.5-1.1-0.6-2.2-0.2-3.4c0.4-1.3,0.3-2.6,0.5-3.9
				c0.1-1,0.2-2,0.4-3c0.1-1.6,0.7-3.1,1-4.7c0.8-4.1,2.2-8,4-11.7c0.3-0.6,0.1-1.1,0.1-1.6c0.1-0.5-0.2-1.1,0.3-1.4
				c0.7-0.2,1.5,0,2.3-0.1c1.5,0.2,2.9-0.3,4.3-0.3c0.7,0,1.3-0.3,2-0.2c0.6,0,0.7,0.2,0.5,0.8c-0.2,0.6-0.8,0.9-1.3,1.3
				c-0.7,0.6-1.3,1.2-1.9,1.9c-0.2,0.2-0.2,0.5-0.2,0.9c0,1.1,0,2.1,0,3.2c0,1.8,0,3.7-0.2,5.5c-0.1,1.2-0.2,2.3-0.3,3.5
				c-0.2,2.7-0.7,5.3-1.2,7.9c-0.2,0.9-0.1,1.6,0.7,2c0.4,0.2,0.7,0.6,1,0.8c0.8,0.9,1.9,1.5,2.9,2.2c0.6,0.4,1.1,0.9,1.7,1.3
				C80.7,130.6,80.9,130.7,80.7,130.9z"/>
			<path id="XMLID_451_" class="st10" d="M92.8,98.6c0.1,0,0.2,0,0.2,0c0.6,0.2,1.2-0.1,1.7,0.1c0,0,0.1,0,0.1,0
				c0.6,0.2,1.3-0.1,1.9,0.1c1.1,0.1,2.1,0.3,3.2,0.4c2.5,0.2,5,0.7,7.5,1.1c1.3,0.2,2.5,0.4,3.7,0.6c0.4,0.2,0.9,0,1.3,0.3
				c0.1,0,0.2,0,0.2,0c0.5,0.2,1,0,1.5,0.3c0.7,0.3,1.5,0.2,2.1,0.5c0.3,0,0.5,0.1,0.7,0.4c0.7,0.9,1.5,1.8,2.1,2.8
				c0.4,0.7,0.6,1.4,0.5,2.2c-0.1,0.6-0.4,0.8-0.9,0.9c-0.6,0.1-1.1-0.1-1.2-0.7c-0.1-1.1-0.8-1.7-1.3-2.2c0.5,0.5,1.1,1.2,1.1,2.2
				c0,0.3,0,0.7-0.3,0.9c-0.3,0.2-0.6,0-0.9-0.2c-2.1-1.3-4.3-2.7-6.5-3.8c-2.8-1.4-5.7-2.6-8.8-3c-2.2-0.2-4.4-0.5-6.6-0.5
				c-1.8,0.1-3.6,0.1-5.4,0.6c-0.6,0.1-1.1,0.3-1.6,0.7c-0.1,0.1-0.3,0.2-0.4,0.2c-0.5,0.1-1.1,0.2-1.5-0.2c-0.3-0.3-0.3-1.1,0-1.6
				c0.3-0.4,0.6-0.8,1-1.1c0.8-0.4,1.6-1,2.6-1.1C90.2,98.6,91.5,98.5,92.8,98.6z"/>
			<path id="XMLID_450_" class="st11" d="M86.4,99.8c-0.3,0.3-0.7,0.7-0.9,1.1c-0.3,0.5-0.4,1.1,0,1.5c0.4,0.4,1,0.3,1.4,0.1
				c1.5-1,3.2-1.1,4.9-1.3c1.3-0.1,2.5-0.2,3.8-0.2c3,0.1,5.9,0.4,8.8,1.2c2,0.5,3.8,1.5,5.6,2.4c2.2,1.1,4.3,2.4,6.4,3.8
				c0.6,0.4,0.7,0.3,0.8-0.4c0.1-1-0.6-1.7-1.1-2.4c-0.1-0.2-0.4-0.3-0.6-0.6c1.1,0.2,2.5,1.6,2.4,2.5c0,0.6,0.3,0.8,0.8,0.8
				c0.5,0,1,0,1-0.7c0-0.8-0.1-1.5-0.5-2.2c-0.7-1.2-1.7-2.2-2.6-3.2c0.3-0.1,0.6,0.1,0.8,0.1c0.1-0.1,0.2-0.1,0.3,0
				c0.5,0.7,1.1,1.4,1.6,2.1c0.5,0.7,0.8,1.4,1.1,2.1c0.2,0.8,0,1.4-0.3,2.1c-0.2,0.4-0.7,0.5-1.1,0.5c-0.5,0-1,0-1.4,0.4
				c-0.2,0.2-0.5,0.1-0.7,0c-0.3-0.1-0.7-0.2-1-0.3c-0.6-0.4-1.1-0.9-1.7-1.4c-0.4-0.3-0.8-0.5-1.2-0.7c-0.8-0.5-1.8-0.8-2.6-1.3
				c-0.7-0.6-1.5-0.8-2.3-1.3c-2.7-1.2-5.5-2.1-8.4-2.4c-3.2-0.4-6.5-0.5-9.7,0.2c-0.6,0.1-1.1,0.4-1.6,0.5c-0.4,0-0.6,0.3-0.9,0.4
				c-0.3,0.2-0.6,0.4-0.9,0.2c0,0-0.1-0.1-0.1-0.1c-0.8-0.1-1.4-0.4-1.3-1.4c0-0.7,0.1-1.4,0.8-1.8c0,0,0-0.1,0.1-0.1
				c0.3-0.2,0-0.6,0.3-0.7C86.5,99.1,86.4,99.4,86.4,99.8z"/>
			<path id="XMLID_449_" class="st4" d="M75.5,116.2c0-0.8-0.1-1.7,0-2.5c0.5-3.3,0.1-6.7,0.3-10c0-0.2,0-0.5,0.2-0.7
				c0.7-0.6,1.3-1.4,2.1-2c0.4-0.3,1-0.6,1.2-1.2c0.2-0.4,0.1-0.5-0.3-0.5c-1.3,0.1-2.6,0.3-3.9,0.5c-0.8,0.1-1.6,0-2.4,0.1
				c0-0.3,0.2-0.4,0.4-0.4c1.2,0.1,2.3-0.2,3.4-0.4c1-0.2,2,0,3-0.3c0.3,0,0.6,0,0.9,0c0.3,0.8-0.4,1.1-0.8,1.5c-1,1-2,1.9-3,2.8
				c-0.3,0.3-0.4,0.5-0.4,1c0,1.8,0,3.6,0,5.4c0,0.2,0.1,0.5-0.1,0.7C75.9,112.2,75.8,114.2,75.5,116.2z"/>
			<path id="XMLID_448_" class="st12" d="M92.8,98.6c-1.4,0-2.8,0-4.1,0c-0.8,0.2-1.6,0.3-2.4,0.3c-0.4,0-0.8,0-1.1-0.3
				c0,0,0-0.1,0-0.1c2.2,0,4.5,0,6.7,0C92.3,98.5,92.6,98.4,92.8,98.6z"/>
			<path id="XMLID_447_" class="st12" d="M114.3,101.6c-0.5,0-1-0.1-1.5-0.3C113.3,101.5,113.9,101,114.3,101.6z"/>
			<path id="XMLID_446_" class="st12" d="M96.8,98.9c-0.6,0-1.3,0-1.9-0.1C95.5,98.8,96.2,98.6,96.8,98.9z"/>
			<path id="XMLID_445_" class="st12" d="M94.8,98.8c-0.6,0-1.2,0.1-1.7-0.1C93.6,98.7,94.2,98.5,94.8,98.8z"/>
			<path id="XMLID_444_" class="st12" d="M112.6,101.3c-0.4,0-0.9-0.1-1.3-0.3C111.7,101.2,112.2,100.8,112.6,101.3z"/>
			<path id="XMLID_443_" class="st4" d="M80,125.2c-0.3-1.5-0.1-3.1,0.3-4.6c0,0,0.1,0,0.1,0c0.2,0.5,0.6,0.7,1.2,0.6
				c0.5-0.1,1,0.2,1.5-0.3c0.2-0.2,0.4,0,0.6,0.2c0.4,0.6,0.8,1.2,1.5,1.5c0.4,0.2,0.4,0.8,0.5,1.2c0.2,0.6,0.5,1,0.9,1.5
				c0.4,0.4,0.7,0.7,0.9,1.3c0.1,0.3,0.3,0.3,0.5,0.2c0.4-0.1,0.6,0,1,0.1c1.1,0.3,2.1,1,3.3,0.4c0.2-0.1,0.3-0.1,0.5-0.1
				c0.9,0.2,1.6-0.3,2.4-0.5c0.2,0,0.4-0.1,0.5-0.3c0.6-1.1,1.7-1.7,2.6-2.4c0.2-0.2,0.4-0.3,0.3-0.6c-0.1-0.6,0.3-0.7,0.7-0.7
				c0.4,0,0.9,0.2,0.9-0.5c0-0.2,0.4-0.3,0.6-0.2c0.6,0.2,1.2,0.2,1.7-0.3c0.4-0.3,0.9-0.1,1.3-0.1c0.2,0,0.5,0.2,0.5-0.2
				c0-0.4-0.2-0.6-0.5-0.8c-1.6-1.4-3.4-2.3-5.6-2c-0.2,0-0.3,0.1-0.5-0.1c-0.2-0.3,0.1-0.5,0.2-0.7c0.7-0.8,0.4-2-0.7-2.3
				c-0.5-0.1-1.1-0.2-1.6,0.3c1-0.8,2.6-0.2,2.7,1c0.1,0.8-0.5,1.2-1,1.5c-2.6,1.4-5.4,2.4-8.4,2.5c-2.2,0.1-3.2-2.1-3-3.7
				c0.1-0.7,0.3-1.3,0.7-1.8c0.9-1.2,1.8-2.4,2.8-3.5c0-0.1,0.1-0.1,0.1-0.1c0.8-0.6,1.3-1.6,2.1-2.2c0.2-0.2,0.4-0.4,0.7-0.7
				c-0.4,0-0.5-0.2-0.5-0.5c-0.2-0.5-0.6-0.8-1.1-0.8c-1.9-0.2-2.8,0.3-3.7,2c-0.1,0.1-0.1,0.2-0.3,0.3c-0.1,0-0.2-0.1-0.2-0.2
				c-0.1-0.5,0.2-0.9,0.2-1.3c0.2-1.4,0.4-2.9,0.6-4.3c0.1-0.4,0.2-0.7,0.5-1c0.6-0.4,1.3-0.5,1.9-0.7c2.6-0.6,5.2-0.5,7.8-0.3
				c2.7,0.3,5.3,0.7,7.9,1.5c0.7,0.2,1.3,0.5,2,0.8c0.5,0.2,0.7,0.5,0.7,1c-0.1,0.6-0.4,1.1-0.4,1.7c0,0.5,0.2,1,0.5,1.4
				c1.5,2.2,1.5,4.5,0.5,6.9c-0.3,0.7-0.5,1.4-0.8,2.1c-0.2,0.5,0,0.7,0.5,0.9c1,0.2,1.6,0.1,2-0.5c0.4-0.6,0.4-1.2,0.7-1.8
				c0-0.1,0-0.1,0.1-0.2c0.4-1.1,0.9-2.3,1.5-3.3c0.1-0.2,0.2-0.3,0.3-0.5c0.5-0.7,1-1.4,1.8-1.7c0.1,0,0.1,0,0.2,0
				c1.2-0.1,1.9,0.5,2.4,1.5c0.9,1.7,0.4,4.3-1,5.5c-0.9,0.8-2.1,1-3.2,0.4c0-0.1-0.1,0-0.1,0c0,0.7-0.2,1.4-0.4,2
				c-0.7,1.9-1.4,3.7-2.3,5.6c-0.9,1.9-1.9,3.8-3.3,5.4c-1.2,1.3-2.7,2.3-4.3,3.2c-1.6,0.9-3.4,1.2-5.2,1.3c-1.2,0.1-2.5,0.1-3.7,0
				c-1.3-0.2-2.6-0.1-3.9-0.5c-2-0.5-3.8-1.3-5.4-2.6c-0.6-0.5-1.2-1.1-1.8-1.7c-1.4-1.3-2.1-2.9-2.5-4.7c0,0,0-0.1,0-0.1
				C80,125.1,80,125.2,80,125.2z"/>
			<path id="XMLID_442_" class="st4" d="M104.5,121.4c0,0.5,0,0.8-0.7,0.5c-0.4-0.2-1.1-0.3-1.5,0.2c-0.4,0.4-0.9,0.3-1.4,0.1
				c-0.4-0.1-0.9-0.4-0.6,0.4c0.1,0.2-0.1,0.2-0.2,0.2c-0.2,0-0.5,0-0.7,0c-0.5,0-1-0.1-0.5,0.7c0.1,0.2,0.1,0.4-0.2,0.4
				c-0.5,0.2-0.8,0.7-1.2,0.9c-0.9,0.4-1.3,1.2-1.8,1.9c-0.1,0.2-0.3,0.1-0.5,0.2c-0.9,0.2-1.7,0.5-2.7,0.5c-0.6,0-1.2,0.2-1.9,0.2
				c-0.2,0-0.4,0-0.5-0.1c-0.3-0.3-0.5-0.5-0.9-0.2c-0.1,0.1-0.3,0.1-0.4-0.1c-0.1-0.9-0.6-0.4-0.9-0.2c-0.4,0.2-0.6,0.2-0.6-0.3
				c0-0.4-0.2-0.7-0.4-0.9c-0.9-0.7-1.3-1.7-1.5-2.7c0-0.1,0-0.3-0.2-0.3c-1-0.1-1.1-1.2-1.7-1.7c-0.9,1-2,0-2.9,0.5
				c-0.2-0.4,0.2-0.7-0.1-0.9c0-0.1,0-0.2,0-0.3c0.6-0.3,1.2-0.1,1.7,0c2,0.3,3.9,0.5,5.9,0.7c0.8,0.1,1.5,0.1,2.3,0.1
				c0.3,0,0.5-0.1,0.7-0.3c0.1-0.1,0.2-0.2,0.4-0.2c0.3-0.1,0.4,0.2,0.6,0.3c0.2-0.1,0.1-0.4,0.3-0.6c0.3-0.2,0.4,0.1,0.5,0.3
				c0.1,0.8,0.1,0.9,0.9,0.8c1.6,0,3.2,0.1,4.7-0.2c0.5-0.1,1.1,0,1.7,0c1.2,0,2.3-0.2,3.4-0.3C103.8,121.2,104.2,121,104.5,121.4z"
				/>
			<path id="XMLID_441_" class="st4" d="M86.5,109.6c0,0,0.1,0.1,0.1,0.1c0.2,0.2,0.2,0.4,0.3,0.6c0.2,0.8,0.7,1.2,1.4,1.3
				c0.1,0,0.1,0,0.2,0c0.7,0.2,0.8,0.4,0.3,0.9c-0.7,0.8-1.4,1.7-2,2.6c-0.4,0.5-0.7,1.1-0.8,1.8c-0.1,0.7-0.4,1.1-1.1,1.1
				c-1.4,0.4-2.7,0.7-3.9,1.6c-0.2,0.1-0.4,0.3-0.6,0c0-1,0.5-1.8,1-2.5c1-1.2,2-2.4,2.9-3.6c0.1-0.2,0.1-0.4,0.2-0.5
				c0.5-1,1-1.9,1.4-2.9C86.2,110,86.3,109.7,86.5,109.6z"/>
			<path id="XMLID_440_" class="st13" d="M80.6,119.8c1.4-0.9,2.8-1.6,4.4-1.8c0.3-0.1,0.5,0,0.8-0.1c0.3,0.6-0.2,0.5-0.5,0.6
				c-1.2,0.2-2.2,0.7-3.3,1.2c-0.1,0.1-0.2,0.1-0.3,0.3c1,0.2,2,0.4,3,0.4c0.3,0,0.6-0.2,0.8-0.4c0.3-0.2,0.5-0.5,0.9-0.6
				c0.3,0,0.4,0.3,0.5,0.4c0.4,0.6,1.1,0.9,1.8,0.9c0.7,0,1.4,0.1,2-0.1c0.2-0.1,0.4-0.1,0.4,0.2c-0.2,0.4-0.4,0.5-0.9,0.5
				c-2.7-0.2-5.5-0.4-8.2-0.9c-0.6-0.1-1.1-0.1-1.7-0.2C80.2,120.1,80.5,120,80.6,119.8z"/>
			<path id="XMLID_439_" class="st4" d="M93.5,134.9c-0.6-0.5-1.3-0.3-2-0.4c-4.6-0.5-8-2.8-10.5-6.7c0-0.1-0.1-0.1-0.2-0.2
				c-0.3-0.8-0.7-1.6-0.9-2.4c0-0.1,0-0.3,0-0.4c0.4,1.4,1,2.7,1.8,3.9c0.6,0.9,1.4,1.6,2.2,2.3c1.3,1.2,3,2,4.6,2.6
				c1.1,0.4,2.2,0.5,3.3,0.6c0.5,0.1,1.1,0,1.6,0.2c0.6,0.2,0.6,0.5,0.3,1c-0.2,0-0.3,0.1-0.5,0C93.5,135.3,93.5,135.1,93.5,134.9z"
				/>
			<path id="XMLID_438_" class="st14" d="M86.4,108.5c0.1-1.4,0-2.8-0.3-4.1c0-0.3,0-0.6,0-0.9c0-0.1,0.1-0.1,0.1-0.2
				c0.4,0,0.6-0.3,1-0.5c0.2-0.1,0.5-0.3,0.8-0.3c0.2,0.2-0.1,0.4-0.1,0.6c-0.5,1.1-0.5,2.2-0.7,3.4c-0.1,0.6-0.2,1.3-0.3,1.9
				c-0.1,0.2,0,0.5-0.4,0.4C86.3,108.6,86.3,108.6,86.4,108.5z"/>
			<path id="XMLID_437_" class="st4" d="M80.7,130.9c-0.7-0.9-1.6-1.4-2.5-2c-0.6-0.5-1.3-0.9-1.9-1.4c-0.2-0.1-0.5-0.2-0.3-0.5
				c1.4,1,2.9,2.1,4.3,3.1c2.6,1.9,5.5,3.6,7.9,5.7c-0.2,0.2-0.4,0-0.6-0.1c-1.9-1.5-4-2.8-6-4.2c-0.2-0.2-0.5-0.3-0.8-0.4
				C80.8,131,80.8,130.9,80.7,130.9z"/>
			<path id="XMLID_436_" class="st4" d="M86.4,108.5c0,0.1,0,0.2,0,0.3c0.2,0.3,0.1,0.5,0.1,0.8c-0.3,1.1-0.8,2.1-1.4,3.1
				c-0.1,0.1-0.1,0.2-0.3,0.2c-0.2-0.9,0.1-1.7,0.3-2.6C85.5,109.6,85.7,108.9,86.4,108.5z"/>
			<path id="XMLID_435_" class="st4" d="M84.8,113.2c0,0.3,0,0.5-0.2,0.8c-0.8,0.9-1.6,1.9-2.4,2.9c-0.2,0.2-0.3,0.5-0.6,0.4
				c0.2-0.6,0.6-1,1-1.5c0.8-0.9,1.5-1.9,2.1-2.9C84.9,112.9,84.9,113,84.8,113.2z"/>
			<path id="XMLID_434_" class="st4" d="M84.8,113.2c0-0.1,0-0.2,0-0.3c0,0,0-0.1,0-0.1c0.7-1.3,1.5-2.5,1.6-4
				c0.2,0,0.2-0.3,0.4-0.4c0,0.5-0.1,0.9-0.3,1.3C86.2,110.9,85.6,112.1,84.8,113.2z"/>
			<path id="XMLID_433_" class="st4" d="M93.9,135.5c0-0.4,0.1-0.7-0.3-1c2.2,0,4.4,0.1,6.6-0.4c0.9-0.2,1.6-0.6,2.5-0.9
				c0.2,0.4,0.2,0.8,0,1.1c-0.8,0.1-1.6,0.5-2.4,0.7c-2,0.4-4,0.6-6,0.5C94.2,135.6,94.1,135.5,93.9,135.5z"/>
			<path id="XMLID_432_" class="st4" d="M102.7,134.3c0-0.4,0-0.8,0-1.1c1.3-0.9,2.7-1.7,3.8-2.8c0.8-0.8,1.5-1.7,2-2.7
				c1.2-2.1,2.1-4.2,3-6.4c0.3-0.7,0.5-1.4,0.8-2c0.2,0.1,0.2,0.3,0.2,0.5c0,0.5-0.2,0.9-0.4,1.4c-0.7,2-1.6,3.9-2.6,5.7
				c-0.1,0.2-0.2,0.4-0.4,0.5c-0.1,0.1-0.2,0.2-0.3,0.3c-1.4,2.4-3.3,4.3-5.7,5.6c-0.4,0.2-0.3,0.5-0.3,0.8c0.1,0.5,0.2,1.1,0.3,1.6
				c-0.1,0.1-0.3,0.1-0.3-0.1C103.1,135.1,102.8,134.7,102.7,134.3z"/>
			<path id="XMLID_431_" class="st15" d="M85.1,98.5c0,0,0.1,0,0.1,0c0.8,0.2,1.7,0,2.5,0.1c0.3,0,0.6,0,0.9,0
				c-0.8,0.4-1.5,0.8-2.3,1.1c-0.2-0.1-0.1-0.6-0.4-0.6C85.7,99,85.1,99.1,85.1,98.5z"/>
			<path id="XMLID_430_" class="st16" d="M110.4,117.6c-0.1,0.6-0.4,0.9-1,0.8c-0.1,0-0.2,0-0.4,0c-1.8,0-1.9-0.3-1.4-1.8
				c0.4-1.2,0.9-2.3,1.2-3.5c0.2-1.3,0.2-2.6-0.6-3.7c-0.2-0.3-0.3-0.7-0.5-1c-0.6-1-0.6-2-0.1-3c0.2-0.3,0.1-0.5,0-0.8
				c-0.1-0.2,0-0.3,0.2-0.2c0.6,0.3,1.2,0.6,1.8,0.9c0.2,0.1,0.4,0.1,0.4,0.4c-0.1,0.2,0.1,1.1,0.3,1.3c0.3,1.4,0.3,2.9,0.5,4.3
				c0.1,0.9,0.1,1.8,0.3,2.7c0.1,0.6-0.1,1.1-0.1,1.7l0,0C110.7,116.3,110.7,116.9,110.4,117.6z"/>
			<path id="XMLID_429_" class="st17" d="M107.9,104.3c-0.3,0.3,0.2,0.8-0.2,1c0.1-0.4,0-0.7-0.5-0.9c-3.4-1.4-7-1.9-10.6-2.3
				c-2.7-0.2-5.3-0.1-7.9,0.6c-0.3,0.1-0.5,0.2-0.8,0.3c0-0.2,0.1-0.4,0.1-0.6c2.3-1.1,4.8-1.1,7.2-1
				C99.7,101.5,103.9,102.3,107.9,104.3z"/>
			<path id="XMLID_428_" class="st18" d="M114.7,110.1c-0.7,0.5-1.2,1.1-1.7,1.7c-0.2-0.2-0.2-0.4-0.3-0.6c-0.2-1.1-0.3-2.2-0.5-3.3
				c-0.1-0.5-0.1-1,0.6-1c0.4,0.2,0.8,0.4,1.1,0.7C114.4,108.4,114.4,109.3,114.7,110.1z"/>
			<path id="XMLID_427_" class="st19" d="M112.8,106.9c-0.6,0.3-0.4,0.7-0.4,1.2c0.2,1.2,0.4,2.5,0.5,3.8c-0.1,0.1-0.2,0.3-0.3,0.4
				c-0.3,0.4-0.5,0.2-0.6-0.1c-0.1-0.3-0.2-0.7-0.2-1c-0.1-1.4-0.3-2.7-0.6-4.1c-0.1-0.7-0.5-0.8-1-0.3c-0.3-0.1-0.6-0.3-1-0.3
				c0.4-0.4,0.7-0.6,0.9-0.9C111.1,106,112,106.3,112.8,106.9z"/>
			<path id="XMLID_426_" class="st20" d="M114.7,110.1c-0.3,0-0.3-0.3-0.3-0.5c-0.1-0.6-0.2-1.3-0.5-1.9c-0.1-0.1,0.1-0.1,0.1-0.2
				c0.6,0.4,1.3,0.7,1.6,1.4c-0.1,0.2-0.1,0.3-0.2,0.5c0,0.3-0.2,0.6-0.6,0.7C114.8,110.1,114.7,110.1,114.7,110.1z"/>
			<path id="XMLID_425_" class="st4" d="M85.8,118c-0.3,0-0.6,0-0.9,0c0.8,0,0.9-0.6,1-1.2c0.1-0.6,0.4-1.1,0.7-1.6
				c0.6-0.9,1.2-1.8,2-2.6c0.5-0.5,0.3-0.6-0.2-0.7c-1.3-0.2-1.8-1-1.8-2.2c0.8-2.4,2.4-2.5,4.1-2.4c0.5,0,1,0.2,1.2,0.7
				c0.2,0.5,0.4,0.9,1,0.4c-1.2,1.1-2,2.5-3.3,3.5c-0.1-0.2-0.1-0.4,0-0.6c0.4-0.5,0.9-1,1.3-1.5c0.2-0.1,0.2-0.3,0.4-0.4
				c0.4-0.5,0.4-1-0.1-1.3c-1.1-0.7-3.3,0-3.8,1.2c-0.5,1.2-0.1,1.9,1.1,2.2c0.3,0.1,0.5,0.1,0.8,0.1c0.2,0,0.2,0.2,0.3,0.4
				c-0.9,1.3-2,2.5-2.9,3.8c-0.9,1.4-0.8,2.8,0.1,4.1c0.5,0.7,1.2,0.9,2,0.9c1.8,0.1,3.5-0.5,5.2-1c1.2-0.4,2.2-0.9,3.3-1.4
				c1.1-0.6,1.2-1.8,0.3-2.4c-0.5-0.3-1.4-0.3-1.8,0.2c-0.2,0.2-0.3,0.5-0.6,0.6c0.1-1.1,1.7-1.7,2.6-1c0.8,0.6,1.2,1.8,0.3,2.4
				c-0.2,0.1-0.3,0.3-0.3,0.5c-0.1,0.1-0.2,0.2-0.3,0.2c-0.3,0.2-0.7,0.3-1,0.5c-0.1,0.1-0.2,0.1-0.3,0.1c-1.1,0.5-2.3,0.8-3.4,1.2
				c-0.1,0.1-0.2,0.1-0.3,0c0-0.2-0.1-0.2-0.3-0.1c-0.2,0.4-0.6,0.1-0.9,0.3c-0.1,0-0.2,0.1-0.3,0.1c-0.4-0.2-0.8,0-1.2,0
				c-1.4,0.1-2.7-0.2-3.6-1.5C85.7,119.1,85.8,118.5,85.8,118z"/>
			<path id="XMLID_424_" class="st21" d="M110.3,106.7c0.1-0.3-0.2-0.7,0.2-0.8c0.3-0.1,1,0.6,1.1,0.9c0.2,1.7,0.5,3.4,0.7,5.1
				c0,0.3,0.1,0.4,0.4,0.3c-0.5,1.1-1.1,2.3-1.6,3.4c-0.3-0.7-0.1-1.4-0.2-2.1c-0.2-1.9-0.3-3.7-0.5-5.6
				C110.4,107.6,110.3,107.2,110.3,106.7z"/>
			<path id="XMLID_423_" class="st22" d="M92.5,120.7c0.1-0.1,0.1-0.1,0.2-0.2c0.3-0.1,0.3,0.1,0.4,0.3c0,0.3,0.2,0.4,0.5,0.4
				c1.1,0,2.3,0,3.4,0c0.2,0,0.4,0,0.5-0.2c0-0.2-0.2-0.3-0.2-0.4c-0.3-0.5-1-0.7-1-1.4c0.1,0,0.1-0.1,0.2-0.1
				c0.3-0.2,0.6,0,0.8,0.2c0.5,0.3,1,0.7,1.4,1.2c0.5,0.6,1.1,0.7,1.7,0.7c0.3,0,0.6,0,0.9-0.2c-0.5-0.7-1.1-1.3-1.7-2
				c-0.3-0.3-0.7-0.2-1-0.2c-0.4,0-0.9,0.3-1.3-0.3c0.1,0,0.3,0,0.4-0.1c2.8-0.7,5,0.8,6.7,2.5c0.1,0.1,0.1,0.3,0,0.4
				c-2.3,0.1-4.5,0.2-6.8,0.3c-1.5,0.1-3.1,0.1-4.6,0.1c-0.5,0-0.8-0.1-0.6-0.7C92.5,121,92.5,120.8,92.5,120.7z"/>
			<path id="XMLID_422_" class="st23" d="M102.1,107c-1.3-0.8-2.6-1.3-4-1.6c-0.5-0.1-0.5-0.4-0.4-0.8c0.1-0.3,0.1-0.7,0.6-0.7
				C99.8,103.9,101.8,105.4,102.1,107z"/>
			<path id="XMLID_421_" class="st24" d="M87.5,106.4c0.8-1.6,1.8-2.7,3.7-2.8c0.3,0,0.6-0.1,0.6,0.3c0,0.4,0.2,1.1-0.4,1.2
				C90,105.3,88.7,105.8,87.5,106.4z"/>
			<path id="XMLID_420_" class="st4" d="M99.7,113.1c-0.2,0-0.5,0-0.7,0c-1.6-0.3-2.4-1.3-2.2-2.9c0.1-0.6,0.1-1.2,0.4-1.8
				c0.2-0.5,0.5-0.8,1-0.9c2.4-0.4,4.6,1.2,4.1,4C102,112.8,101.1,113.3,99.7,113.1z"/>
			<path id="XMLID_419_" class="st4" d="M113.8,117.9c-0.5-0.4-0.7-0.2-0.8,0.3c-0.2,0.6-0.3,1.2-0.6,1.7c0-0.2,0-0.4,0-0.6
				c0.2-0.6,0.3-1.2,0.5-1.8c0.1-0.4-0.4-0.5-0.4-0.8c0.4,0.2,0.7,0.5,1.2,0.6c1.6,0.5,3.1-0.7,3.6-2.1c0.4-1.3,0.5-2.5-0.2-3.8
				c-0.5-0.9-1.2-1.3-2.2-1.2c0.3-0.1,0.4-0.5,0.6-0.7c0,0.2,0,0.3,0.2,0.4c1.6,0.5,2.1,1.8,2.2,3.3c0.1,1.7-0.5,3.2-2,4.3
				C115.2,117.9,114.5,117.8,113.8,117.9z"/>
			<path id="XMLID_418_" class="st4" d="M114.8,114.6c-0.7-0.1-1.3-0.3-1.8,0.2c0.2-1.2,1.2-2,2.3-1.9
				C115.1,113.4,113.6,113.5,114.8,114.6z"/>
			<path id="XMLID_417_" class="st21" d="M110.4,117.6c0.1-0.7,0.1-1.4,0.7-1.9C110.9,116.3,110.8,117,110.4,117.6z"/>
			<path id="XMLID_416_" class="st25" d="M85.5,122.6c-0.2-0.4-0.1-0.8-0.4-1.4c4.4,2.5,8.7,2.9,13.3,0.8c-0.3,0.7-0.6,1.3-1.1,1.7
				c-0.2,0.2-0.4,0.4-0.7,0.5c-2.8,0.7-5.5,0.8-8.3-0.1c-0.7-0.2-1.4-0.5-2.1-0.9C86,123.1,85.7,122.9,85.5,122.6z"/>
			<path id="XMLID_415_" class="st26" d="M88.3,123.9c1.2,0.2,2.4,0.6,3.6,0.6c1.9,0,3.7-0.2,5.5-0.8c-0.4,0.8-1.1,1.4-1.8,1.9
				c-0.4,0.3-0.8,0.7-1.3,0.7c-0.5-0.4-1-0.5-1.6-0.4c-0.2,0-0.4,0.1-0.6,0c-1-0.6-1.8-0.1-2.7,0.3c-0.6,0-1.1-0.2-1.5-0.5
				c-0.1,0-0.1-0.1-0.2-0.1c-0.1-0.1-0.3-0.1-0.4-0.3C87.1,125.1,87.8,124,88.3,123.9z"/>
			<path id="XMLID_414_" class="st27" d="M88.3,123.9c-0.1,0.5-0.4,0.7-0.8,1.1c-0.3,0.3-0.1,0.6,0.2,0.8c-0.7,0-1-0.5-1.2-1
				c-0.4-0.7-1-1.3-0.9-2.2C86.4,123.1,87.3,123.5,88.3,123.9z"/>
			<path id="XMLID_413_" class="st28" d="M89.4,126.2c0.8-0.5,1.6-1.1,2.5-0.3c0.3,0.2,0.5,0,0.8-0.1c1-0.1,1.3,0,1.5,0.7
				c-0.1,0.1-0.2,0.2-0.4,0.2c-0.9,0.1-1.9,0.2-2.9,0.1C90.5,126.7,89.8,126.8,89.4,126.2z"/>
			<path id="XMLID_412_" class="st29" d="M89.4,126.2c1.2,0.4,2.4,0.3,3.6,0.3c0.3,0,0.7-0.1,1,0.1c-2,1-3.9,0.4-5.7-0.4
				c-0.1-0.1-0.4-0.1-0.3-0.4C88.3,126,88.8,126.3,89.4,126.2z"/>
			<path id="XMLID_411_" class="st4" d="M91.4,120.8c0.3-0.2,0.6-0.2,0.9-0.3c0,0.1,0,0.1,0,0.2c0,0.3,0.1,0.6-0.3,0.7
				c-0.4,0.1-0.2-0.4-0.4-0.5C91.5,120.9,91.4,120.9,91.4,120.8z"/>
			<path id="XMLID_410_" class="st4" d="M99.5,122.6c-0.3,0.1-0.3-0.1-0.4-0.3c0.1-0.2,0.2-0.1,0.3,0
				C99.5,122.3,99.6,122.4,99.5,122.6z"/>
			<path id="XMLID_409_" class="st30" d="M85.8,118c0.1,0.5,0.3,1,0.4,1.5c-0.7,0.9-1.4,1.4-2.7,1c-0.8-0.2-1.7-0.2-2.6-0.4
				c0.4-0.5,0.9-0.7,1.4-0.9c1-0.4,2-1,3.2-1C85.7,118.2,85.8,118.1,85.8,118z"/>
			<path id="XMLID_408_" class="st31" d="M89.4,111.6c-1.2,0.5-2.6-0.5-2.4-1.8c0.1-0.9,0.7-1.6,1.5-2c0.8-0.3,1.6-0.3,2.4-0.2
				c0.5,0.1,0.9,0.4,0.9,1c0,0.4,0,0.7-0.5,0.8c-0.1,0-0.2-0.1-0.3-0.1c-0.7-0.6-1.2-0.6-1.7-0.2c-0.5,0.4-0.6,1.5-0.3,2
				C89.3,111.3,89.4,111.4,89.4,111.6z"/>
			<path id="XMLID_407_" class="st32" d="M97.3,118.6c0.5,0.2,1,0.1,1.5,0c0.5-0.1,0.8,0,1.2,0.4c0.5,0.7,1.2,1.3,1.7,2.1
				c-0.8,0.3-1.6,0.2-2.4,0.2c-0.3,0-0.4-0.2-0.5-0.4c-0.7-0.8-1.4-1.5-2.4-1.9C96.7,118.9,97,118.8,97.3,118.6z"/>
			<path id="XMLID_406_" class="st32" d="M96.2,119.2c0.5,0.6,1.1,1.1,1.6,1.7c0.3,0.3,0.3,0.4-0.2,0.5c-1.5,0.2-3,0.1-4.4,0.1
				c-0.3,0-0.4-0.2-0.4-0.5c0-0.2,0.2-0.4-0.1-0.5C93.8,119.9,95,119.7,96.2,119.2z"/>
			<path id="XMLID_405_" class="st33" d="M91.1,109.9c-0.3,0.6-0.8,1.1-1.3,1.5c-0.7-0.1-0.9-0.5-0.8-1.2c0.1-0.9,0.5-1.2,1.3-1.1
				c0.2,0.2,0,0.8,0.6,0.7C90.9,109.7,91,109.8,91.1,109.9z"/>
			<path id="XMLID_404_" class="st34" d="M91.1,109.9c-0.1,0-0.2,0-0.3,0c-0.1-0.3-0.3-0.6-0.6-0.8c-0.6-0.1-1,0.2-1.1,0.8
				c-0.2,0.6,0,1.2,0.6,1.5c0,0.2-0.1,0.3-0.1,0.5c0,0,0,0,0,0c-0.1-0.1-0.2-0.2-0.3-0.2c-0.8-0.7-0.9-1.9-0.1-2.7
				c0.7-0.7,1.6-0.5,2.1,0.5C91.4,109.6,91.3,109.8,91.1,109.9z"/>
			<path id="XMLID_403_" class="st35" d="M100.8,118.9c1.2,0.4,2.2,1,3,1.9c0.2,0.2,0.2,0.4-0.1,0.4c-0.4,0.1-0.8,0.2-1-0.2
				C102.1,120.2,101.3,119.6,100.8,118.9z"/>
			<path id="XMLID_402_" class="st36" d="M99,112.9c-1.5-0.3-2-1-1.9-2.6c0-0.4,0.1-0.8,0.2-1.3c0.2-1.1,0.6-1.4,1.7-1.3
				c1.4,0,2.4,0.8,2.9,2.2c0.1,0.2,0.1,0.3-0.1,0.5c-0.3,0-0.4-0.3-0.5-0.5c-0.4-0.7-1.2-0.9-1.8-0.3c-0.8,0.6-0.9,1.7-0.4,2.5
				c0.1,0.2,0.4,0.4,0.4,0.7C99.4,113,99.2,112.9,99,112.9z"/>
			<path id="XMLID_401_" class="st37" d="M101.8,110.3c0-0.1,0.1-0.3,0.1-0.4c0.4,0.9,0.2,1.9-0.4,2.6c-0.7,0.7-1.6,0.6-2.4,0.4
				c0.1,0,0.3-0.1,0.4-0.1c1.4-0.1,2.1-0.8,2.1-2.2C101.6,110.4,101.7,110.3,101.8,110.3z"/>
			<path id="XMLID_400_" class="st38" d="M90.2,109.1c0.2-0.1,0.4-0.2,0.6,0c0.2,0.3,0.1,0.5,0,0.8c-0.2,0.2-0.4,0.2-0.6,0
				C90,109.6,90,109.4,90.2,109.1z"/>
			<path id="XMLID_399_" class="st39" d="M101.8,110.3c0,0.6,0,1.1-0.3,1.6c-0.5,0.8-1.1,1.1-2,0.8c-0.9-0.8-1.1-1.7-0.6-2.6
				c0.3-0.7,1-1.2,1.6-1.1C101.3,109,101.6,109.6,101.8,110.3z"/>
			<path id="XMLID_398_" class="st40" d="M101.1,110.5c0,0.1,0.1,0.1,0.1,0.2c0.1,0.8-0.4,1.5-1,1.6c-0.5,0.1-1-0.4-1.1-0.9
				c-0.2-0.8,0.2-1.5,1-1.7c0.1,0,0.2,0,0.3,0C100.5,110,100.4,110.5,101.1,110.5z"/>
			<path id="XMLID_397_" class="st41" d="M101.1,110.5c-0.2,0.2-0.5,0.4-0.7,0.1c-0.3-0.3-0.2-0.7,0-1c0.2-0.1,0.4-0.3,0.6,0
				C101.2,109.8,101.2,110.1,101.1,110.5z"/>
			<g id="XMLID_29_">
				<g id="XMLID_279_">
					<g id="XMLID_281_">
						<defs>
							<path id="XMLID_282_" d="M85.3,100.8c0,0-15.1,1.7-21.4-2.7s-7.1-18.2,2-28S86,58.5,93.2,57.9c0,0,14.9-3.4,32.1,4.2
								s20.6,21.3,20.8,31.3c0.2,10-12.2,15.7-29.6,11S97.9,99.4,85.3,100.8z"/>
						</defs>
						<clipPath id="XMLID_638_">
							<use xlink:href="#XMLID_282_"  style="overflow:visible;"/>
						</clipPath>
						<polygon id="XMLID_396_" class="st42" points="57.9,54.5 56.7,54.6 56.7,54.5 						"/>
						<polygon id="XMLID_395_" class="st43" points="70.5,54.5 56.7,55 56.7,54.6 57.9,54.5 						"/>
						<polygon id="XMLID_394_" class="st44" points="83.2,54.5 56.7,55.5 56.7,55 70.5,54.5 						"/>
						<polygon id="XMLID_393_" class="st45" points="95.8,54.5 56.7,55.9 56.7,55.5 83.2,54.5 						"/>
						<polygon id="XMLID_392_" class="st46" points="108.5,54.5 56.7,56.3 56.7,55.9 95.8,54.5 						"/>
						<polygon id="XMLID_391_" class="st47" points="121.1,54.5 56.7,56.8 56.7,56.3 108.5,54.5 						"/>
						<polygon id="XMLID_390_" class="st48" points="133.7,54.5 56.7,57.2 56.7,56.8 121.1,54.5 						"/>
						<polygon id="XMLID_389_" class="st49" points="146.3,54.5 56.7,57.7 56.7,57.2 133.7,54.5 146.3,54.5 						"/>
						<polygon id="XMLID_388_" class="st50" points="146.3,55 56.7,58.1 56.7,57.7 146.3,54.5 						"/>
						<polygon id="XMLID_387_" class="st51" points="146.3,55.4 56.7,58.5 56.7,58.1 146.3,55 						"/>
						<polygon id="XMLID_386_" class="st52" points="146.3,55.9 56.7,59 56.7,58.5 146.3,55.4 						"/>
						<polygon id="XMLID_385_" class="st53" points="146.3,56.3 56.7,59.4 56.7,59 146.3,55.9 						"/>
						<polygon id="XMLID_384_" class="st54" points="146.3,56.7 56.7,59.9 56.7,59.4 146.3,56.3 						"/>
						<polygon id="XMLID_383_" class="st55" points="146.3,57.2 56.7,60.3 56.7,59.9 146.3,56.7 						"/>
						<polygon id="XMLID_382_" class="st56" points="146.3,57.6 56.7,60.7 56.7,60.3 146.3,57.2 						"/>
						<polygon id="XMLID_381_" class="st57" points="146.3,58.1 56.7,61.2 56.7,60.7 146.3,57.6 						"/>
						<polygon id="XMLID_380_" class="st58" points="146.3,58.5 56.7,61.6 56.7,61.2 146.3,58.1 						"/>
						<polygon id="XMLID_379_" class="st59" points="146.3,59 56.7,62.1 56.7,61.6 146.3,58.5 						"/>
						<polygon id="XMLID_378_" class="st60" points="146.3,59.4 56.7,62.5 56.7,62.1 146.3,59 						"/>
						<polygon id="XMLID_377_" class="st61" points="146.3,59.8 56.7,63 56.7,62.5 146.3,59.4 						"/>
						<polygon id="XMLID_376_" class="st62" points="146.3,60.3 56.7,63.4 56.7,63 146.3,59.8 						"/>
						<polygon id="XMLID_375_" class="st63" points="146.3,60.7 56.7,63.8 56.7,63.4 146.3,60.3 						"/>
						<polygon id="XMLID_374_" class="st64" points="146.3,61.2 56.7,64.3 56.7,63.8 146.3,60.7 						"/>
						<polygon id="XMLID_373_" class="st65" points="146.3,61.6 56.7,64.7 56.7,64.3 146.3,61.2 						"/>
						<polygon id="XMLID_372_" class="st66" points="146.3,62 56.7,65.2 56.7,64.7 146.3,61.6 						"/>
						<polygon id="XMLID_371_" class="st67" points="146.3,62.5 56.7,65.6 56.7,65.2 146.3,62 						"/>
						<polygon id="XMLID_370_" class="st68" points="146.3,62.9 56.7,66 56.7,65.6 146.3,62.5 						"/>
						<polygon id="XMLID_369_" class="st69" points="146.3,63.4 56.7,66.5 56.7,66 146.3,62.9 						"/>
						<polygon id="XMLID_368_" class="st70" points="146.3,63.8 56.7,66.9 56.7,66.5 146.3,63.4 						"/>
						<polygon id="XMLID_367_" class="st71" points="146.3,64.2 56.7,67.4 56.7,66.9 146.3,63.8 						"/>
						<polygon id="XMLID_366_" class="st72" points="146.3,64.7 56.7,67.8 56.7,67.4 146.3,64.2 						"/>
						<polygon id="XMLID_365_" class="st73" points="146.3,65.1 56.7,68.2 56.7,67.8 146.3,64.7 						"/>
						<polygon id="XMLID_364_" class="st74" points="146.3,65.6 56.7,68.7 56.7,68.2 146.3,65.1 						"/>
						<polygon id="XMLID_363_" class="st75" points="146.3,66 56.7,69.1 56.7,68.7 146.3,65.6 						"/>
						<polygon id="XMLID_362_" class="st76" points="146.3,66.4 56.7,69.6 56.7,69.1 146.3,66 						"/>
						<polygon id="XMLID_361_" class="st77" points="146.3,66.9 56.7,70 56.7,69.6 146.3,66.4 						"/>
						<polygon id="XMLID_360_" class="st78" points="146.3,67.3 56.7,70.4 56.7,70 146.3,66.9 						"/>
						<polygon id="XMLID_359_" class="st79" points="146.3,67.8 56.7,70.9 56.7,70.4 146.3,67.3 						"/>
						<polygon id="XMLID_358_" class="st80" points="146.3,68.2 56.7,71.3 56.7,70.9 146.3,67.8 						"/>
						<polygon id="XMLID_357_" class="st81" points="146.3,68.6 56.7,71.8 56.7,71.3 146.3,68.2 						"/>
						<polygon id="XMLID_356_" class="st82" points="146.3,69.1 56.7,72.2 56.7,71.8 146.3,68.6 						"/>
						<polygon id="XMLID_355_" class="st83" points="146.3,69.5 56.7,72.6 56.7,72.2 146.3,69.1 						"/>
						<polygon id="XMLID_354_" class="st84" points="146.3,70 56.7,73.1 56.7,72.6 146.3,69.5 						"/>
						<polygon id="XMLID_353_" class="st85" points="146.3,70.4 56.7,73.5 56.7,73.1 146.3,70 						"/>
						<polygon id="XMLID_352_" class="st86" points="146.3,70.8 56.7,74 56.7,73.5 146.3,70.4 						"/>
						<polygon id="XMLID_351_" class="st87" points="146.3,71.3 56.7,74.4 56.7,74 146.3,70.8 						"/>
						<polygon id="XMLID_350_" class="st88" points="146.3,71.7 56.7,74.8 56.7,74.4 146.3,71.3 						"/>
						<polygon id="XMLID_349_" class="st89" points="146.3,72.2 56.7,75.3 56.7,74.8 146.3,71.7 						"/>
						<polygon id="XMLID_348_" class="st90" points="146.3,72.6 56.7,75.7 56.7,75.3 146.3,72.2 						"/>
						<polygon id="XMLID_347_" class="st91" points="146.3,73 56.7,76.2 56.7,75.7 146.3,72.6 						"/>
						<polygon id="XMLID_346_" class="st92" points="146.3,73.5 56.7,76.6 56.7,76.2 146.3,73 						"/>
						<polygon id="XMLID_345_" class="st93" points="146.3,73.9 56.7,77.1 56.7,76.6 146.3,73.5 						"/>
						<polygon id="XMLID_344_" class="st94" points="146.3,74.4 56.7,77.5 56.7,77.1 146.3,73.9 						"/>
						<polygon id="XMLID_343_" class="st95" points="146.3,74.8 56.7,77.9 56.7,77.5 146.3,74.4 						"/>
						<polygon id="XMLID_342_" class="st96" points="146.3,75.3 56.7,78.4 56.7,77.9 146.3,74.8 						"/>
						<polygon id="XMLID_341_" class="st97" points="146.3,75.7 56.7,78.8 56.7,78.4 146.3,75.3 						"/>
						<polygon id="XMLID_340_" class="st98" points="146.3,76.1 56.7,79.3 56.7,78.8 146.3,75.7 						"/>
						<polygon id="XMLID_339_" class="st99" points="146.3,76.6 56.7,79.7 56.7,79.3 146.3,76.1 						"/>
						<polygon id="XMLID_338_" class="st100" points="146.3,77 56.7,80.1 56.7,79.7 146.3,76.6 						"/>
						<polygon id="XMLID_337_" class="st101" points="146.3,77.5 56.7,80.6 56.7,80.1 146.3,77 						"/>
						<polygon id="XMLID_336_" class="st102" points="146.3,77.9 56.7,81 56.7,80.6 146.3,77.5 						"/>
						<polygon id="XMLID_335_" class="st103" points="146.3,78.3 56.7,81.5 56.7,81 146.3,77.9 						"/>
						<polygon id="XMLID_334_" class="st104" points="146.3,78.8 56.7,81.9 56.7,81.5 146.3,78.3 						"/>
						<polygon id="XMLID_333_" class="st105" points="146.3,79.2 56.7,82.3 56.7,81.9 146.3,78.8 						"/>
						<polygon id="XMLID_332_" class="st106" points="146.3,79.7 56.7,82.8 56.7,82.3 146.3,79.2 						"/>
						<path id="XMLID_331_" class="st107" d="M56.7,82.8v0.4L69,82.8c2.5-0.4,5-0.4,7.4-0.3l69.8-2.4v-0.4L56.7,82.8z"/>
						<path id="XMLID_330_" class="st108" d="M69,82.8l-12.3,0.4v0.4l9.7-0.3C67.3,83.1,68.1,82.9,69,82.8z"/>
						<path id="XMLID_329_" class="st108" d="M76.4,82.5c1.1,0.1,2.2,0.2,3.2,0.3l66.6-2.3v-0.4L76.4,82.5z"/>
						<path id="XMLID_328_" class="st109" d="M65.3,83.6c0.4-0.1,0.7-0.2,1.1-0.3l-9.7,0.3v0.4l8-0.3C64.9,83.7,65.1,83.7,65.3,83.6
							z"/>
						<path id="XMLID_327_" class="st109" d="M79.7,82.9c0.8,0.1,1.7,0.2,2.6,0.4l64-2.2v-0.4L79.7,82.9z"/>
						<path id="XMLID_326_" class="st110" d="M82.2,83.2c0.3,0,0.6,0.1,0.8,0.1c0.6,0.1,1.1,0.2,1.7,0.2l61.5-2.1V81L82.2,83.2z"/>
						<path id="XMLID_325_" class="st110" d="M64.7,83.8l-8,0.3v0.4l6.8-0.2C63.9,84.1,64.3,84,64.7,83.8z"/>
						<path id="XMLID_324_" class="st111" d="M63.5,84.3l-6.8,0.2V85l5.8-0.2C62.8,84.6,63.2,84.5,63.5,84.3z"/>
						<path id="XMLID_323_" class="st111" d="M84.8,83.6c1.3,0.2,2.6,0.2,3.9,0.3l57.6-2v-0.4L84.8,83.6z"/>
						<path id="XMLID_322_" class="st112" d="M62.5,84.8L56.7,85v0.4l5.1-0.2C62,85.1,62.3,84.9,62.5,84.8z"/>
						<path id="XMLID_321_" class="st112" d="M88.7,83.9c2.9,0.1,5.8,0,8.8,0c0.9,0,1.7,0,2.6,0l46.1-1.6v-0.4L88.7,83.9z"/>
						<path id="XMLID_320_" class="st113" d="M61.8,85.2l-5.1,0.2v0.4l4.4-0.2C61.3,85.5,61.6,85.4,61.8,85.2z"/>
						<path id="XMLID_319_" class="st113" d="M100.1,83.9c1.3,0.1,2.6,0.2,3.9,0.3l42.3-1.5v-0.4L100.1,83.9z"/>
						<path id="XMLID_318_" class="st114" d="M61.1,85.7l-4.4,0.2v0.4l3.8-0.1C60.7,86,60.9,85.9,61.1,85.7z"/>
						<path id="XMLID_317_" class="st114" d="M104,84.2c0.8,0.1,1.7,0.2,2.5,0.4l39.8-1.4v-0.4L104,84.2z"/>
						<path id="XMLID_316_" class="st115" d="M60.5,86.2l-3.8,0.1v0.4l3.4-0.1C60.2,86.5,60.4,86.3,60.5,86.2z"/>
						<path id="XMLID_315_" class="st115" d="M106.5,84.6c0.7,0.1,1.4,0.2,2,0.4l37.7-1.3v-0.4L106.5,84.6z"/>
						<path id="XMLID_314_" class="st116" d="M108.5,84.9c0.6,0.1,1.2,0.2,1.8,0.4l36-1.3v-0.4L108.5,84.9z"/>
						<path id="XMLID_313_" class="st117" d="M110.3,85.3c0.5,0.1,1.1,0.3,1.6,0.4l34.4-1.2v-0.4L110.3,85.3z"/>
						<path id="XMLID_312_" class="st118" d="M111.9,85.7c0.5,0.1,1,0.3,1.5,0.4l32.9-1.1v-0.4L111.9,85.7z"/>
						<path id="XMLID_311_" class="st119" d="M113.4,86.1c0.5,0.1,0.9,0.3,1.4,0.4l31.5-1.1v-0.4L113.4,86.1z"/>
						<path id="XMLID_310_" class="st120" d="M114.8,86.5c0.4,0.1,0.9,0.3,1.3,0.4l30.1-1v-0.4L114.8,86.5z"/>
						<path id="XMLID_309_" class="st121" d="M116.1,86.9c0.4,0.1,0.9,0.3,1.3,0.4l28.8-1v-0.4L116.1,86.9z"/>
						<path id="XMLID_308_" class="st122" d="M117.4,87.3c0.4,0.1,0.8,0.3,1.3,0.4l27.6-1v-0.4L117.4,87.3z"/>
						<path id="XMLID_307_" class="st123" d="M118.7,87.7c0.4,0.1,0.8,0.3,1.2,0.4l26.4-0.9v-0.4L118.7,87.7z"/>
						<path id="XMLID_306_" class="st124" d="M119.9,88.1c0.4,0.1,0.8,0.3,1.2,0.4l25.2-0.9v-0.4L119.9,88.1z"/>
						<path id="XMLID_305_" class="st125" d="M121.1,88.5c0.4,0.1,0.8,0.3,1.2,0.4l24-0.8v-0.4L121.1,88.5z"/>
						<path id="XMLID_304_" class="st126" d="M122.2,88.9c0.4,0.1,0.8,0.3,1.2,0.4l22.8-0.8V88L122.2,88.9z"/>
						<path id="XMLID_303_" class="st127" d="M123.4,89.3c0.4,0.1,0.8,0.3,1.1,0.4l21.7-0.8v-0.4L123.4,89.3z"/>
						<path id="XMLID_302_" class="st128" d="M124.6,89.7c0.4,0.1,0.8,0.3,1.1,0.4l20.5-0.7v-0.4L124.6,89.7z"/>
						<path id="XMLID_301_" class="st129" d="M125.7,90.1c0.4,0.1,0.8,0.3,1.1,0.4l19.4-0.7v-0.4L125.7,90.1z"/>
						<path id="XMLID_300_" class="st130" d="M126.9,90.5c0.4,0.1,0.8,0.3,1.2,0.4l18.3-0.6v-0.4L126.9,90.5z"/>
						<path id="XMLID_299_" class="st131" d="M128,90.9c0.4,0.1,0.8,0.3,1.2,0.4l17.1-0.6v-0.4L128,90.9z"/>
						<path id="XMLID_298_" class="st132" d="M129.2,91.3c0.4,0.1,0.8,0.3,1.2,0.4l15.9-0.6v-0.4L129.2,91.3z"/>
						<path id="XMLID_297_" class="st133" d="M130.3,91.7c0.3,0.1,0.6,0.2,1,0.3c0.1,0,0.1,0,0.2,0.1l14.8-0.5v-0.4L130.3,91.7z"/>
						<path id="XMLID_296_" class="st134" d="M131.5,92.1c0.4,0.1,0.7,0.3,1,0.4l13.7-0.5v-0.4L131.5,92.1z"/>
						<path id="XMLID_295_" class="st135" d="M132.5,92.5c0.3,0.1,0.6,0.3,0.8,0.4l12.9-0.4V92L132.5,92.5z"/>
						<path id="XMLID_294_" class="st136" d="M133.4,92.9c0.3,0.1,0.5,0.3,0.8,0.4l12.1-0.4v-0.4L133.4,92.9z"/>
						<path id="XMLID_293_" class="st137" d="M134.1,93.3c0.2,0.1,0.4,0.3,0.6,0.4l11.5-0.4v-0.4L134.1,93.3z"/>
						<path id="XMLID_292_" class="st138" d="M134.8,93.7c0.2,0.1,0.4,0.3,0.6,0.4l10.9-0.4v-0.4L134.8,93.7z"/>
						<path id="XMLID_291_" class="st139" d="M135.3,94.1c0.2,0.1,0.4,0.3,0.5,0.4l10.4-0.4v-0.4L135.3,94.1z"/>
						<path id="XMLID_290_" class="st140" d="M135.9,94.6c0.2,0.1,0.3,0.3,0.5,0.4l9.9-0.3v-0.4L135.9,94.6z"/>
						<path id="XMLID_289_" class="st141" d="M136.3,95c0.1,0.1,0.3,0.3,0.4,0.4l9.5-0.3v-0.4L136.3,95z"/>
						<path id="XMLID_288_" class="st142" d="M136.7,95.4c0.1,0.1,0.3,0.3,0.4,0.4l9.1-0.3v-0.4L136.7,95.4z"/>
						<path id="XMLID_287_" class="st143" d="M137.1,95.8c0.1,0.1,0.2,0.3,0.3,0.4l8.8-0.3v-0.4L137.1,95.8z"/>
						<path id="XMLID_286_" class="st144" d="M137.5,96.3c0.1,0.1,0.2,0.3,0.3,0.4l8.5-0.3V96L137.5,96.3z"/>
						<path id="XMLID_285_" class="st145" d="M137.8,96.7c0.1,0.1,0.2,0.3,0.3,0.4l8.2-0.3v-0.4L137.8,96.7z"/>
						<path id="XMLID_284_" class="st145" d="M81.8,108.6c-3.2-0.5-6.6-1.6-9.8-0.6c-7.6,2.3-13-2.3-14.9-8.1l-0.4,0v9.1h29.5
							C84.8,109,83.3,108.9,81.8,108.6z"/>
						<path id="XMLID_283_" class="st145" d="M138.1,97.1c2.3,3.6,2.5,8.1,1.2,12h7V96.8L138.1,97.1z"/>
					</g>
					<path id="XMLID_280_" class="st0" d="M125.5,61.5c-17.2-7.5-32.3-4.3-32.3-4.2c-8.3,0.7-18.9,2.8-27.7,12.4
						c-4.9,5.3-7.4,12.2-6.8,18.8c0.3-0.5,0.7-1,1.1-1.4c-0.1-5.8,2.3-11.9,6.6-16.6c8.6-9.3,18.9-11.3,27.1-12
						c0.1,0,14.9-3.2,31.7,4.2c13.2,5.8,20.1,16.1,20.4,30.8c0.1,3.3-1.3,6.2-4,8.3c-0.4,0.3-0.9,0.7-1.4,1c0,0.4,0.1,0.9,0.1,1.3
						c0.7-0.4,1.4-0.8,2.1-1.3c3-2.4,4.6-5.6,4.5-9.3C146.2,78.2,139.1,67.5,125.5,61.5z"/>
				</g>
				<g id="XMLID_163_">
					<g id="XMLID_167_">
						<defs>
							<path id="XMLID_168_" d="M100.6,54.1c0,0,2.9-0.4,3.3-6.9s-2.8-11.9,5.4-8.7s7.5,11.9,1.5,14.6c-6.1,2.6-9,4.1-9,4.1
								S97.3,55.1,100.6,54.1z"/>
						</defs>
						<clipPath id="XMLID_639_">
							<use xlink:href="#XMLID_168_"  style="overflow:visible;"/>
						</clipPath>
						<polygon id="XMLID_278_" class="st146" points="100.3,35.2 97.3,35.3 97.3,35.2 						"/>
						<polygon id="XMLID_277_" class="st147" points="105.3,35.2 97.3,35.5 97.3,35.3 100.3,35.2 						"/>
						<polygon id="XMLID_276_" class="st148" points="110.2,35.2 97.3,35.7 97.3,35.5 105.3,35.2 						"/>
						<polygon id="XMLID_275_" class="st149" points="115.2,35.2 97.3,35.8 97.3,35.7 110.2,35.2 						"/>
						<polygon id="XMLID_274_" class="st150" points="117.4,35.3 97.3,36 97.3,35.8 115.2,35.2 117.4,35.2 						"/>
						<polygon id="XMLID_273_" class="st151" points="117.4,35.5 97.3,36.2 97.3,36 117.4,35.3 						"/>
						<polygon id="XMLID_272_" class="st152" points="117.4,35.7 97.3,36.4 97.3,36.2 117.4,35.5 						"/>
						<polygon id="XMLID_271_" class="st153" points="117.4,35.8 97.3,36.5 97.3,36.4 117.4,35.7 						"/>
						<polygon id="XMLID_270_" class="st154" points="117.4,36 97.3,36.7 97.3,36.5 117.4,35.8 						"/>
						<polygon id="XMLID_269_" class="st155" points="117.4,36.2 97.3,36.9 97.3,36.7 117.4,36 						"/>
						<polygon id="XMLID_268_" class="st156" points="117.4,36.3 97.3,37 97.3,36.9 117.4,36.2 						"/>
						<polygon id="XMLID_267_" class="st157" points="117.4,36.5 97.3,37.2 97.3,37 117.4,36.3 						"/>
						<polygon id="XMLID_266_" class="st158" points="117.4,36.7 97.3,37.4 97.3,37.2 117.4,36.5 						"/>
						<polygon id="XMLID_265_" class="st159" points="117.4,36.9 97.3,37.6 97.3,37.4 117.4,36.7 						"/>
						<polygon id="XMLID_264_" class="st160" points="117.4,37 97.3,37.7 97.3,37.6 117.4,36.9 						"/>
						<polygon id="XMLID_263_" class="st161" points="117.4,37.2 97.3,37.9 97.3,37.7 117.4,37 						"/>
						<polygon id="XMLID_262_" class="st162" points="117.4,37.4 97.3,38.1 97.3,37.9 117.4,37.2 						"/>
						<polygon id="XMLID_261_" class="st163" points="117.4,37.6 97.3,38.3 97.3,38.1 117.4,37.4 						"/>
						<polygon id="XMLID_260_" class="st164" points="117.4,37.7 97.3,38.4 97.3,38.3 117.4,37.6 						"/>
						<polygon id="XMLID_259_" class="st165" points="117.4,37.9 97.3,38.6 97.3,38.4 117.4,37.7 						"/>
						<polygon id="XMLID_258_" class="st166" points="117.4,38.1 97.3,38.8 97.3,38.6 117.4,37.9 						"/>
						<polygon id="XMLID_257_" class="st167" points="117.4,38.2 97.3,38.9 97.3,38.8 117.4,38.1 						"/>
						<polygon id="XMLID_256_" class="st168" points="117.4,38.4 97.3,39.1 97.3,38.9 117.4,38.2 						"/>
						<polygon id="XMLID_255_" class="st169" points="117.4,38.6 97.3,39.3 97.3,39.1 117.4,38.4 						"/>
						<polygon id="XMLID_254_" class="st170" points="117.4,38.8 97.3,39.5 97.3,39.3 117.4,38.6 						"/>
						<polygon id="XMLID_253_" class="st171" points="117.4,38.9 97.3,39.6 97.3,39.5 117.4,38.8 						"/>
						<polygon id="XMLID_252_" class="st172" points="117.4,39.1 97.3,39.8 97.3,39.6 117.4,38.9 						"/>
						<polygon id="XMLID_251_" class="st173" points="117.4,39.3 97.3,40 97.3,39.8 117.4,39.1 						"/>
						<polygon id="XMLID_250_" class="st174" points="117.4,39.5 97.3,40.1 97.3,40 117.4,39.3 						"/>
						<polygon id="XMLID_249_" class="st175" points="117.4,39.6 97.3,40.3 97.3,40.1 117.4,39.5 						"/>
						<polygon id="XMLID_248_" class="st176" points="117.4,39.8 97.3,40.5 97.3,40.3 117.4,39.6 						"/>
						<polygon id="XMLID_247_" class="st177" points="117.4,40 97.3,40.7 97.3,40.5 117.4,39.8 						"/>
						<polygon id="XMLID_246_" class="st178" points="117.4,40.1 97.3,40.8 97.3,40.7 117.4,40 						"/>
						<polygon id="XMLID_245_" class="st179" points="117.4,40.3 97.3,41 97.3,40.8 117.4,40.1 						"/>
						<polygon id="XMLID_244_" class="st180" points="117.4,40.5 97.3,41.2 97.3,41 117.4,40.3 						"/>
						<polygon id="XMLID_243_" class="st181" points="117.4,40.7 97.3,41.4 97.3,41.2 117.4,40.5 						"/>
						<polygon id="XMLID_242_" class="st182" points="117.4,40.8 97.3,41.5 97.3,41.4 117.4,40.7 						"/>
						<polygon id="XMLID_241_" class="st183" points="117.4,41 97.3,41.7 97.3,41.5 117.4,40.8 						"/>
						<polygon id="XMLID_240_" class="st184" points="117.4,41.2 97.3,41.9 97.3,41.7 117.4,41 						"/>
						<polygon id="XMLID_239_" class="st185" points="117.4,41.3 97.3,42 97.3,41.9 117.4,41.2 						"/>
						<polygon id="XMLID_238_" class="st186" points="117.4,41.5 97.3,42.2 97.3,42 117.4,41.3 						"/>
						<polygon id="XMLID_237_" class="st187" points="117.4,41.7 97.3,42.4 97.3,42.2 117.4,41.5 						"/>
						<polygon id="XMLID_236_" class="st188" points="117.4,41.9 97.3,42.6 97.3,42.4 117.4,41.7 						"/>
						<polygon id="XMLID_235_" class="st189" points="117.4,42 97.3,42.7 97.3,42.6 117.4,41.9 						"/>
						<polygon id="XMLID_234_" class="st190" points="117.4,42.2 97.3,42.9 97.3,42.7 117.4,42 						"/>
						<polygon id="XMLID_233_" class="st191" points="117.4,42.4 97.3,43.1 97.3,42.9 117.4,42.2 						"/>
						<polygon id="XMLID_232_" class="st192" points="117.4,42.6 97.3,43.3 97.3,43.1 117.4,42.4 						"/>
						<polygon id="XMLID_231_" class="st193" points="117.4,42.7 97.3,43.4 97.3,43.3 117.4,42.6 						"/>
						<polygon id="XMLID_230_" class="st194" points="117.4,42.9 97.3,43.6 97.3,43.4 117.4,42.7 						"/>
						<polygon id="XMLID_229_" class="st195" points="117.4,43.1 97.3,43.8 97.3,43.6 117.4,42.9 						"/>
						<polygon id="XMLID_228_" class="st196" points="117.4,43.2 97.3,43.9 97.3,43.8 117.4,43.1 						"/>
						<polygon id="XMLID_227_" class="st197" points="117.4,43.4 97.3,44.1 97.3,43.9 117.4,43.2 						"/>
						<polygon id="XMLID_226_" class="st198" points="117.4,43.6 97.3,44.3 97.3,44.1 117.4,43.4 						"/>
						<polygon id="XMLID_225_" class="st199" points="117.4,43.8 97.3,44.5 97.3,44.3 117.4,43.6 						"/>
						<polygon id="XMLID_224_" class="st200" points="117.4,43.9 97.3,44.6 97.3,44.5 117.4,43.8 						"/>
						<polygon id="XMLID_223_" class="st201" points="117.4,44.1 97.3,44.8 97.3,44.6 117.4,43.9 						"/>
						<polygon id="XMLID_222_" class="st202" points="117.4,44.3 97.3,45 97.3,44.8 117.4,44.1 						"/>
						<polygon id="XMLID_221_" class="st203" points="117.4,44.4 97.3,45.1 97.3,45 117.4,44.3 						"/>
						<polygon id="XMLID_220_" class="st204" points="117.4,44.6 97.3,45.3 97.3,45.1 117.4,44.4 						"/>
						<polygon id="XMLID_219_" class="st205" points="117.4,44.8 97.3,45.5 97.3,45.3 117.4,44.6 						"/>
						<polygon id="XMLID_218_" class="st206" points="117.4,45 97.3,45.7 97.3,45.5 117.4,44.8 						"/>
						<polygon id="XMLID_217_" class="st207" points="117.4,45.1 97.3,45.8 97.3,45.7 117.4,45 						"/>
						<polygon id="XMLID_216_" class="st208" points="117.4,45.3 97.3,46 97.3,45.8 117.4,45.1 						"/>
						<polygon id="XMLID_215_" class="st209" points="117.4,45.5 97.3,46.2 97.3,46 117.4,45.3 						"/>
						<polygon id="XMLID_214_" class="st210" points="117.4,45.7 97.3,46.4 97.3,46.2 117.4,45.5 						"/>
						<polygon id="XMLID_213_" class="st211" points="117.4,45.8 97.3,46.5 97.3,46.4 117.4,45.7 						"/>
						<polygon id="XMLID_212_" class="st212" points="117.4,46 97.3,46.7 97.3,46.5 117.4,45.8 						"/>
						<polygon id="XMLID_211_" class="st213" points="117.4,46.2 97.3,46.9 97.3,46.7 117.4,46 						"/>
						<polygon id="XMLID_210_" class="st214" points="117.4,46.3 97.3,47 97.3,46.9 117.4,46.2 						"/>
						<polygon id="XMLID_209_" class="st215" points="117.4,46.5 97.3,47.2 97.3,47 117.4,46.3 						"/>
						<polygon id="XMLID_208_" class="st216" points="117.4,46.7 97.3,47.4 97.3,47.2 117.4,46.5 						"/>
						<polygon id="XMLID_207_" class="st217" points="117.4,46.9 97.3,47.6 97.3,47.4 117.4,46.7 						"/>
						<polygon id="XMLID_206_" class="st218" points="117.4,47 97.3,47.7 97.3,47.6 117.4,46.9 						"/>
						<polygon id="XMLID_205_" class="st219" points="117.4,47.2 97.3,47.9 97.3,47.7 117.4,47 						"/>
						<polygon id="XMLID_204_" class="st220" points="117.4,47.4 97.3,48.1 97.3,47.9 117.4,47.2 						"/>
						<polygon id="XMLID_203_" class="st221" points="117.4,47.6 97.3,48.3 97.3,48.1 117.4,47.4 						"/>
						<polygon id="XMLID_202_" class="st222" points="117.4,47.7 97.3,48.4 97.3,48.3 117.4,47.6 						"/>
						<polygon id="XMLID_201_" class="st223" points="117.4,47.9 97.3,48.6 97.3,48.4 117.4,47.7 						"/>
						<polygon id="XMLID_200_" class="st224" points="117.4,48.1 97.3,48.8 97.3,48.6 117.4,47.9 						"/>
						<polygon id="XMLID_199_" class="st225" points="117.4,48.2 97.3,48.9 97.3,48.8 117.4,48.1 						"/>
						<polygon id="XMLID_198_" class="st226" points="117.4,48.4 97.3,49.1 97.3,48.9 117.4,48.2 						"/>
						<polygon id="XMLID_197_" class="st227" points="117.4,48.6 97.3,49.3 97.3,49.1 117.4,48.4 						"/>
						<polygon id="XMLID_196_" class="st228" points="117.4,48.8 97.3,49.5 97.3,49.3 117.4,48.6 						"/>
						<polygon id="XMLID_195_" class="st229" points="117.4,48.9 97.3,49.6 97.3,49.5 117.4,48.8 						"/>
						<polygon id="XMLID_194_" class="st230" points="117.4,49.1 97.3,49.8 97.3,49.6 117.4,48.9 						"/>
						<polygon id="XMLID_193_" class="st231" points="117.4,49.3 97.3,50 97.3,49.8 117.4,49.1 						"/>
						<polygon id="XMLID_192_" class="st232" points="117.4,49.4 97.3,50.1 97.3,50 117.4,49.3 						"/>
						<polygon id="XMLID_191_" class="st233" points="117.4,49.6 97.3,50.3 97.3,50.1 117.4,49.4 						"/>
						<polygon id="XMLID_190_" class="st234" points="117.4,49.8 97.3,50.5 97.3,50.3 117.4,49.6 						"/>
						<polygon id="XMLID_189_" class="st235" points="117.4,50 97.3,50.7 97.3,50.5 117.4,49.8 						"/>
						<polygon id="XMLID_188_" class="st236" points="117.4,50.1 97.3,50.8 97.3,50.7 117.4,50 						"/>
						<polygon id="XMLID_187_" class="st237" points="117.4,50.3 97.3,51 97.3,50.8 117.4,50.1 						"/>
						<polygon id="XMLID_186_" class="st238" points="117.4,50.5 97.3,51.2 97.3,51 117.4,50.3 						"/>
						<polygon id="XMLID_185_" class="st239" points="117.4,50.7 97.3,51.4 97.3,51.2 117.4,50.5 						"/>
						<polygon id="XMLID_184_" class="st240" points="117.4,50.8 97.3,51.5 97.3,51.4 117.4,50.7 						"/>
						<polygon id="XMLID_183_" class="st241" points="117.4,51 97.3,51.7 97.3,51.5 117.4,50.8 						"/>
						<polygon id="XMLID_182_" class="st242" points="117.4,51.2 97.3,51.9 97.3,51.7 117.4,51 						"/>
						<polygon id="XMLID_181_" class="st243" points="117.4,51.3 97.3,52 97.3,51.9 117.4,51.2 						"/>
						<polygon id="XMLID_180_" class="st244" points="117.4,51.5 97.3,52.2 97.3,52 117.4,51.3 						"/>
						<polygon id="XMLID_179_" class="st245" points="117.4,51.7 97.3,52.4 97.3,52.2 117.4,51.5 						"/>
						<polygon id="XMLID_178_" class="st246" points="117.4,51.9 97.3,52.6 97.3,52.4 117.4,51.7 						"/>
						<polygon id="XMLID_177_" class="st247" points="117.4,52 97.3,52.7 97.3,52.6 117.4,51.9 						"/>
						<polygon id="XMLID_176_" class="st248" points="117.4,52.2 97.3,52.9 97.3,52.7 117.4,52 						"/>
						<polygon id="XMLID_175_" class="st249" points="117.4,52.4 97.3,53.1 97.3,52.9 117.4,52.2 						"/>
						<polygon id="XMLID_174_" class="st250" points="117.4,52.6 97.3,53.3 97.3,53.1 117.4,52.4 						"/>
						<polygon id="XMLID_173_" class="st251" points="117.4,52.7 97.3,53.4 97.3,53.3 117.4,52.6 						"/>
						<polygon id="XMLID_172_" class="st252" points="117.4,52.9 97.3,53.6 97.3,53.4 117.4,52.7 						"/>
						<polygon id="XMLID_171_" class="st253" points="117.4,53.1 97.3,53.8 97.3,53.6 117.4,52.9 						"/>
						<polygon id="XMLID_170_" class="st254" points="117.4,53.2 97.3,53.9 97.3,53.8 117.4,53.1 						"/>
						<polygon id="XMLID_169_" class="st254" points="97.3,53.9 117.4,53.2 117.4,57.1 97.3,57.1 						"/>
					</g>
					<path id="XMLID_164_" class="st0" d="M101.7,57.8l-0.3-0.1c-0.6-0.3-2.7-1.4-2.6-2.7c0.1-0.7,0.6-1.1,1.6-1.4l0.1,0
						c0.1,0,2.4-0.6,2.8-6.4c0.1-1.6,0-3.2-0.1-4.6c-0.2-2.4-0.4-4.3,0.8-5.2c1-0.7,2.6-0.6,5.5,0.6c4,1.6,6.4,4.7,6.4,8.2
						c0,3.2-1.9,6.1-5,7.4c-6,2.6-9,4.1-9,4.1L101.7,57.8z M100.7,54.7c-0.7,0.2-0.8,0.4-0.8,0.4c0,0.2,0.7,0.9,1.7,1.4
						c0.9-0.4,3.8-1.8,8.8-4c2.7-1.2,4.3-3.6,4.3-6.3c0-3.1-2.2-5.7-5.7-7.2c-2.3-0.9-3.7-1.2-4.3-0.7c-0.7,0.5-0.5,2.2-0.4,4.1
						c0.1,1.4,0.3,3.1,0.1,4.8C104.1,53.7,101.2,54.6,100.7,54.7z"/>
				</g>
				<g id="XMLID_30_">
					<g id="XMLID_34_">
						<defs>
							<path id="XMLID_35_" d="M99,57.8c0,0-16.1-4.1-10.4-14.9c5.7-10.8,11.1-2,9.8,3c-1.3,5,0.6,5.7,1.6,7.2
								C101.1,54.5,104.5,59.7,99,57.8z"/>
						</defs>
						<clipPath id="XMLID_640_">
							<use xlink:href="#XMLID_35_"  style="overflow:visible;"/>
						</clipPath>
						<polygon id="XMLID_162_" class="st255" points="92.3,32.1 83,32.4 83,32.1 						"/>
						<polygon id="XMLID_161_" class="st255" points="97.6,32.1 83,32.6 83,32.4 92.3,32.1 						"/>
						<polygon id="XMLID_160_" class="st256" points="102.8,32.1 83,32.8 83,32.6 97.6,32.1 						"/>
						<polygon id="XMLID_159_" class="st257" points="104.5,32.2 83,33 83,32.8 102.8,32.1 104.5,32.1 						"/>
						<polygon id="XMLID_158_" class="st258" points="104.5,32.4 83,33.1 83,33 104.5,32.2 						"/>
						<polygon id="XMLID_157_" class="st259" points="104.5,32.6 83,33.3 83,33.1 104.5,32.4 						"/>
						<polygon id="XMLID_156_" class="st260" points="104.5,32.8 83,33.5 83,33.3 104.5,32.6 						"/>
						<polygon id="XMLID_155_" class="st261" points="104.5,32.9 83,33.7 83,33.5 104.5,32.8 						"/>
						<polygon id="XMLID_154_" class="st262" points="104.5,33.1 83,33.9 83,33.7 104.5,32.9 						"/>
						<polygon id="XMLID_153_" class="st263" points="104.5,33.3 83,34.1 83,33.9 104.5,33.1 						"/>
						<polygon id="XMLID_152_" class="st264" points="104.5,33.5 83,34.2 83,34.1 104.5,33.3 						"/>
						<polygon id="XMLID_151_" class="st265" points="104.5,33.7 83,34.4 83,34.2 104.5,33.5 						"/>
						<polygon id="XMLID_150_" class="st266" points="104.5,33.9 83,34.6 83,34.4 104.5,33.7 						"/>
						<polygon id="XMLID_149_" class="st267" points="104.5,34 83,34.8 83,34.6 104.5,33.9 						"/>
						<polygon id="XMLID_148_" class="st268" points="104.5,34.2 83,35 83,34.8 104.5,34 						"/>
						<polygon id="XMLID_147_" class="st269" points="104.5,34.4 83,35.2 83,35 104.5,34.2 						"/>
						<polygon id="XMLID_146_" class="st270" points="104.5,34.6 83,35.3 83,35.2 104.5,34.4 						"/>
						<polygon id="XMLID_145_" class="st271" points="104.5,34.8 83,35.5 83,35.3 104.5,34.6 						"/>
						<polygon id="XMLID_144_" class="st272" points="104.5,35 83,35.7 83,35.5 104.5,34.8 						"/>
						<polygon id="XMLID_143_" class="st273" points="104.5,35.1 83,35.9 83,35.7 104.5,35 						"/>
						<polygon id="XMLID_142_" class="st274" points="104.5,35.3 83,36.1 83,35.9 104.5,35.1 						"/>
						<polygon id="XMLID_141_" class="st275" points="104.5,35.5 83,36.3 83,36.1 104.5,35.3 						"/>
						<polygon id="XMLID_140_" class="st276" points="104.5,35.7 83,36.4 83,36.3 104.5,35.5 						"/>
						<polygon id="XMLID_139_" class="st277" points="104.5,35.9 83,36.6 83,36.4 104.5,35.7 						"/>
						<polygon id="XMLID_138_" class="st278" points="104.5,36.1 83,36.8 83,36.6 104.5,35.9 						"/>
						<polygon id="XMLID_137_" class="st279" points="104.5,36.2 83,37 83,36.8 104.5,36.1 						"/>
						<polygon id="XMLID_136_" class="st280" points="104.5,36.4 83,37.2 83,37 104.5,36.2 						"/>
						<polygon id="XMLID_135_" class="st281" points="104.5,36.6 83,37.4 83,37.2 104.5,36.4 						"/>
						<polygon id="XMLID_134_" class="st282" points="104.5,36.8 83,37.5 83,37.4 104.5,36.6 						"/>
						<polygon id="XMLID_133_" class="st283" points="104.5,37 83,37.7 83,37.5 104.5,36.8 						"/>
						<polygon id="XMLID_132_" class="st284" points="104.5,37.2 83,37.9 83,37.7 104.5,37 						"/>
						<polygon id="XMLID_131_" class="st285" points="104.5,37.3 83,38.1 83,37.9 104.5,37.2 						"/>
						<polygon id="XMLID_130_" class="st286" points="104.5,37.5 83,38.3 83,38.1 104.5,37.3 						"/>
						<polygon id="XMLID_129_" class="st287" points="104.5,37.7 83,38.5 83,38.3 104.5,37.5 						"/>
						<polygon id="XMLID_128_" class="st288" points="104.5,37.9 83,38.6 83,38.5 104.5,37.7 						"/>
						<polygon id="XMLID_127_" class="st289" points="104.5,38.1 83,38.8 83,38.6 104.5,37.9 						"/>
						<polygon id="XMLID_126_" class="st290" points="104.5,38.3 83,39 83,38.8 104.5,38.1 						"/>
						<polygon id="XMLID_125_" class="st291" points="104.5,38.4 83,39.2 83,39 104.5,38.3 						"/>
						<polygon id="XMLID_124_" class="st292" points="104.5,38.6 83,39.4 83,39.2 104.5,38.4 						"/>
						<polygon id="XMLID_123_" class="st293" points="104.5,38.8 83,39.6 83,39.4 104.5,38.6 						"/>
						<polygon id="XMLID_122_" class="st294" points="104.5,39 83,39.7 83,39.6 104.5,38.8 						"/>
						<polygon id="XMLID_121_" class="st295" points="104.5,39.2 83,39.9 83,39.7 104.5,39 						"/>
						<polygon id="XMLID_120_" class="st296" points="104.5,39.4 83,40.1 83,39.9 104.5,39.2 						"/>
						<polygon id="XMLID_119_" class="st297" points="104.5,39.5 83,40.3 83,40.1 104.5,39.4 						"/>
						<polygon id="XMLID_118_" class="st298" points="104.5,39.7 83,40.5 83,40.3 104.5,39.5 						"/>
						<polygon id="XMLID_117_" class="st299" points="104.5,39.9 83,40.6 83,40.5 104.5,39.7 						"/>
						<polygon id="XMLID_116_" class="st300" points="104.5,40.1 83,40.8 83,40.6 104.5,39.9 						"/>
						<polygon id="XMLID_115_" class="st301" points="104.5,40.3 83,41 83,40.8 104.5,40.1 						"/>
						<polygon id="XMLID_114_" class="st302" points="104.5,40.4 83,41.2 83,41 104.5,40.3 						"/>
						<polygon id="XMLID_113_" class="st303" points="104.5,40.6 83,41.4 83,41.2 104.5,40.4 						"/>
						<polygon id="XMLID_112_" class="st304" points="104.5,40.8 83,41.6 83,41.4 104.5,40.6 						"/>
						<polygon id="XMLID_111_" class="st305" points="104.5,41 83,41.7 83,41.6 104.5,40.8 						"/>
						<polygon id="XMLID_110_" class="st306" points="104.5,41.2 83,41.9 83,41.7 104.5,41 						"/>
						<polygon id="XMLID_109_" class="st307" points="104.5,41.4 83,42.1 83,41.9 104.5,41.2 						"/>
						<polygon id="XMLID_108_" class="st308" points="104.5,41.5 83,42.3 83,42.1 104.5,41.4 						"/>
						<polygon id="XMLID_107_" class="st309" points="104.5,41.7 83,42.5 83,42.3 104.5,41.5 						"/>
						<polygon id="XMLID_106_" class="st310" points="104.5,41.9 83,42.7 83,42.5 104.5,41.7 						"/>
						<polygon id="XMLID_105_" class="st311" points="104.5,42.1 83,42.8 83,42.7 104.5,41.9 						"/>
						<polygon id="XMLID_104_" class="st312" points="104.5,42.3 83,43 83,42.8 104.5,42.1 						"/>
						<polygon id="XMLID_103_" class="st313" points="104.5,42.5 83,43.2 83,43 104.5,42.3 						"/>
						<polygon id="XMLID_102_" class="st314" points="104.5,42.6 83,43.4 83,43.2 104.5,42.5 						"/>
						<polygon id="XMLID_101_" class="st315" points="104.5,42.8 83,43.6 83,43.4 104.5,42.6 						"/>
						<polygon id="XMLID_100_" class="st316" points="104.5,43 83,43.8 83,43.6 104.5,42.8 						"/>
						<polygon id="XMLID_99_" class="st317" points="104.5,43.2 83,43.9 83,43.8 104.5,43 						"/>
						<polygon id="XMLID_98_" class="st318" points="104.5,43.4 83,44.1 83,43.9 104.5,43.2 						"/>
						<polygon id="XMLID_97_" class="st319" points="104.5,43.6 83,44.3 83,44.1 104.5,43.4 						"/>
						<polygon id="XMLID_96_" class="st320" points="104.5,43.7 83,44.5 83,44.3 104.5,43.6 						"/>
						<polygon id="XMLID_95_" class="st321" points="104.5,43.9 83,44.7 83,44.5 104.5,43.7 						"/>
						<polygon id="XMLID_94_" class="st322" points="104.5,44.1 83,44.9 83,44.7 104.5,43.9 						"/>
						<polygon id="XMLID_93_" class="st323" points="104.5,44.3 83,45 83,44.9 104.5,44.1 						"/>
						<polygon id="XMLID_92_" class="st324" points="104.5,44.5 83,45.2 83,45 104.5,44.3 						"/>
						<polygon id="XMLID_91_" class="st325" points="104.5,44.7 83,45.4 83,45.2 104.5,44.5 						"/>
						<polygon id="XMLID_90_" class="st326" points="104.5,44.8 83,45.6 83,45.4 104.5,44.7 						"/>
						<polygon id="XMLID_89_" class="st327" points="104.5,45 83,45.8 83,45.6 104.5,44.8 						"/>
						<polygon id="XMLID_88_" class="st328" points="104.5,45.2 83,46 83,45.8 104.5,45 						"/>
						<polygon id="XMLID_87_" class="st329" points="104.5,45.4 83,46.1 83,46 104.5,45.2 						"/>
						<polygon id="XMLID_86_" class="st330" points="104.5,45.6 83,46.3 83,46.1 104.5,45.4 						"/>
						<polygon id="XMLID_85_" class="st331" points="104.5,45.8 83,46.5 83,46.3 104.5,45.6 						"/>
						<polygon id="XMLID_84_" class="st332" points="104.5,45.9 83,46.7 83,46.5 104.5,45.8 						"/>
						<polygon id="XMLID_83_" class="st333" points="104.5,46.1 83,46.9 83,46.7 104.5,45.9 						"/>
						<polygon id="XMLID_82_" class="st334" points="104.5,46.3 83,47.1 83,46.9 104.5,46.1 						"/>
						<polygon id="XMLID_81_" class="st335" points="104.5,46.5 83,47.2 83,47.1 104.5,46.3 						"/>
						<polygon id="XMLID_80_" class="st336" points="104.5,46.7 83,47.4 83,47.2 104.5,46.5 						"/>
						<polygon id="XMLID_79_" class="st337" points="104.5,46.9 83,47.6 83,47.4 104.5,46.7 						"/>
						<polygon id="XMLID_78_" class="st338" points="104.5,47 83,47.8 83,47.6 104.5,46.9 						"/>
						<polygon id="XMLID_77_" class="st339" points="104.5,47.2 83,48 83,47.8 104.5,47 						"/>
						<polygon id="XMLID_76_" class="st340" points="104.5,47.4 83,48.2 83,48 104.5,47.2 						"/>
						<polygon id="XMLID_75_" class="st341" points="104.5,47.6 83,48.3 83,48.2 104.5,47.4 						"/>
						<polygon id="XMLID_74_" class="st342" points="104.5,47.8 83,48.5 83,48.3 104.5,47.6 						"/>
						<polygon id="XMLID_73_" class="st343" points="104.5,48 83,48.7 83,48.5 104.5,47.8 						"/>
						<polygon id="XMLID_72_" class="st344" points="104.5,48.1 83,48.9 83,48.7 104.5,48 						"/>
						<polygon id="XMLID_71_" class="st345" points="104.5,48.3 83,49.1 83,48.9 104.5,48.1 						"/>
						<polygon id="XMLID_70_" class="st346" points="104.5,48.5 83,49.2 83,49.1 104.5,48.3 						"/>
						<polygon id="XMLID_69_" class="st347" points="104.5,48.7 83,49.4 83,49.2 104.5,48.5 						"/>
						<polygon id="XMLID_68_" class="st348" points="104.5,48.9 83,49.6 83,49.4 104.5,48.7 						"/>
						<polygon id="XMLID_67_" class="st349" points="104.5,49 83,49.8 83,49.6 104.5,48.9 						"/>
						<polygon id="XMLID_66_" class="st350" points="104.5,49.2 83,50 83,49.8 104.5,49 						"/>
						<polygon id="XMLID_65_" class="st351" points="104.5,49.4 83,50.2 83,50 104.5,49.2 						"/>
						<polygon id="XMLID_64_" class="st352" points="104.5,49.6 83,50.3 83,50.2 104.5,49.4 						"/>
						<polygon id="XMLID_63_" class="st353" points="104.5,49.8 83,50.5 83,50.3 104.5,49.6 						"/>
						<polygon id="XMLID_62_" class="st354" points="104.5,50 83,50.7 83,50.5 104.5,49.8 						"/>
						<polygon id="XMLID_61_" class="st355" points="104.5,50.1 83,50.9 83,50.7 104.5,50 						"/>
						<polygon id="XMLID_60_" class="st356" points="104.5,50.3 83,51.1 83,50.9 104.5,50.1 						"/>
						<polygon id="XMLID_59_" class="st357" points="104.5,50.5 83,51.3 83,51.1 104.5,50.3 						"/>
						<polygon id="XMLID_58_" class="st358" points="104.5,50.7 83,51.4 83,51.3 104.5,50.5 						"/>
						<polygon id="XMLID_57_" class="st359" points="104.5,50.9 83,51.6 83,51.4 104.5,50.7 						"/>
						<polygon id="XMLID_56_" class="st360" points="104.5,51.1 83,51.8 83,51.6 104.5,50.9 						"/>
						<polygon id="XMLID_55_" class="st361" points="104.5,51.2 83,52 83,51.8 104.5,51.1 						"/>
						<polygon id="XMLID_54_" class="st362" points="104.5,51.4 83,52.2 83,52 104.5,51.2 						"/>
						<polygon id="XMLID_53_" class="st363" points="104.5,51.6 83,52.4 83,52.2 104.5,51.4 						"/>
						<polygon id="XMLID_52_" class="st364" points="104.5,51.8 83,52.5 83,52.4 104.5,51.6 						"/>
						<polygon id="XMLID_51_" class="st365" points="104.5,52 83,52.7 83,52.5 104.5,51.8 						"/>
						<polygon id="XMLID_50_" class="st366" points="104.5,52.2 83,52.9 83,52.7 104.5,52 						"/>
						<polygon id="XMLID_49_" class="st367" points="104.5,52.3 83,53.1 83,52.9 104.5,52.2 						"/>
						<polygon id="XMLID_48_" class="st368" points="104.5,52.5 83,53.3 83,53.1 104.5,52.3 						"/>
						<polygon id="XMLID_47_" class="st369" points="104.5,52.7 83,53.5 83,53.3 104.5,52.5 						"/>
						<polygon id="XMLID_46_" class="st370" points="104.5,52.9 83,53.6 83,53.5 104.5,52.7 						"/>
						<polygon id="XMLID_45_" class="st371" points="104.5,53.1 83,53.8 83,53.6 104.5,52.9 						"/>
						<polygon id="XMLID_44_" class="st372" points="104.5,53.3 83,54 83,53.8 104.5,53.1 						"/>
						<polygon id="XMLID_43_" class="st373" points="104.5,53.4 83,54.2 83,54 104.5,53.3 						"/>
						<polygon id="XMLID_42_" class="st374" points="104.5,53.6 83,54.4 83,54.2 104.5,53.4 						"/>
						<polygon id="XMLID_41_" class="st375" points="104.5,53.8 83,54.6 83,54.4 104.5,53.6 						"/>
						<polygon id="XMLID_40_" class="st376" points="104.5,54 83,54.7 83,54.6 104.5,53.8 						"/>
						<polygon id="XMLID_39_" class="st377" points="104.5,54.2 83,54.9 83,54.7 104.5,54 						"/>
						<polygon id="XMLID_38_" class="st378" points="104.5,54.4 83,55.1 83,54.9 104.5,54.2 						"/>
						<polygon id="XMLID_37_" class="st379" points="104.5,54.5 83,55.3 83,55.1 104.5,54.4 						"/>
						<polygon id="XMLID_36_" class="st379" points="83,55.3 104.5,54.5 104.5,59.7 83,59.7 						"/>
					</g>
					<path id="XMLID_31_" class="st0" d="M100.9,58.8c-0.7,0-1.4-0.2-2.1-0.4c-0.6-0.2-8.9-2.4-11.3-7.9c-1.1-2.4-0.9-5,0.6-7.8
						c3.1-5.8,5.9-5.8,7.4-5.2c2.9,1.1,4.3,5.6,3.6,8.6c-1,3.8-0.1,4.8,0.9,5.9c0.2,0.3,0.5,0.5,0.7,0.8c2.8,4.1,2,5.1,1.8,5.5
						C102,58.7,101.5,58.8,100.9,58.8z M94.2,38.3c-1.6,0-3.4,1.7-5,4.8c-1.3,2.5-1.5,4.8-0.6,6.8c2.2,5.1,10.5,7.3,10.6,7.3l0,0
						c1.9,0.6,2.2,0.3,2.2,0.2c0.2-0.3-0.1-1.6-1.8-4.1c-0.2-0.2-0.4-0.5-0.6-0.7c-1-1.1-2.3-2.6-1.1-7c0.7-2.7-0.8-6.4-2.8-7.2
						C94.8,38.4,94.5,38.3,94.2,38.3z"/>
				</g>
			</g>
			<g id="XMLID_25_">
				<linearGradient id="XMLID_641_" gradientUnits="userSpaceOnUse" x1="100.889" y1="43.3493" x2="102.8061" y2="98.353">
					<stop  offset="0" style="stop-color:#2BACE2"/>
					<stop  offset="1" style="stop-color:#2E368F"/>
				</linearGradient>
				<path id="XMLID_28_" class="st380" d="M85.3,100.8c0,0-15.1,1.7-21.4-2.7s-7.1-18.2,2-28S86,58.5,93.2,57.9
					c0,0,14.9-3.4,32.1,4.2s20.6,21.3,20.8,31.3c0.2,10-12.2,15.7-29.6,11S97.9,99.4,85.3,100.8z"/>
				<linearGradient id="XMLID_642_" gradientUnits="userSpaceOnUse" x1="106.7079" y1="32.066" x2="107.4579" y2="53.5867">
					<stop  offset="0" style="stop-color:#2BACE2"/>
					<stop  offset="1" style="stop-color:#2E368F"/>
				</linearGradient>
				<path id="XMLID_27_" class="st381" d="M100.6,54.1c0,0,2.9-0.4,3.3-6.9s-2.8-11.9,5.4-8.7s7.5,11.9,1.5,14.6
					c-6.1,2.6-9,4.1-9,4.1S97.3,55.1,100.6,54.1z"/>
				<linearGradient id="XMLID_643_" gradientUnits="userSpaceOnUse" x1="94.0506" y1="32.0301" x2="94.8467" y2="54.8741">
					<stop  offset="0" style="stop-color:#2BACE2"/>
					<stop  offset="1" style="stop-color:#2E368F"/>
				</linearGradient>
				<path id="XMLID_26_" class="st382" d="M99,57.8c0,0-16.1-4.1-10.4-14.9c5.7-10.8,11.1-2,9.8,3c-1.3,5,0.6,5.7,1.6,7.2
					C101.1,54.5,104.5,59.7,99,57.8z"/>
			</g>
			<linearGradient id="XMLID_644_" gradientUnits="userSpaceOnUse" x1="99.1599" y1="54.0829" x2="99.3802" y2="60.4031">
				<stop  offset="0" style="stop-color:#2BACE2"/>
				<stop  offset="1" style="stop-color:#2E368F"/>
			</linearGradient>
			<path id="XMLID_24_" class="st383" d="M105.3,58.9c0-0.1,0.1-0.2,0.1-0.4c0-1.6-2.7-2.9-6.1-2.9c-3.4,0-6.1,1.3-6.1,2.9
				c0,0,0,0.1,0,0.1C97.3,58.1,101.3,58.2,105.3,58.9z"/>
			<path id="XMLID_23_" class="st384" d="M103.5,58.9c0,0,19.1,4,21.4,11.9C127.2,78.7,120.7,63.9,103.5,58.9z"/>
			<path id="XMLID_22_" class="st384" d="M110.6,59.5c0,0,9.3,1,11,4.8C123.2,68.1,119.1,61.1,110.6,59.5z"/>
			<path id="XMLID_21_" class="st384" d="M99.2,58.9c0,0,4.1,9.6,3.2,14.2S99.9,61.3,99.2,58.9z"/>
			<path id="XMLID_20_" class="st384" d="M91.5,58.9c0,0-15.1,0.8-18.1,9.9S75.9,61.6,91.5,58.9z"/>
			<path id="XMLID_19_" class="st384" d="M95.9,58.9c0,0-9.4,0.5-11.3,6.2C82.7,70.8,86.2,60.6,95.9,58.9z"/>
		</g>
	</g>
</g>
</svg>
