<svg id="Layer_1" data-name="Layer 1" xmlns="http://www.w3.org/2000/svg" xmlns:xlink="http://www.w3.org/1999/xlink" viewBox="0 0 126.73 132.88"><defs><style>.cls-1,.cls-5{fill:none;}.cls-2{fill:#fff;}.cls-3{fill:#00aeef;}.cls-4{opacity:0.08;}.cls-5{stroke:#fff;stroke-miterlimit:10;stroke-width:4px;}.cls-6{clip-path:url(#clip-path);}.cls-7{fill:#e5b985;}.cls-8{fill:#de3a14;}.cls-9{fill:#333623;}.cls-10{fill:#34371f;}.cls-11{fill:#343620;}.cls-12{fill:#4f140e;}.cls-13{fill:#99e2fc;}.cls-14{fill:#90c6e7;}.cls-15{fill:#2289c2;}.cls-16{fill:#1d100a;}.cls-17{fill:#3e2f28;}.cls-18{fill:#88c6e7;}.cls-19{fill:#0c0a0c;}.cls-20{fill:#825a32;}.cls-21{fill:#2d2226;}.cls-22{fill:#0d0b0e;}.cls-23{fill:#0e0e13;}.cls-24{fill:#2e2228;}.cls-25{fill:#160e0d;}.cls-26{fill:#100a0a;}.cls-27{fill:#14090a;}.cls-28{fill:#eff2f8;}.cls-29{fill:#2c0b0d;}.cls-30{fill:#530e0e;}.cls-31{fill:#dc8194;}.cls-32{fill:#f6e6ee;}.cls-33{fill:#2e2f35;}.cls-34{fill:#ecf0f8;}.cls-35{fill:#302f35;}.cls-36{fill:#0d0b0b;}.cls-37{fill:#595e66;}.cls-38{fill:#2f2f33;}.cls-39{fill:#ebf2f9;}.cls-40{fill:#dec8bf;}.cls-41{fill:#e7eaf0;}.cls-42{fill:#585b64;}.cls-43{fill:#0a0a0d;}.cls-44{fill:#e1e6ee;}.cls-45{clip-path:url(#clip-path-2);}.cls-46{fill:#0899df;}.cls-47{fill:#0898df;}.cls-48{fill:#0997de;}.cls-49{fill:#0996dd;}.cls-50{fill:#0995dc;}.cls-51{fill:#0a94dc;}.cls-52{fill:#0a93db;}.cls-53{fill:#0a92da;}.cls-54{fill:#0b91d9;}.cls-55{fill:#0b90d9;}.cls-56{fill:#0c8fd8;}.cls-57{fill:#0c8ed7;}.cls-58{fill:#0c8dd6;}.cls-59{fill:#0d8cd6;}.cls-60{fill:#0d8bd5;}.cls-61{fill:#0d8ad4;}.cls-62{fill:#0e89d3;}.cls-63{fill:#0e88d3;}.cls-64{fill:#0e87d2;}.cls-65{fill:#0f86d1;}.cls-66{fill:#0f85d0;}.cls-67{fill:#1084d0;}.cls-68{fill:#1083cf;}.cls-69{fill:#1082ce;}.cls-70{fill:#1181cd;}.cls-71{fill:#1180cd;}.cls-72{fill:#117fcc;}.cls-73{fill:#127ecb;}.cls-74{fill:#127dca;}.cls-75{fill:#137cca;}.cls-76{fill:#137bc9;}.cls-77{fill:#137ac8;}.cls-78{fill:#1479c7;}.cls-79{fill:#1478c7;}.cls-80{fill:#1477c6;}.cls-81{fill:#1576c5;}.cls-82{fill:#1575c4;}.cls-83{fill:#1674c4;}.cls-84{fill:#1673c3;}.cls-85{fill:#1672c2;}.cls-86{fill:#1771c1;}.cls-87{fill:#1770c1;}.cls-88{fill:#176ec0;}.cls-89{fill:#186dbf;}.cls-90{fill:#186cbe;}.cls-91{fill:#186bbe;}.cls-92{fill:#196abd;}.cls-93{fill:#1969bc;}.cls-94{fill:#1a68bb;}.cls-95{fill:#1a67bb;}.cls-96{fill:#1a66ba;}.cls-97{fill:#1b65b9;}.cls-98{fill:#1b64b8;}.cls-99{fill:#1b63b8;}.cls-100{fill:#1c62b7;}.cls-101{fill:#1c61b6;}.cls-102{fill:#1d60b5;}.cls-103{fill:#1d5fb5;}.cls-104{fill:#1d5eb4;}.cls-105{fill:#1e5db3;}.cls-106{fill:#1e5cb2;}.cls-107{fill:#1e5bb2;}.cls-108{fill:#1f5ab1;}.cls-109{fill:#1f59b0;}.cls-110{fill:#2058af;}.cls-111{fill:#2057af;}.cls-112{fill:#2056ae;}.cls-113{fill:#2155ad;}.cls-114{fill:#2154ac;}.cls-115{fill:#2153ac;}.cls-116{fill:#2252ab;}.cls-117{fill:#2251aa;}.cls-118{fill:#2350a9;}.cls-119{fill:#234fa9;}.cls-120{fill:#234ea8;}.cls-121{fill:#244da7;}.cls-122{fill:#244ca6;}.cls-123{fill:#244ba6;}.cls-124{fill:#254aa5;}.cls-125{fill:#2549a4;}.cls-126{fill:#2548a3;}.cls-127{fill:#2647a3;}.cls-128{fill:#2646a2;}.cls-129{fill:#2745a1;}.cls-130{fill:#2744a0;}.cls-131{fill:#2743a0;}.cls-132{fill:#28429f;}.cls-133{fill:#28419e;}.cls-134{fill:#28409d;}.cls-135{fill:#293f9d;}.cls-136{fill:#293e9c;}.cls-137{fill:#2a3d9b;}.cls-138{fill:#2a3c9a;}.cls-139{fill:#2a3b9a;}.cls-140{fill:#2b3a99;}.cls-141{fill:#2b3998;}.cls-142{fill:#2b3897;}.cls-143{fill:#2c3797;}.cls-144{fill:#2c3696;}.cls-145{fill:#2d3595;}.cls-146{fill:#2d3494;}.cls-147{fill:#2d3394;}.cls-148{fill:#2e3293;}.cls-149{fill:#2e3192;}.cls-150{clip-path:url(#clip-path-3);}.cls-151{fill:#069ee3;}.cls-152{fill:#069de2;}.cls-153{fill:#079ce2;}.cls-154{fill:#079be1;}.cls-155{fill:#079ae0;}.cls-156{clip-path:url(#clip-path-4);}.cls-157{fill:#00adee;}.cls-158{fill:#01acee;}.cls-159{fill:#01abed;}.cls-160{fill:#01aaec;}.cls-161{fill:#02a9eb;}.cls-162{fill:#02a8eb;}.cls-163{fill:#03a7ea;}.cls-164{fill:#03a6e9;}.cls-165{fill:#03a5e8;}.cls-166{fill:#04a4e8;}.cls-167{fill:#04a3e7;}.cls-168{fill:#04a2e6;}.cls-169{fill:#05a1e5;}.cls-170{fill:#05a0e5;}.cls-171{fill:#069fe4;}.cls-172{fill:url(#linear-gradient);}.cls-173{fill:url(#linear-gradient-2);}.cls-174{fill:url(#linear-gradient-3);}.cls-175{fill:url(#linear-gradient-4);}.cls-176{fill:#2b3990;}</style><clipPath id="clip-path" transform="translate(-310.52 -491.62)"><path class="cls-1" d="M428.58,525.93a48.35,48.35,0,1,0-94.48,14.51,40.34,40.34,0,0,0,75.37,24A48.25,48.25,0,0,0,428.58,525.93Z"/></clipPath><clipPath id="clip-path-2" transform="translate(-310.52 -491.62)"><path class="cls-1" d="M363.66,545.11S351.87,546.44,347,543s-5.55-14.18,1.53-21.82,15.72-9,21.31-9.47a43.72,43.72,0,0,1,25,3.27c13.39,5.87,16,16.61,16.19,24.36s-9.51,12.24-23,8.56S373.52,544,363.66,545.11Z"/></clipPath><clipPath id="clip-path-3" transform="translate(-310.52 -491.62)"><path class="cls-1" d="M375.6,508.76s2.26-.31,2.57-5.41-2.15-9.3,4.18-6.75,5.87,9.29,1.13,11.35-7.05,3.18-7.05,3.18S373.05,509.5,375.6,508.76Z"/></clipPath><clipPath id="clip-path-4" transform="translate(-310.52 -491.62)"><path class="cls-1" d="M374.37,511.66s-12.5-3.21-8.07-11.63,8.64-1.55,7.64,2.33.47,4.44,1.27,5.59S378.63,513.11,374.37,511.66Z"/></clipPath><linearGradient id="linear-gradient" x1="375.82" y1="500.39" x2="377.32" y2="543.22" gradientUnits="userSpaceOnUse"><stop offset="0" stop-color="#00aeef"/><stop offset="1" stop-color="#2e3192"/></linearGradient><linearGradient id="linear-gradient-2" x1="380.35" y1="491.6" x2="380.94" y2="508.36" xlink:href="#linear-gradient"/><linearGradient id="linear-gradient-3" x1="370.5" y1="491.57" x2="371.12" y2="509.36" xlink:href="#linear-gradient"/><linearGradient id="linear-gradient-4" x1="374.48" y1="508.74" x2="374.65" y2="513.67" xlink:href="#linear-gradient"/></defs><title>Dhobiaya logo2svg</title><path class="cls-2" d="M343.54,528.37c-4.52-5.27-11.68,5.63-10.47,18.75,1.93,20.91,19,32.11,19,32.11S336.86,562.92,337.87,547C338.66,534.75,346,531.24,343.54,528.37Zm-2.14,1.27c-.36.84-1.08,1.11-1.71,1.68a12.36,12.36,0,0,0-2,2.39A39.91,39.91,0,0,0,335.1,539a0,0,0,1,1,0,0,23.34,23.34,0,0,1,2.19-6.67c.75-1.39,2-3.68,3.74-3.41A.57.57,0,0,1,341.4,529.64Z" transform="translate(-310.52 -491.62)"/><path class="cls-2" d="M410,568c5.45-15.61,2.32-32.33,2.32-32.33s.28,16.22-2.67,25c-3.94,11.66-10.88,13.44-9.77,16.76S406,579.32,410,568Zm-8.06,8.44a12.91,12.91,0,0,0,3.53-2.2c.11-.11.28.12.18.26-1,1.34-1.87,3-3.23,3.63C401.61,578.53,401.13,576.85,401.91,576.48Z" transform="translate(-310.52 -491.62)"/><circle class="cls-2" cx="410.65" cy="534.39" r="6.95" transform="translate(-486.02 -289.86) rotate(-22.89)"/><path class="cls-2" d="M409.14,523.73s-.05,0-.05,0c0,2,.08,4-.11,6-.14,1.47-.63,2.49-2.21,2.91-.9.24-1.91.25-2.83.41-.07,0-.05.11,0,.11,1.9.06,4.33.4,5.24-1.68C410.2,529.2,409.29,526.11,409.14,523.73Z" transform="translate(-310.52 -491.62)"/><path class="cls-2" d="M310.52,617.79V605a1.71,1.71,0,0,1,1.77-1.77h3.8a7.69,7.69,0,0,1,5.93,2.28,8.38,8.38,0,0,1,2.13,6,8,8,0,0,1-2.13,5.88,7.64,7.64,0,0,1-5.7,2.17h-4a2.13,2.13,0,0,1-1.26-.41A1.54,1.54,0,0,1,310.52,617.79ZM314,606.37v10h2.31a3.87,3.87,0,0,0,3.22-1.38,5.71,5.71,0,0,0,1.08-3.62,5.47,5.47,0,0,0-1.13-3.61,4.12,4.12,0,0,0-3.4-1.37Z" transform="translate(-310.52 -491.62)"/><path class="cls-2" d="M325.7,617.81V603.72a1.87,1.87,0,0,1,.46-1.33,1.52,1.52,0,0,1,1.2-.51,1.49,1.49,0,0,1,1.18.51,1.87,1.87,0,0,1,.46,1.33v4.48h0a3.63,3.63,0,0,1,3-1.14,4.61,4.61,0,0,1,3.29,1.18,4.26,4.26,0,0,1,1.26,3.26v6.31a1.87,1.87,0,0,1-.46,1.33,1.68,1.68,0,0,1-2.39,0,2,2,0,0,1-.44-1.33v-5.74a2.24,2.24,0,0,0-.61-1.68,2.14,2.14,0,0,0-1.56-.58,1.94,1.94,0,0,0-1.53.64,2.32,2.32,0,0,0-.56,1.62v5.74a1.87,1.87,0,0,1-.46,1.33,1.53,1.53,0,0,1-1.2.5,1.49,1.49,0,0,1-1.19-.5A1.91,1.91,0,0,1,325.7,617.81Z" transform="translate(-310.52 -491.62)"/><path class="cls-2" d="M343.84,607.06a5.39,5.39,0,0,1,4.22,1.9,6.6,6.6,0,0,1,1.68,4.52,6.44,6.44,0,0,1-1.65,4.46,5.82,5.82,0,0,1-8.51,0,6.48,6.48,0,0,1-1.64-4.46,6.6,6.6,0,0,1,1.68-4.52A5.39,5.39,0,0,1,343.84,607.06Zm1.93,4a2.34,2.34,0,0,0-3.86,0,4.09,4.09,0,0,0-.67,2.34,4.05,4.05,0,0,0,.67,2.32,2.35,2.35,0,0,0,3.86,0,4.05,4.05,0,0,0,.67-2.32A4.09,4.09,0,0,0,345.77,611.1Z" transform="translate(-310.52 -491.62)"/><path class="cls-2" d="M351.14,617.81V603.72a1.87,1.87,0,0,1,.46-1.33,1.64,1.64,0,0,1,2.38,0,1.91,1.91,0,0,1,.45,1.33v4.48a4.66,4.66,0,0,1,3.13-1.14,4.51,4.51,0,0,1,3.9,2,7.45,7.45,0,0,1,1.42,4.48,6.8,6.8,0,0,1-1.53,4.41,4.79,4.79,0,0,1-3.9,1.88,4.11,4.11,0,0,1-1.73-.39,2.86,2.86,0,0,1-1.29-1.13,1.56,1.56,0,0,1-1.65,1.37,1.48,1.48,0,0,1-1.19-.5A1.91,1.91,0,0,1,351.14,617.81Zm4-6.77a3.92,3.92,0,0,0-.68,2.31,4.35,4.35,0,0,0,.66,2.38,2.1,2.1,0,0,0,1.88,1,2.19,2.19,0,0,0,1.92-1,4,4,0,0,0,.7-2.31,4,4,0,0,0-.7-2.33,2.29,2.29,0,0,0-3.78-.07Z" transform="translate(-310.52 -491.62)"/><path class="cls-2" d="M365.76,602.25a1.8,1.8,0,0,1,1.29.55,1.77,1.77,0,0,1,.55,1.3,1.87,1.87,0,0,1-.53,1.31,1.73,1.73,0,0,1-1.29.55,1.6,1.6,0,0,1-1.23-.58,1.86,1.86,0,0,1,0-2.57A1.59,1.59,0,0,1,365.76,602.25Zm-1.65,15.56V609a1.9,1.9,0,0,1,.46-1.33,1.55,1.55,0,0,1,1.2-.51,1.49,1.49,0,0,1,1.18.51,1.86,1.86,0,0,1,.46,1.33v8.78a1.87,1.87,0,0,1-.46,1.33,1.68,1.68,0,0,1-2.39,0A1.91,1.91,0,0,1,364.11,617.81Z" transform="translate(-310.52 -491.62)"/><path class="cls-2" d="M374.16,603.47a2.28,2.28,0,0,1,1.51-.53,2.35,2.35,0,0,1,1.5.51,3,3,0,0,1,.94,1.39l4.49,12.45a2.8,2.8,0,0,1,.18,1,1.25,1.25,0,0,1-.47.94,1.74,1.74,0,0,1-2.78-.76l-.69-2.15h-6.36l-.69,2.13a1.57,1.57,0,0,1-1.64,1.2,1.77,1.77,0,0,1-1.2-.45,1.34,1.34,0,0,1-.5-1,2.36,2.36,0,0,1,.16-.92l4.6-12.45A3.11,3.11,0,0,1,374.16,603.47Zm1.48,3-2.17,6.64h4.35l-2.14-6.64Z" transform="translate(-310.52 -491.62)"/><path class="cls-2" d="M382.36,608.52a1.17,1.17,0,0,1,.51-.91,1.6,1.6,0,0,1,1.05-.42,1.63,1.63,0,0,1,1.65,1.18l2.26,6.2,2.42-6.2a1.67,1.67,0,0,1,1.66-1.18,1.64,1.64,0,0,1,1,.42,1.21,1.21,0,0,1,.5,1,2.26,2.26,0,0,1-.15.89l-5.53,13.74c-.35.87-.86,1.3-1.55,1.29a1.78,1.78,0,0,1-1.26-.42,1.23,1.23,0,0,1-.46-.92,2.8,2.8,0,0,1,.21-1l1.44-3.56-3.64-9.09A2.85,2.85,0,0,1,382.36,608.52Z" transform="translate(-310.52 -491.62)"/><path class="cls-2" d="M405.61,609.35v8.15c0,1.06-.23,1.72-.68,2a2,2,0,0,1-1,.19c-.77,0-1.27-.46-1.5-1.39a4,4,0,0,1-3.14,1.54,4.94,4.94,0,0,1-3.89-1.79,6.62,6.62,0,0,1-1.55-4.52,6.78,6.78,0,0,1,1.58-4.59,4.8,4.8,0,0,1,3.75-1.83,3.73,3.73,0,0,1,3.25,1.51,1.49,1.49,0,0,1,.52-1,1.56,1.56,0,0,1,1-.39c.77,0,1.24.26,1.4.79A4.63,4.63,0,0,1,405.61,609.35Zm-7.77,1.75a4.17,4.17,0,0,0-.67,2.34,4.13,4.13,0,0,0,.67,2.32,2.16,2.16,0,0,0,1.91,1,2.12,2.12,0,0,0,1.9-1,4.12,4.12,0,0,0,.66-2.32,4.23,4.23,0,0,0-.64-2.34,2.31,2.31,0,0,0-3.83,0Z" transform="translate(-310.52 -491.62)"/><path class="cls-2" d="M407.83,618.13a1.53,1.53,0,0,1,.53-1.16,1.87,1.87,0,0,1,2.52,0,1.49,1.49,0,0,1,.53,1.16,1.47,1.47,0,0,1-.53,1.17,1.89,1.89,0,0,1-2.52,0A1.6,1.6,0,0,1,407.83,618.13Z" transform="translate(-310.52 -491.62)"/><path class="cls-2" d="M413.61,622.67V609a1.86,1.86,0,0,1,.46-1.33,1.53,1.53,0,0,1,1.19-.51,1.58,1.58,0,0,1,1.65,1.38,2.7,2.7,0,0,1,1.31-1.13,4.77,4.77,0,0,1,5.72,1.58,7.52,7.52,0,0,1,1.42,4.48,6.91,6.91,0,0,1-1.53,4.41,4.82,4.82,0,0,1-3.9,1.88,4.44,4.44,0,0,1-3-1.15v4a1.86,1.86,0,0,1-.46,1.33,1.7,1.7,0,0,1-2.39,0A1.9,1.9,0,0,1,413.61,622.67Zm4-11.63a3.91,3.91,0,0,0-.67,2.31,4.35,4.35,0,0,0,.66,2.38,2.09,2.09,0,0,0,1.88,1,2.19,2.19,0,0,0,1.92-1,4,4,0,0,0,.69-2.31,4.07,4.07,0,0,0-.69-2.33,2.3,2.3,0,0,0-3.79-.07Z" transform="translate(-310.52 -491.62)"/><path class="cls-2" d="M426.74,617.81V603.72a1.92,1.92,0,0,1,.46-1.33,1.55,1.55,0,0,1,1.2-.51,1.48,1.48,0,0,1,1.18.51,1.87,1.87,0,0,1,.46,1.33v7.69l3.61-3.5a2.09,2.09,0,0,1,1.41-.72,1.39,1.39,0,0,1,1.08.46,1.64,1.64,0,0,1,.41,1.11,1.68,1.68,0,0,1-.65,1.23L433,612.6l3.87,4.53a1.68,1.68,0,0,1,.41,1.11,1.57,1.57,0,0,1-1.61,1.55q-.69,0-1.53-1l-4-5h0v4a1.87,1.87,0,0,1-.46,1.33,1.68,1.68,0,0,1-2.39,0A1.91,1.91,0,0,1,426.74,617.81Z" transform="translate(-310.52 -491.62)"/><circle class="cls-3" cx="64.02" cy="58.07" r="38.35"/><circle class="cls-3" cx="64.02" cy="58.07" r="35.46"/><g class="cls-4"><path d="M407,555.78c.12,5.33-3.66,9.83-6.23,14.22-1.35-2-2.79-4.06-4.17-6-4.66-6.43-11.18-19.87-11.18-19.87l3.2,1.27a56.18,56.18,0,0,0,4.32-4.33c4.09-4.55,3.43-5.72,3.43-5.72s-10.88-8.85-14.58-9.71-10.18,1.69-10.18,1.69a17.26,17.26,0,0,1-5.32.07l-1.44-.21a7.76,7.76,0,0,1,.54,6,10.12,10.12,0,0,1-4.23,5.48h0l-.23.15-.24.12h0a10.15,10.15,0,0,1-6.88.81,7.73,7.73,0,0,1-4.92-3.56l-.56,1.34a17.59,17.59,0,0,1-2.78,4.53,29.64,29.64,0,0,0-5.6,5.76c.31,2.65.77,5.28,1,7.93.36,1,.74,1.95,1.15,2.91,1.18,2.3,2.53,4.52,3.9,6.74a26.05,26.05,0,0,0,6-2,.06.06,0,0,1,.06.1,17.63,17.63,0,0,1-5.81,2.25l.93,1.51c3.07-.65,5.15-1.32,5.15-1.32l.55-3.4s5.07,7.74,8.75,14.59l-.48-.33c-1.18-.78-2.45-1.43-3.64-2.19-.05,0-.09,0-.05.06a36.58,36.58,0,0,0,3.11,2.86,9.81,9.81,0,0,0,2.83,1.68.23.23,0,0,0,.18,0A30.29,30.29,0,0,0,381,581.35a48.55,48.55,0,0,1-10.23.46c-2.37-.13-5.43-.32-7.65-1.61.34.71.66,1.4.94,2,.75.11,1.49.27,2.23.45a53.16,53.16,0,0,0,7,.53c1.1,0,2.19,0,3.29,0,.61-.17,1.23-.32,1.85-.47a.31.31,0,0,0,.11.28,1.48,1.48,0,0,0,1.86,0,.32.32,0,0,0,.14-.25.58.58,0,0,0,.19.38h0a.51.51,0,0,0,.43.09l.48-.1H383l.6-.17c1.34-.4,2.66-.86,4-1.35l-.33,0a.49.49,0,0,0,.18-.17,10.38,10.38,0,0,0,3.21-1.67c.4-.1.8-.19,1.19-.3a.25.25,0,0,1,.24.07,47.17,47.17,0,0,0,10.17-7.29l-.4-.6c-2.19,2.71-6.08,4.77-8.52,6.36-.09.06-.18-.06-.1-.12a49.62,49.62,0,0,0,7.55-6.43,3.43,3.43,0,0,0,.77-.84,5.85,5.85,0,0,0,.34-.59,15.86,15.86,0,0,0,3.14-5.52c1-2.69,2.39-5.8,2-8.74A0,0,0,0,0,407,555.78Zm-15.8-15.22a20.38,20.38,0,0,0,3.39-5.32c0-.06.14,0,.11,0A14.37,14.37,0,0,1,392,540c-1.16,1.45-2.34,3.32-4,4.22,0,0,0,0,0,0A27.35,27.35,0,0,0,391.17,540.56Zm-38.38,20.35c-1.14-3-3.05-5.23-5-7.75-1.63-2.16-3.19-4.41-5.83-5.29,0,0,0,0,0,0a3.9,3.9,0,0,0-1.27-.13c-.06,0-.06-.08,0-.09a2.94,2.94,0,0,1,1.66.07c2.09-.54,4.63,2.36,5.75,3.67a20.54,20.54,0,0,1,4.92,9.49C353.07,561,352.84,561.05,352.79,560.91Zm7.5-19.26c-3.41,1.3-9.54,1.16-11.71-2.3,0,0,0,0,0,0,2.58,3.13,7.92,3.1,11.38,1.68,4.45-1.82,8-6.33,7.34-11.29a.09.09,0,1,1,.17,0C368.73,534.74,364.85,539.91,360.29,541.65Zm21.16,34,0,0a1.08,1.08,0,0,1-.74.83.22.22,0,0,1-.11,0,.79.79,0,0,1-.27.1.86.86,0,0,1-.65-.22,1,1,0,0,1-.29-.26,1.06,1.06,0,0,1-.16-.87v0a.93.93,0,0,1,.29-.65l.06-.08a.73.73,0,0,1,.59-.31.85.85,0,0,1,.79.09,1.27,1.27,0,0,1,.36.37.77.77,0,0,1,.25.47A.84.84,0,0,1,381.45,575.67Zm1.46,5.34c1-.2,2-.44,2.94-.72,0,0,0,0,0,0C384.88,580.58,383.9,580.81,382.91,581Zm2.74-4.64a.18.18,0,0,1-.19.25,2.11,2.11,0,0,1-.26,0h-.06a.32.32,0,0,1-.18-.33.53.53,0,0,1,.08-.17.33.33,0,0,1,.56.08l0,0a.2.2,0,0,1,.06.23Zm-2-13.64c-.69,2-3.08,2.27-4.91,2.15,0,0-.05-.07,0-.08,2.23-.63,4.54-.67,4.73-3.53.11-1.54-.29-3.07-.18-4.61,0-.06.11-.06.11,0C383.43,558.64,384.32,560.78,383.64,562.73Zm.32-20.41a32.16,32.16,0,0,1-5.74-8.27c-.87-1.71-3-5.52-1.19-7.28,0,0,.1,0,.07.05-1.63,2.47,1,6.43,2.25,8.55a51.77,51.77,0,0,0,4.74,6.81C384.17,542.28,384,542.4,384,542.32Z" transform="translate(-310.52 -491.62)"/></g><circle class="cls-2" cx="70.28" cy="76.69" r="7.19"/><circle class="cls-5" cx="64.02" cy="58.07" r="35.46"/><g class="cls-6"><path class="cls-7" d="M388.67,587.18h-9.3a5.83,5.83,0,0,1-.49-2.22,23.18,23.18,0,0,0-.37-2.48,3.86,3.86,0,0,1,.71-3.34,5.61,5.61,0,0,1,4.49-2.34,3.82,3.82,0,0,1,3.22,1.11.76.76,0,0,0,.38.3.45.45,0,0,1,.13.11.79.79,0,0,1,.23.65,9.36,9.36,0,0,0,.44,1.63,12.31,12.31,0,0,1,.35,1.77,36.82,36.82,0,0,1,.38,4.2C388.83,586.79,388.86,587,388.67,587.18Z" transform="translate(-310.52 -491.62)"/><path class="cls-8" d="M362,587.18l.11-.33a1.74,1.74,0,0,1,1.25-.33c1.64,0,3.28.07,4.92,0,2.15,0,4.31,0,6.46,0,1.4,0,2.8.05,4.2,0,.33.19.3.44.11.71Z" transform="translate(-310.52 -491.62)"/><path class="cls-7" d="M387.78,579.21a22.68,22.68,0,0,1,1.17,6c.06.64,0,1.29.05,1.93h-.33a34.08,34.08,0,0,0-.59-6,4.42,4.42,0,0,0-.55-1.75.44.44,0,0,1,0-.52C387.85,578.83,387.71,579.09,387.78,579.21Z" transform="translate(-310.52 -491.62)"/><path class="cls-7" d="M379,587.18a1.36,1.36,0,0,0-.09-.69.61.61,0,0,1-.28-.51c-.08-1-.27-1.9-.28-2.85a.78.78,0,0,1,.21-.71.25.25,0,0,1,.21.27,33.3,33.3,0,0,0,.56,4.33.86.86,0,0,1,0,.16Z" transform="translate(-310.52 -491.62)"/><path class="cls-8" d="M387.06,577.84a2.2,2.2,0,0,0-.37-.67c-.43-.53-.89-1-1.31-1.6a1.65,1.65,0,0,0-.33-.37,11.34,11.34,0,0,0-5.53-2.71c-.25,0-.51-.13-.74.06a3.17,3.17,0,0,1-2.34,2.14,12.49,12.49,0,0,1-3,.63,1.21,1.21,0,0,0-1.06.76c-.38.78-.76,1.55-1.07,2.37a52.72,52.72,0,0,0-2.29,7.26c.05-.45.22-.88.25-1.33.21-2.61.62-5.2,1-7.78.2-1.31.22-1.3-1-2a1.12,1.12,0,0,1-.6-1.52c.07-.23.23-.43.17-.69a.41.41,0,0,0-.55-.15c-.12,0,.05.17-.05.18a4.09,4.09,0,0,0-2.67,1.81,11.22,11.22,0,0,0-1.6,3.14c-.47,1.29-.77,2.62-1.17,3.93l-.18,0a1.1,1.1,0,0,1,.06.57c.11.07.14.18.09.41a22,22,0,0,0-.71,4.49c.3.14.55-.13.85-.12,2.24,0,4.49,0,6.73,0h8.79c.2,0,.42,0,.48-.25a25.32,25.32,0,0,1-.35-4.07,4.6,4.6,0,0,1,3.91-5.26c1.61-.36,3.15-.36,4.4,1C387.11,578.1,387.1,578,387.06,577.84Z" transform="translate(-310.52 -491.62)"/><path class="cls-7" d="M363,581.62a8.85,8.85,0,0,1-2.95-1.29l-.48-.25c-1.65-1.23-3.26-2.53-4.78-3.92-.16-.15-.3-.32-.46-.47l0-.08c.1-.14.2-.26.39-.17a39.31,39.31,0,0,0,4.86,4.06,13.57,13.57,0,0,0,3,1.7C362.79,581.27,363.09,581.28,363,581.62Z" transform="translate(-310.52 -491.62)"/><path class="cls-8" d="M387.15,577.88c0,.14.07.29.11.44a.33.33,0,0,1-.35-.21c0-.63-.49-1-.8-1.41s-.58-.7-.87-1.05a.3.3,0,0,1,.4,0,5.11,5.11,0,0,1,1.49,1.87A.4.4,0,0,1,387.15,577.88Z" transform="translate(-310.52 -491.62)"/><path class="cls-7" d="M366,572.35a11.24,11.24,0,0,1,2.32,0c0,.07.25.15,0,.22-2.18.65-3.13,2.41-3.9,4.32a35.26,35.26,0,0,0-1.42,4.73c-.08-.33-.4-.23-.59-.31a23.65,23.65,0,0,1-4.83-3.13c-.93-.7-1.75-1.51-2.6-2.29-.14-.13-.29-.24-.31-.44a.33.33,0,0,1,0-.32,14.54,14.54,0,0,1,1.54-2.34.41.41,0,0,1,.58-.12c.34.23.55.07.75-.18a4.61,4.61,0,0,1,.54-.63c.28-.25.5-.5.13-.86a.32.32,0,0,1,0-.42,8.09,8.09,0,0,1,2-2,1.46,1.46,0,0,1,.89.4c1.53,1.07,3.13,2.06,4.58,3.26C365.76,572.3,365.84,572.4,366,572.35Z" transform="translate(-310.52 -491.62)"/><path class="cls-7" d="M368.86,572.46c.37-.19.86,0,1.18-.35a1,1,0,0,1,.5-.12,14.65,14.65,0,0,0,6-.76,1.17,1.17,0,0,1,.64-.1c.28.09.35.35.44.59s0,.34.23.4.76.07,1,.45c.17.7-.28,1.12-.73,1.48a7.4,7.4,0,0,1-4,1.36,1.92,1.92,0,0,0-1.83,1.23,68.78,68.78,0,0,0-2.74,7.64c-.2.63-.38,1.26-.63,1.87.1-1.16.18-2.33.33-3.49.25-2,.57-4,.84-5.95.06-.45.39-.94.18-1.34s-.76-.38-1.14-.59C368.25,574.29,368.16,573.44,368.86,572.46Z" transform="translate(-310.52 -491.62)"/><path class="cls-9" d="M373.4,578.11c0,.31-.17.51-.47.51a.45.45,0,0,1-.48-.5.44.44,0,0,1,.47-.49C373.26,577.62,373.37,577.83,373.4,578.11Z" transform="translate(-310.52 -491.62)"/><path class="cls-10" d="M371.74,580.87c.37,0,.53.18.54.47a.45.45,0,0,1-.44.53.44.44,0,0,1-.49-.48C371.35,581.1,371.47,580.9,371.74,580.87Z" transform="translate(-310.52 -491.62)"/><path class="cls-11" d="M371.09,584.77c0,.28-.17.5-.48.49a.45.45,0,0,1-.46-.5.42.42,0,0,1,.47-.48C370.94,584.28,371.06,584.48,371.09,584.77Z" transform="translate(-310.52 -491.62)"/><path class="cls-12" d="M360.21,568.68a23.24,23.24,0,0,0-1.77,1.81c-.2.23-.25.41,0,.58s.22.38,0,.61c-.36.37-.69.76-1,1.15s-.38.34-.61.06-.39-.19-.57.05a19.84,19.84,0,0,0-1.61,2.51c-.1,0-.11.23-.28.19l.08-.28a1,1,0,0,1,.19-.68,13.64,13.64,0,0,1,1-1.54c.22-.3.45-.58.3-1a.54.54,0,0,1,.14-.46,13.75,13.75,0,0,1,1-1.19.57.57,0,0,1,.52-.25c.45.11.66-.18.93-.44.5-.47.89-1.09,1.61-1.28C360.17,568.54,360.24,568.58,360.21,568.68Z" transform="translate(-310.52 -491.62)"/><path class="cls-7" d="M360.1,568.57a13.74,13.74,0,0,0-1.84,1.74c-.16.18-.28.33-.52.1s-.34,0-.47.1c-.39.44-.77.89-1.15,1.34-.07.08-.18.2-.09.29.42.39.05.65-.16.92-.54.72-.94,1.53-1.41,2.3a47.22,47.22,0,0,1-5-5.33,7.16,7.16,0,0,0-1.25-1.45h-.12c-.53-.14-.56-.68-.84-1a3.78,3.78,0,0,1-.17-2.63,18.4,18.4,0,0,0,.37-3.06,22.91,22.91,0,0,1,.33-2.35,32.9,32.9,0,0,1,.76-3.68,36.67,36.67,0,0,1,3.11-9.12,2.65,2.65,0,0,0,.05-1.25c.06-.38-.15-.82.26-1.12a11.47,11.47,0,0,1,1.76-.06,17.45,17.45,0,0,0,3.38-.27,11.76,11.76,0,0,1,1.57-.16c.46,0,.52.18.36.61s-.63.7-1,1c-.54.46-1,1-1.51,1.46a.84.84,0,0,0-.19.67c0,.83,0,1.65,0,2.48a34.21,34.21,0,0,1-.14,4.3c-.09.91-.12,1.83-.24,2.73a55.15,55.15,0,0,1-.94,6.14c-.14.68-.11,1.22.58,1.58a5.49,5.49,0,0,1,.81.65,19.73,19.73,0,0,0,2.23,1.75l1.29,1C360.1,568.31,360.23,568.39,360.1,568.57Z" transform="translate(-310.52 -491.62)"/><path class="cls-13" d="M369.52,543.45h.19c.45.14.92-.06,1.36.11a.11.11,0,0,0,.08,0c.48.14,1-.06,1.47.11.83.11,1.66.25,2.5.32,2,.17,3.92.51,5.87.84l2.91.5c.33.12.71,0,1,.2l.19,0c.37.12.78,0,1.14.21.53.22,1.13.17,1.67.36a.75.75,0,0,1,.52.28,19.8,19.8,0,0,1,1.66,2.2,2.66,2.66,0,0,1,.41,1.74.76.76,0,0,1-.74.69c-.43.05-.87-.1-.91-.52a3,3,0,0,0-1.05-1.74,2.52,2.52,0,0,1,.83,1.7c0,.26,0,.54-.24.7s-.5,0-.71-.14a53.41,53.41,0,0,0-5.07-2.94,20.89,20.89,0,0,0-6.88-2.32,36.52,36.52,0,0,0-5.12-.37,18.85,18.85,0,0,0-4.16.44,3.74,3.74,0,0,0-1.28.51,1.2,1.2,0,0,1-.34.17c-.42.1-.85.2-1.19-.17a1.14,1.14,0,0,1,0-1.25,3.39,3.39,0,0,1,.8-.89,5,5,0,0,1,2-.83A28,28,0,0,1,369.52,543.45Z" transform="translate(-310.52 -491.62)"/><path class="cls-14" d="M364.53,544.33a8,8,0,0,0-.72.82.92.92,0,0,0,0,1.14.86.86,0,0,0,1.08,0,7.4,7.4,0,0,1,3.78-1,24.67,24.67,0,0,1,3-.12,28.71,28.71,0,0,1,6.85.94,23,23,0,0,1,4.37,1.86,56.7,56.7,0,0,1,5,2.92c.48.32.57.25.61-.31a2.84,2.84,0,0,0-.89-1.9,3,3,0,0,0-.5-.44,2.54,2.54,0,0,1,1.89,2,.55.55,0,0,0,.59.63c.35,0,.76,0,.78-.56a2.71,2.71,0,0,0-.42-1.68,19.41,19.41,0,0,0-2-2.52c.22-.07.43.08.65.07a.21.21,0,0,1,.24,0c.42.53.82,1.07,1.22,1.61a5.56,5.56,0,0,1,.85,1.66,2,2,0,0,1-.25,1.64.85.85,0,0,1-.86.39,1.63,1.63,0,0,0-1.09.28.55.55,0,0,1-.58,0,4.26,4.26,0,0,0-.8-.2c-.46-.33-.88-.73-1.35-1.05A5,5,0,0,0,385,550c-.64-.42-1.39-.64-2-1a19.08,19.08,0,0,0-1.77-1,21.16,21.16,0,0,0-6.55-1.9,23.49,23.49,0,0,0-7.53.13c-.43.09-.84.28-1.26.4a1.9,1.9,0,0,0-.73.35c-.23.13-.45.28-.72.12,0,0,0-.08-.06-.09-.61-.09-1.06-.31-1-1.06a1.45,1.45,0,0,1,.64-1.38s0-.06,0-.1c.26-.12,0-.45.23-.58S364.57,544.07,364.53,544.33Z" transform="translate(-310.52 -491.62)"/><path class="cls-7" d="M356,557.08a12.43,12.43,0,0,1,0-1.93c.42-2.59.1-5.2.21-7.8a.59.59,0,0,1,.15-.51c.55-.51,1.05-1.07,1.63-1.55.32-.27.74-.47.94-.92s.05-.39-.24-.37a28.76,28.76,0,0,0-3.06.39,12.92,12.92,0,0,1-1.87,0c0-.21.13-.28.31-.32a8.53,8.53,0,0,0,2.67-.29,14.09,14.09,0,0,0,2.35-.26h.68c.22.6-.3.89-.59,1.19-.75.77-1.56,1.49-2.36,2.2a.84.84,0,0,0-.34.75c0,1.39,0,2.79,0,4.18,0,.18.06.37-.05.54A42.89,42.89,0,0,1,356,557.08Z" transform="translate(-310.52 -491.62)"/><path class="cls-15" d="M369.52,543.45H366.3a5.16,5.16,0,0,1-1.83.2c-.29,0-.6,0-.82-.22v-.11h5.24C369.1,543.33,369.34,543.26,369.52,543.45Z" transform="translate(-310.52 -491.62)"/><path class="cls-15" d="M386.24,545.77a2.47,2.47,0,0,1-1.14-.21C385.47,545.64,385.93,545.31,386.24,545.77Z" transform="translate(-310.52 -491.62)"/><path class="cls-15" d="M372.62,543.67a5.58,5.58,0,0,1-1.47-.11C371.64,543.6,372.15,543.42,372.62,543.67Z" transform="translate(-310.52 -491.62)"/><path class="cls-15" d="M371.07,543.56a4.13,4.13,0,0,1-1.36-.11C370.16,543.49,370.63,543.32,371.07,543.56Z" transform="translate(-310.52 -491.62)"/><path class="cls-15" d="M384.91,545.53a3.18,3.18,0,0,1-1-.2C384.24,545.41,384.64,545.13,384.91,545.53Z" transform="translate(-310.52 -491.62)"/><path class="cls-7" d="M359.54,564.15a7.32,7.32,0,0,1,.23-3.54l.05,0a.77.77,0,0,0,.92.51c.38-.06.8.14,1.15-.21.19-.19.34,0,.45.14a3.45,3.45,0,0,0,1.14,1.17c.32.15.32.6.42.92a3.06,3.06,0,0,0,.67,1.13,2.38,2.38,0,0,1,.68,1c.05.25.21.2.38.15s.5,0,.77.11c.83.24,1.64.75,2.56.32a.71.71,0,0,1,.38-.06c.68.13,1.25-.25,1.87-.37a.5.5,0,0,0,.36-.25,8.11,8.11,0,0,1,2-1.9c.17-.13.33-.23.27-.49-.08-.44.21-.54.56-.54s.69.15.73-.41c0-.2.29-.21.48-.16a1.41,1.41,0,0,0,1.35-.21c.28-.22.68-.1,1-.08.17,0,.38.12.42-.18s-.19-.43-.36-.59a5.09,5.09,0,0,0-4.33-1.56.44.44,0,0,1-.37,0c-.14-.25.05-.38.18-.52a1.07,1.07,0,0,0-.51-1.79,1.26,1.26,0,0,0-1.28.25,1.28,1.28,0,0,1,2.11.78,1.22,1.22,0,0,1-.79,1.17,14.56,14.56,0,0,1-6.54,1.92,2.44,2.44,0,0,1-2.35-2.89,3.14,3.14,0,0,1,.57-1.42,33.08,33.08,0,0,1,2.14-2.74l.11-.11c.64-.48,1-1.22,1.62-1.73.18-.15.33-.34.57-.51-.29,0-.35-.18-.42-.37a1,1,0,0,0-.89-.65,2.43,2.43,0,0,0-2.89,1.56c-.05.1-.11.19-.24.19a.28.28,0,0,1-.18-.17c-.05-.36.16-.69.12-1,.14-1.12.3-2.23.5-3.33a1.47,1.47,0,0,1,.36-.79,3.72,3.72,0,0,1,1.5-.54,19.13,19.13,0,0,1,6-.21,30.41,30.41,0,0,1,6.13,1.15c.52.17,1,.39,1.54.6a.69.69,0,0,1,.52.79,4.67,4.67,0,0,0-.29,1.28,2.1,2.1,0,0,0,.38,1.09,5.18,5.18,0,0,1,.37,5.35c-.23.53-.4,1.07-.61,1.61s0,.57.37.67c.78.19,1.23.09,1.57-.4a11.35,11.35,0,0,0,.56-1.4l.06-.14a17.23,17.23,0,0,1,1.19-2.58,4.37,4.37,0,0,1,.25-.4,3.39,3.39,0,0,1,1.43-1.35.42.42,0,0,1,.16,0,1.73,1.73,0,0,1,1.86,1.14,3.85,3.85,0,0,1-.79,4.26,2.19,2.19,0,0,1-2.5.29c0-.07-.11,0,0,0a5.55,5.55,0,0,1-.32,1.57c-.54,1.47-1.12,2.92-1.78,4.33a16.36,16.36,0,0,1-2.61,4.19,13.27,13.27,0,0,1-3.34,2.5,9.36,9.36,0,0,1-4,1,20.19,20.19,0,0,1-2.91,0,23.73,23.73,0,0,1-3-.36,10.73,10.73,0,0,1-4.22-2.06c-.49-.41-.95-.85-1.42-1.29a7.1,7.1,0,0,1-1.95-3.63s0,0,0,0S359.57,564.13,359.54,564.15Z" transform="translate(-310.52 -491.62)"/><path class="cls-7" d="M378.6,561.2c0,.38,0,.59-.55.37a.94.94,0,0,0-1.2.18c-.28.33-.71.2-1.09.1s-.7-.32-.48.34c.05.16-.06.18-.18.18h-.55c-.36,0-.81-.08-.42.53a.22.22,0,0,1-.15.34c-.41.12-.61.54-.94.71a4.19,4.19,0,0,0-1.43,1.5c-.09.11-.26.1-.41.13a10.34,10.34,0,0,1-2.08.4c-.46,0-1,.14-1.45.15a.63.63,0,0,1-.42-.1c-.21-.25-.39-.39-.7-.14-.06.06-.27,0-.28-.07-.1-.67-.47-.34-.74-.19s-.48.15-.44-.26a.86.86,0,0,0-.35-.72,3.51,3.51,0,0,1-1.2-2.12c0-.11,0-.24-.16-.26-.78-.11-.88-.91-1.3-1.31-.67.77-1.54,0-2.23.37-.12-.29.17-.53-.08-.73l0-.24a1.9,1.9,0,0,1,1.33,0c1.52.26,3.05.4,4.59.52.6.05,1.2.11,1.8.11a.6.6,0,0,0,.53-.22.63.63,0,0,1,.3-.16c.22,0,.33.12.46.24.16-.11.1-.34.27-.44s.32.06.36.25c.05.65.05.67.67.65a25.29,25.29,0,0,0,3.69-.12,6.48,6.48,0,0,1,1.32,0c.9,0,1.78-.16,2.67-.2C378.07,561,378.39,560.88,378.6,561.2Z" transform="translate(-310.52 -491.62)"/><path class="cls-7" d="M364.65,552l.1.11c.18.12.17.32.21.49a1.26,1.26,0,0,0,1.09,1l.16,0c.56.16.61.31.23.74a20,20,0,0,0-1.54,2,2.81,2.81,0,0,0-.61,1.4.81.81,0,0,1-.83.87,8.65,8.65,0,0,0-3,1.24c-.12.09-.27.21-.43,0a3.76,3.76,0,0,1,.8-2c.77-.92,1.54-1.85,2.27-2.8.1-.12.1-.28.17-.41.35-.76.78-1.48,1.08-2.27A.79.79,0,0,1,364.65,552Z" transform="translate(-310.52 -491.62)"/><path class="cls-16" d="M360,559.92a9.18,9.18,0,0,1,3.41-1.43,1.58,1.58,0,0,1,.61,0c.23.46-.18.41-.39.45a9.64,9.64,0,0,0-2.57,1,.7.7,0,0,0-.26.2,13.37,13.37,0,0,0,2.32.33,1,1,0,0,0,.63-.31c.22-.15.4-.38.69-.43s.31.2.41.35a1.64,1.64,0,0,0,1.42.69,5.31,5.31,0,0,0,1.59-.06c.13,0,.3,0,.29.18s-.34.41-.69.39a62.17,62.17,0,0,1-6.38-.68c-.43-.07-.87-.11-1.3-.16C359.74,560.16,360,560.07,360,559.92Z" transform="translate(-310.52 -491.62)"/><path class="cls-7" d="M370.05,571.68c-.45-.37-1-.22-1.52-.27a10.82,10.82,0,0,1-8.19-5.19l-.13-.17a6.83,6.83,0,0,1-.67-1.9l0-.32a8.62,8.62,0,0,0,1.43,3,13.72,13.72,0,0,0,1.71,1.78,11.09,11.09,0,0,0,3.62,2.05,10.92,10.92,0,0,0,2.58.51,10.55,10.55,0,0,1,1.26.13c.43.16.48.42.22.78-.12,0-.25.1-.36,0S370,571.83,370.05,571.68Z" transform="translate(-310.52 -491.62)"/><path class="cls-17" d="M364.52,551.09a14.45,14.45,0,0,0-.2-3.22,3.87,3.87,0,0,1,0-.68l.06-.14c.34,0,.5-.25.74-.4a1.12,1.12,0,0,1,.61-.21c.14.19-.06.3-.11.44a9.79,9.79,0,0,0-.56,2.63c-.09.48-.16,1-.24,1.46-.09.14,0,.42-.34.34A.18.18,0,0,1,364.52,551.09Z" transform="translate(-310.52 -491.62)"/><path class="cls-7" d="M360.1,568.57a10.46,10.46,0,0,0-1.91-1.6c-.49-.38-1-.73-1.49-1.11-.12-.09-.38-.15-.24-.41l3.34,2.45c2,1.51,4.26,2.76,6.17,4.45-.18.16-.32,0-.43-.08-1.49-1.2-3.15-2.16-4.68-3.3a1.38,1.38,0,0,0-.65-.29Z" transform="translate(-310.52 -491.62)"/><path class="cls-7" d="M364.52,551.09l0,.2c.17.19.1.41,0,.62a12.08,12.08,0,0,1-1.06,2.38c0,.08-.11.15-.22.12a4.51,4.51,0,0,1,.21-2A3.62,3.62,0,0,1,364.52,551.09Z" transform="translate(-310.52 -491.62)"/><path class="cls-7" d="M363.32,554.75a.89.89,0,0,1-.18.61c-.64.73-1.24,1.49-1.86,2.23-.12.15-.2.37-.46.35a3.69,3.69,0,0,1,.81-1.15,16.46,16.46,0,0,0,1.67-2.3A.18.18,0,0,1,363.32,554.75Z" transform="translate(-310.52 -491.62)"/><path class="cls-7" d="M363.32,554.75l0-.26a.19.19,0,0,1,0-.08,6.83,6.83,0,0,0,1.23-3.12c.18,0,.2-.23.31-.32a2.66,2.66,0,0,1-.2,1A8.7,8.7,0,0,1,363.32,554.75Z" transform="translate(-310.52 -491.62)"/><path class="cls-7" d="M370.4,572.13c0-.28.06-.58-.22-.78a21.24,21.24,0,0,0,5.16-.33c.66-.17,1.28-.44,1.92-.67a.82.82,0,0,1,0,.89,17.66,17.66,0,0,0-1.84.56,17.67,17.67,0,0,1-4.7.42A1.92,1.92,0,0,1,370.4,572.13Z" transform="translate(-310.52 -491.62)"/><path class="cls-7" d="M377.26,571.24v-.89a20.29,20.29,0,0,0,3-2.16,9.31,9.31,0,0,0,1.58-2.11,40.15,40.15,0,0,0,2.36-5c.22-.52.42-1.05.62-1.58a.45.45,0,0,1,.17.4,2.79,2.79,0,0,1-.29,1.06,39,39,0,0,1-2,4.47c-.08.15-.14.31-.32.37a.3.3,0,0,0-.19.25,11.16,11.16,0,0,1-4.41,4.34c-.28.16-.26.37-.22.61.07.42.15.83.22,1.25-.11.08-.23.07-.22-.08A3.58,3.58,0,0,0,377.26,571.24Z" transform="translate(-310.52 -491.62)"/><path class="cls-18" d="M363.55,543.35h.09a9.08,9.08,0,0,0,1.95.08l.71,0-1.77.88c-.17-.11,0-.44-.34-.44C364,543.73,363.54,543.81,363.55,543.35Z" transform="translate(-310.52 -491.62)"/><path class="cls-19" d="M383.25,558.17a.66.66,0,0,1-.78.66h-.27c-1.37,0-1.5-.2-1.07-1.44a18.52,18.52,0,0,0,.92-2.72,3.77,3.77,0,0,0-.46-2.91c-.16-.25-.25-.53-.41-.78a2.15,2.15,0,0,1-.05-2.35.71.71,0,0,0,0-.62c0-.15,0-.2.17-.16.47.23.94.45,1.4.69.13.07.34.07.33.3a2.18,2.18,0,0,0,.25,1,24,24,0,0,1,.38,3.38c.07.71.1,1.43.2,2.14a6.37,6.37,0,0,1-.08,1.31h0A7.59,7.59,0,0,0,383.25,558.17Z" transform="translate(-310.52 -491.62)"/><path class="cls-20" d="M381.31,547.85c-.24.21.16.58-.18.78a.54.54,0,0,0-.4-.69,28.42,28.42,0,0,0-8.28-1.76,17.89,17.89,0,0,0-6.19.46,6.44,6.44,0,0,0-.61.24c0-.15.07-.29.11-.44a12.9,12.9,0,0,1,5.64-.82A22.07,22.07,0,0,1,381.31,547.85Z" transform="translate(-310.52 -491.62)"/><path class="cls-21" d="M386.55,552.4a7.5,7.5,0,0,0-1.31,1.33.69.69,0,0,1-.23-.48c-.17-.86-.26-1.74-.38-2.6-.06-.37-.06-.77.5-.78a2.73,2.73,0,0,1,.87.55A9.7,9.7,0,0,1,386.55,552.4Z" transform="translate(-310.52 -491.62)"/><path class="cls-22" d="M385.13,549.87c-.47.2-.35.58-.29.94.15,1,.32,1.94.4,2.92l-.22.34c-.21.29-.37.17-.48-.08a2.71,2.71,0,0,1-.16-.81c-.1-1.06-.24-2.12-.44-3.16-.11-.56-.4-.65-.81-.27a1.59,1.59,0,0,0-.81-.24l.72-.67A13.51,13.51,0,0,1,385.13,549.87Z" transform="translate(-310.52 -491.62)"/><path class="cls-23" d="M386.55,552.4c-.21,0-.23-.21-.26-.36a6.46,6.46,0,0,0-.41-1.49c-.05-.11.05-.11.12-.13.44.34,1,.51,1.25,1.09l-.13.38c0,.27-.15.48-.46.51Z" transform="translate(-310.52 -491.62)"/><path class="cls-7" d="M364.1,558.53l-.67,0c.59,0,.73-.43.79-.93a2.89,2.89,0,0,1,.58-1.24,13.55,13.55,0,0,1,1.54-2c.38-.39.2-.48-.19-.55a1.49,1.49,0,0,1-1.4-1.7c.66-1.91,1.87-2,3.17-1.88a1,1,0,0,1,.9.54c.16.41.28.69.79.28-.92.89-1.58,1.94-2.54,2.71a.46.46,0,0,1,0-.47c.34-.38.7-.75,1-1.15.13-.09.18-.24.29-.35.31-.42.27-.77-.11-1a2.3,2.3,0,0,0-2.94.93,1.11,1.11,0,0,0,.89,1.71,1.5,1.5,0,0,0,.6.06c.18,0,.17.17.24.27-.73,1-1.6,1.92-2.26,3a2.7,2.7,0,0,0,.08,3.19,1.88,1.88,0,0,0,1.54.72,11.76,11.76,0,0,0,4-.76,13.34,13.34,0,0,0,2.57-1.12c.84-.47.93-1.38.2-1.85a1.18,1.18,0,0,0-1.41.15,2.43,2.43,0,0,1-.43.47,1.31,1.31,0,0,1,2-.8c.65.48.91,1.37.21,1.86a.44.44,0,0,0-.22.37.36.36,0,0,1-.24.18c-.26.15-.55.26-.81.41l-.2.11c-.84.4-1.76.6-2.62,1a.24.24,0,0,1-.23,0c0-.17-.1-.18-.23-.11-.15.29-.45.12-.67.21l-.23.11c-.32-.16-.64,0-.95,0a2.81,2.81,0,0,1-2.79-1.16C364,559.41,364.1,559,364.1,558.53Z" transform="translate(-310.52 -491.62)"/><path class="cls-24" d="M383.13,549.75c.07-.2-.16-.51.18-.6s.79.49.82.73c.18,1.33.37,2.65.55,4,0,.25.1.34.34.21l-1.23,2.65a5.91,5.91,0,0,1-.18-1.63c-.18-1.44-.25-2.9-.37-4.36C383.22,550.4,383.17,550.08,383.13,549.75Z" transform="translate(-310.52 -491.62)"/><path class="cls-25" d="M369.3,560.61l.12-.13c.27-.1.27.11.29.26s.19.34.42.34c.88,0,1.76,0,2.64,0,.13,0,.32,0,.37-.16s-.12-.21-.19-.31c-.27-.37-.79-.56-.81-1.11l.15-.1c.26-.13.46,0,.67.15a4.44,4.44,0,0,1,1.09.93,1.39,1.39,0,0,0,1.35.52,1.84,1.84,0,0,0,.72-.14,13.45,13.45,0,0,0-1.29-1.52c-.22-.24-.51-.13-.78-.13s-.74.21-1-.21l.34-.05c2.18-.58,3.85.58,5.18,2a.23.23,0,0,1,0,.3c-1.76.08-3.52.13-5.27.23-1.19.08-2.39.06-3.58.05-.4,0-.6-.1-.47-.54A1.2,1.2,0,0,0,369.3,560.61Z" transform="translate(-310.52 -491.62)"/><path class="cls-26" d="M376.8,550a11.11,11.11,0,0,0-3.13-1.26c-.38-.09-.41-.35-.34-.63s.11-.57.49-.57A3.53,3.53,0,0,1,376.8,550Z" transform="translate(-310.52 -491.62)"/><path class="cls-27" d="M365.37,549.51a3.33,3.33,0,0,1,2.87-2.2c.2,0,.48-.09.49.26s.13.84-.29.9A10.13,10.13,0,0,0,365.37,549.51Z" transform="translate(-310.52 -491.62)"/><path class="cls-7" d="M374.87,554.72a3.37,3.37,0,0,1-.55,0,1.82,1.82,0,0,1-1.68-2.28,6.23,6.23,0,0,1,.29-1.4,1,1,0,0,1,.79-.7c1.87-.3,3.6.91,3.16,3.14C376.69,554.44,376,554.83,374.87,554.72Z" transform="translate(-310.52 -491.62)"/><path class="cls-7" d="M385.91,558.42c-.36-.3-.54-.14-.65.25a5.34,5.34,0,0,1-.45,1.29l0-.47c.13-.45.24-.91.37-1.36s-.28-.36-.32-.65c.33.14.55.41.9.51a2.33,2.33,0,0,0,2.77-1.65,3.61,3.61,0,0,0-.13-3,1.61,1.61,0,0,0-1.72-1c.23-.1.29-.35.46-.51,0,.12,0,.25.17.31a2.53,2.53,0,0,1,1.67,2.54,3.62,3.62,0,0,1-1.52,3.35A3,3,0,0,1,385.91,558.42Z" transform="translate(-310.52 -491.62)"/><path class="cls-7" d="M386.66,555.84c-.52-.09-1-.23-1.38.18a1.74,1.74,0,0,1,1.77-1.47C386.85,555,385.7,555,386.66,555.84Z" transform="translate(-310.52 -491.62)"/><path class="cls-24" d="M383.25,558.17a2.37,2.37,0,0,1,.54-1.44A5.69,5.69,0,0,1,383.25,558.17Z" transform="translate(-310.52 -491.62)"/><path class="cls-28" d="M363.87,562.12c-.18-.29-.12-.63-.29-1.09a10.76,10.76,0,0,0,10.35.66,3.22,3.22,0,0,1-.87,1.34.93.93,0,0,1-.54.35,11.4,11.4,0,0,1-6.47-.07,8.82,8.82,0,0,1-1.62-.68A1.16,1.16,0,0,1,363.87,562.12Z" transform="translate(-310.52 -491.62)"/><path class="cls-29" d="M366,563.15a16.87,16.87,0,0,0,2.83.46,14.21,14.21,0,0,0,4.25-.58,4.81,4.81,0,0,1-1.39,1.52,2.13,2.13,0,0,1-1,.58,1.44,1.44,0,0,0-1.27-.33c-.15,0-.32.07-.44,0-.77-.44-1.43-.08-2.11.25a1.79,1.79,0,0,1-1.18-.37l-.13-.1c-.1-.06-.25-.06-.31-.2C365.09,564.08,365.62,563.23,366,563.15Z" transform="translate(-310.52 -491.62)"/><path class="cls-30" d="M366,563.15c0,.38-.34.57-.58.82s-.07.44.12.61c-.52,0-.75-.41-1-.76a2.65,2.65,0,0,1-.68-1.7A18.69,18.69,0,0,0,366,563.15Z" transform="translate(-310.52 -491.62)"/><path class="cls-31" d="M366.85,564.91c.62-.39,1.22-.86,2-.27.2.16.42,0,.64-.06.75-.1,1,0,1.18.55a.29.29,0,0,1-.28.12,11.79,11.79,0,0,1-2.22.09C367.69,565.28,367.18,565.36,366.85,564.91Z" transform="translate(-310.52 -491.62)"/><path class="cls-32" d="M366.85,564.91a10,10,0,0,0,2.78.26c.24,0,.51-.1.74.08-1.54.76-3,.3-4.47-.28-.11-.05-.29-.08-.25-.29A4.4,4.4,0,0,0,366.85,564.91Z" transform="translate(-310.52 -491.62)"/><path class="cls-7" d="M368.4,560.71a2.27,2.27,0,0,1,.67-.21,1,1,0,0,1,0,.17c0,.2.07.48-.2.55s-.17-.28-.29-.4A.61.61,0,0,0,368.4,560.71Z" transform="translate(-310.52 -491.62)"/><path class="cls-7" d="M374.76,562.08c-.2,0-.27-.09-.33-.24.1-.17.18-.05.25,0A.18.18,0,0,1,374.76,562.08Z" transform="translate(-310.52 -491.62)"/><path class="cls-33" d="M364.1,558.53l.33,1.17a1.77,1.77,0,0,1-2.06.81,16.24,16.24,0,0,0-2-.29,2.59,2.59,0,0,1,1.08-.73,7,7,0,0,1,2.49-.79C364,558.7,364.06,558.61,364.1,558.53Z" transform="translate(-310.52 -491.62)"/><path class="cls-34" d="M366.87,553.54a1.34,1.34,0,0,1-1.85-1.42,1.85,1.85,0,0,1,1.18-1.53,3.52,3.52,0,0,1,1.9-.14.8.8,0,0,1,.71.8c0,.28,0,.57-.38.58a.4.4,0,0,1-.2-.09c-.51-.45-1-.5-1.34-.15a1.43,1.43,0,0,0-.21,1.57C366.76,553.28,366.87,553.38,366.87,553.54Z" transform="translate(-310.52 -491.62)"/><path class="cls-35" d="M373.06,559a1.93,1.93,0,0,0,1.14,0,.79.79,0,0,1,.9.34,18.93,18.93,0,0,1,1.33,1.66,5.57,5.57,0,0,1-1.85.18c-.22,0-.29-.17-.41-.31a5.28,5.28,0,0,0-1.88-1.47Z" transform="translate(-310.52 -491.62)"/><path class="cls-35" d="M372.14,559.48l1.26,1.3c.22.23.24.34-.13.4a26.66,26.66,0,0,1-3.46.09c-.25,0-.28-.16-.3-.37s.17-.33-.09-.41C370.29,560,371.25,559.85,372.14,559.48Z" transform="translate(-310.52 -491.62)"/><path class="cls-36" d="M368.16,552.19a3.71,3.71,0,0,1-1,1.15c-.53-.09-.72-.38-.63-1s.37-.92,1-.87c.18.18,0,.65.47.59A.27.27,0,0,1,368.16,552.19Z" transform="translate(-310.52 -491.62)"/><path class="cls-37" d="M368.16,552.19H368a.89.89,0,0,0-.46-.59.72.72,0,0,0-.86.59.92.92,0,0,0,.5,1.15c0,.13,0,.26-.08.39h0l-.21-.18a1.39,1.39,0,0,1-.08-2.07,1,1,0,0,1,1.65.36C368.42,552,368.39,552.17,368.16,552.19Z" transform="translate(-310.52 -491.62)"/><path class="cls-38" d="M375.72,559.21a5.52,5.52,0,0,1,2.34,1.47c.18.18.13.29-.09.33s-.61.13-.82-.15C376.73,560.26,376.18,559.78,375.72,559.21Z" transform="translate(-310.52 -491.62)"/><path class="cls-39" d="M374.37,554.53c-1.17-.23-1.56-.75-1.48-2a6.64,6.64,0,0,1,.15-1c.18-.84.48-1.07,1.33-1a2.27,2.27,0,0,1,2.24,1.68c.05.14.1.27-.05.38s-.28-.22-.37-.38a.9.9,0,0,0-1.42-.26,1.52,1.52,0,0,0-.32,2c.12.18.32.32.3.57S374.51,554.58,374.37,554.53Z" transform="translate(-310.52 -491.62)"/><path class="cls-40" d="M376.51,552.52l.1-.35a1.84,1.84,0,0,1-.33,2,1.88,1.88,0,0,1-1.91.35l.34-.12a1.6,1.6,0,0,0,1.67-1.73A.18.18,0,0,1,376.51,552.52Z" transform="translate(-310.52 -491.62)"/><path class="cls-41" d="M367.51,551.6c.16,0,.33-.18.48,0s.09.4,0,.59a.28.28,0,0,1-.47,0A.44.44,0,0,1,367.51,551.6Z" transform="translate(-310.52 -491.62)"/><path class="cls-42" d="M376.51,552.52a2.36,2.36,0,0,1-.23,1.28,1.21,1.21,0,0,1-1.57.61,1.65,1.65,0,0,1-.51-2.06,1.37,1.37,0,0,1,1.27-.88C376.11,551.52,376.34,552,376.51,552.52Z" transform="translate(-310.52 -491.62)"/><path class="cls-43" d="M376,552.64c0,.05.06.1.07.14a1.12,1.12,0,0,1-.82,1.26.83.83,0,0,1-.83-.71,1.12,1.12,0,0,1,.74-1.34.86.86,0,0,1,.28,0C375.49,552.27,375.43,552.7,376,552.64Z" transform="translate(-310.52 -491.62)"/><path class="cls-44" d="M376,552.64c-.17.17-.37.31-.56.1a.66.66,0,0,1,0-.77c.16-.06.32-.2.49,0A.59.59,0,0,1,376,552.64Z" transform="translate(-310.52 -491.62)"/><g class="cls-45"><polygon class="cls-46" points="31.82 17.48 30.89 17.52 30.89 17.48 31.82 17.48"/><polygon class="cls-47" points="41.67 17.48 30.89 17.86 30.89 17.52 31.82 17.48 41.67 17.48"/><polygon class="cls-48" points="51.51 17.48 30.89 18.2 30.89 17.86 41.67 17.48 51.51 17.48"/><polygon class="cls-49" points="61.36 17.48 30.89 18.55 30.89 18.2 51.51 17.48 61.36 17.48"/><polygon class="cls-50" points="71.2 17.48 30.89 18.89 30.89 18.55 61.36 17.48 71.2 17.48"/><polygon class="cls-51" points="81.05 17.48 30.89 19.23 30.89 18.89 71.2 17.48 81.05 17.48"/><polygon class="cls-52" points="90.89 17.48 30.89 19.57 30.89 19.23 81.05 17.48 90.89 17.48"/><polygon class="cls-53" points="100.63 17.49 30.89 19.92 30.89 19.57 90.89 17.48 100.63 17.48 100.63 17.49"/><polygon class="cls-54" points="100.63 17.83 30.89 20.26 30.89 19.92 100.63 17.49 100.63 17.83"/><polygon class="cls-55" points="100.63 18.17 30.89 20.6 30.89 20.26 100.63 17.83 100.63 18.17"/><polygon class="cls-56" points="100.63 18.52 30.89 20.95 30.89 20.6 100.63 18.17 100.63 18.52"/><polygon class="cls-57" points="100.63 18.86 30.89 21.29 30.89 20.95 100.63 18.52 100.63 18.86"/><polygon class="cls-58" points="100.63 19.2 30.89 21.63 30.89 21.29 100.63 18.86 100.63 19.2"/><polygon class="cls-59" points="100.63 19.55 30.89 21.98 30.89 21.63 100.63 19.2 100.63 19.55"/><polygon class="cls-60" points="100.63 19.89 30.89 22.32 30.89 21.98 100.63 19.55 100.63 19.89"/><polygon class="cls-61" points="100.63 20.23 30.89 22.66 30.89 22.32 100.63 19.89 100.63 20.23"/><polygon class="cls-62" points="100.63 20.57 30.89 23.01 30.89 22.66 100.63 20.23 100.63 20.57"/><polygon class="cls-63" points="100.63 20.92 30.89 23.35 30.89 23.01 100.63 20.57 100.63 20.92"/><polygon class="cls-64" points="100.63 21.26 30.89 23.69 30.89 23.35 100.63 20.92 100.63 21.26"/><polygon class="cls-65" points="100.63 21.6 30.89 24.04 30.89 23.69 100.63 21.26 100.63 21.6"/><polygon class="cls-66" points="100.63 21.95 30.89 24.38 30.89 24.04 100.63 21.6 100.63 21.95"/><polygon class="cls-67" points="100.63 22.29 30.89 24.72 30.89 24.38 100.63 21.95 100.63 22.29"/><polygon class="cls-68" points="100.63 22.63 30.89 25.06 30.89 24.72 100.63 22.29 100.63 22.63"/><polygon class="cls-69" points="100.63 22.98 30.89 25.41 30.89 25.06 100.63 22.63 100.63 22.98"/><polygon class="cls-70" points="100.63 23.32 30.89 25.75 30.89 25.41 100.63 22.98 100.63 23.32"/><polygon class="cls-71" points="100.63 23.66 30.89 26.09 30.89 25.75 100.63 23.32 100.63 23.66"/><polygon class="cls-72" points="100.63 24.01 30.89 26.44 30.89 26.09 100.63 23.66 100.63 24.01"/><polygon class="cls-73" points="100.63 24.35 30.89 26.78 30.89 26.44 100.63 24.01 100.63 24.35"/><polygon class="cls-74" points="100.63 24.69 30.89 27.12 30.89 26.78 100.63 24.35 100.63 24.69"/><polygon class="cls-75" points="100.63 25.04 30.89 27.47 30.89 27.12 100.63 24.69 100.63 25.04"/><polygon class="cls-76" points="100.63 25.38 30.89 27.81 30.89 27.47 100.63 25.04 100.63 25.38"/><polygon class="cls-77" points="100.63 25.72 30.89 28.15 30.89 27.81 100.63 25.38 100.63 25.72"/><polygon class="cls-78" points="100.63 26.07 30.89 28.5 30.89 28.15 100.63 25.72 100.63 26.07"/><polygon class="cls-79" points="100.63 26.41 30.89 28.84 30.89 28.5 100.63 26.07 100.63 26.41"/><polygon class="cls-80" points="100.63 26.75 30.89 29.18 30.89 28.84 100.63 26.41 100.63 26.75"/><polygon class="cls-81" points="100.63 27.09 30.89 29.52 30.89 29.18 100.63 26.75 100.63 27.09"/><polygon class="cls-82" points="100.63 27.44 30.89 29.87 30.89 29.52 100.63 27.09 100.63 27.44"/><polygon class="cls-83" points="100.63 27.78 30.89 30.21 30.89 29.87 100.63 27.44 100.63 27.78"/><polygon class="cls-84" points="100.63 28.12 30.89 30.55 30.89 30.21 100.63 27.78 100.63 28.12"/><polygon class="cls-85" points="100.63 28.47 30.89 30.9 30.89 30.55 100.63 28.12 100.63 28.47"/><polygon class="cls-86" points="100.63 28.81 30.89 31.24 30.89 30.9 100.63 28.47 100.63 28.81"/><polygon class="cls-87" points="100.63 29.15 30.89 31.58 30.89 31.24 100.63 28.81 100.63 29.15"/><polygon class="cls-88" points="100.63 29.5 30.89 31.93 30.89 31.58 100.63 29.15 100.63 29.5"/><polygon class="cls-89" points="100.63 29.84 30.89 32.27 30.89 31.93 100.63 29.5 100.63 29.84"/><polygon class="cls-90" points="100.63 30.18 30.89 32.61 30.89 32.27 100.63 29.84 100.63 30.18"/><polygon class="cls-91" points="100.63 30.52 30.89 32.96 30.89 32.61 100.63 30.18 100.63 30.52"/><polygon class="cls-92" points="100.63 30.87 30.89 33.3 30.89 32.96 100.63 30.52 100.63 30.87"/><polygon class="cls-93" points="100.63 31.21 30.89 33.64 30.89 33.3 100.63 30.87 100.63 31.21"/><polygon class="cls-94" points="100.63 31.55 30.89 33.98 30.89 33.64 100.63 31.21 100.63 31.55"/><polygon class="cls-95" points="100.63 31.9 30.89 34.33 30.89 33.98 100.63 31.55 100.63 31.9"/><polygon class="cls-96" points="100.63 32.24 30.89 34.67 30.89 34.33 100.63 31.9 100.63 32.24"/><polygon class="cls-97" points="100.63 32.58 30.89 35.01 30.89 34.67 100.63 32.24 100.63 32.58"/><polygon class="cls-98" points="100.63 32.93 30.89 35.36 30.89 35.01 100.63 32.58 100.63 32.93"/><polygon class="cls-99" points="100.63 33.27 30.89 35.7 30.89 35.36 100.63 32.93 100.63 33.27"/><polygon class="cls-100" points="100.63 33.61 30.89 36.04 30.89 35.7 100.63 33.27 100.63 33.61"/><polygon class="cls-101" points="100.63 33.96 30.89 36.39 30.89 36.04 100.63 33.61 100.63 33.96"/><polygon class="cls-102" points="100.63 34.3 30.89 36.73 30.89 36.39 100.63 33.96 100.63 34.3"/><polygon class="cls-103" points="100.63 34.64 30.89 37.07 30.89 36.73 100.63 34.3 100.63 34.64"/><polygon class="cls-104" points="100.63 34.98 30.89 37.42 30.89 37.07 100.63 34.64 100.63 34.98"/><polygon class="cls-105" points="100.63 35.33 30.89 37.76 30.89 37.42 100.63 34.98 100.63 35.33"/><polygon class="cls-106" points="100.63 35.67 30.89 38.1 30.89 37.76 100.63 35.33 100.63 35.67"/><polygon class="cls-107" points="100.63 36.02 30.89 38.45 30.89 38.1 100.63 35.67 100.63 36.02"/><polygon class="cls-108" points="100.63 36.36 30.89 38.79 30.89 38.45 100.63 36.02 100.63 36.36"/><polygon class="cls-109" points="100.63 36.7 30.89 39.13 30.89 38.79 100.63 36.36 100.63 36.7"/><polygon class="cls-110" points="100.63 37.04 30.89 39.48 30.89 39.13 100.63 36.7 100.63 37.04"/><path class="cls-111" d="M341.41,531.09v.34l9.58-.33a26.14,26.14,0,0,1,5.79-.2l54.37-1.9v-.34Z" transform="translate(-310.52 -491.62)"/><path class="cls-112" d="M351,531.1l-9.58.33v.35l7.57-.27A20.46,20.46,0,0,1,351,531.1Z" transform="translate(-310.52 -491.62)"/><path class="cls-112" d="M356.78,530.9c.84.06,1.68.15,2.52.25l51.85-1.8V529Z" transform="translate(-310.52 -491.62)"/><path class="cls-113" d="M348.12,531.73l.86-.22-7.57.27v.34l6.23-.22C347.8,531.85,348,531.78,348.12,531.73Z" transform="translate(-310.52 -491.62)"/><path class="cls-113" d="M359.3,531.15l2,.28,49.86-1.74v-.34Z" transform="translate(-310.52 -491.62)"/><path class="cls-114" d="M361.29,531.43l.66.1,1.31.17L411.15,530v-.34Z" transform="translate(-310.52 -491.62)"/><path class="cls-114" d="M347.64,531.9l-6.23.22v.34l5.29-.18C347,532.14,347.32,532,347.64,531.9Z" transform="translate(-310.52 -491.62)"/><path class="cls-115" d="M346.7,532.28l-5.29.18v.35l4.54-.16C346.19,532.52,346.44,532.4,346.7,532.28Z" transform="translate(-310.52 -491.62)"/><path class="cls-115" d="M363.26,531.7c1,.12,2.05.2,3.07.24l44.82-1.56V530Z" transform="translate(-310.52 -491.62)"/><path class="cls-116" d="M346,532.65l-4.54.16v.34l3.95-.14C345.55,532.89,345.75,532.76,346,532.65Z" transform="translate(-310.52 -491.62)"/><path class="cls-116" d="M366.33,531.94c2.27.09,4.53,0,6.88,0,.68,0,1.35,0,2,0l35.92-1.25v-.34Z" transform="translate(-310.52 -491.62)"/><path class="cls-117" d="M345.36,533l-3.95.14v.34l3.45-.12Z" transform="translate(-310.52 -491.62)"/><path class="cls-117" d="M375.23,532c1,0,2,.12,3,.24l32.91-1.15v-.34Z" transform="translate(-310.52 -491.62)"/><path class="cls-118" d="M344.86,533.37l-3.45.12v.35l3-.11Z" transform="translate(-310.52 -491.62)"/><path class="cls-118" d="M378.24,532.21c.66.08,1.3.17,1.95.27l31-1.07v-.35Z" transform="translate(-310.52 -491.62)"/><path class="cls-119" d="M344.39,533.73l-3,.11v.34l2.61-.09Z" transform="translate(-310.52 -491.62)"/><path class="cls-119" d="M380.19,532.48l1.58.29,29.38-1v-.34Z" transform="translate(-310.52 -491.62)"/><path class="cls-120" d="M381.77,532.77l1.38.3,28-1v-.34Z" transform="translate(-310.52 -491.62)"/><path class="cls-121" d="M383.15,533.07l1.24.3,26.76-.94v-.34Z" transform="translate(-310.52 -491.62)"/><path class="cls-122" d="M384.39,533.37c.39.09.77.2,1.16.3l25.6-.89v-.35Z" transform="translate(-310.52 -491.62)"/><path class="cls-123" d="M385.55,533.67l1.11.3,24.49-.85v-.34Z" transform="translate(-310.52 -491.62)"/><path class="cls-124" d="M386.66,534l1,.31,23.46-.82v-.34Z" transform="translate(-310.52 -491.62)"/><path class="cls-125" d="M387.69,534.28l1,.31,22.45-.78v-.35Z" transform="translate(-310.52 -491.62)"/><path class="cls-126" d="M388.7,534.59l1,.31,21.48-.75v-.34Z" transform="translate(-310.52 -491.62)"/><path class="cls-127" d="M389.67,534.9l.94.31,20.54-.72v-.34Z" transform="translate(-310.52 -491.62)"/><path class="cls-128" d="M390.61,535.21l.94.31,19.6-.68v-.35Z" transform="translate(-310.52 -491.62)"/><path class="cls-129" d="M391.55,535.52l.91.31,18.69-.65v-.34Z" transform="translate(-310.52 -491.62)"/><path class="cls-130" d="M392.46,535.83l.9.31,17.79-.62v-.34Z" transform="translate(-310.52 -491.62)"/><path class="cls-131" d="M393.36,536.14l.9.31,16.89-.58v-.35Z" transform="translate(-310.52 -491.62)"/><path class="cls-132" d="M394.26,536.45l.89.32,16-.56v-.34Z" transform="translate(-310.52 -491.62)"/><path class="cls-133" d="M395.15,536.77l.89.31,15.11-.53v-.34Z" transform="translate(-310.52 -491.62)"/><path class="cls-134" d="M396,537.08l.9.31,14.21-.5v-.34Z" transform="translate(-310.52 -491.62)"/><path class="cls-135" d="M396.94,537.39l.9.31,13.31-.46v-.35Z" transform="translate(-310.52 -491.62)"/><path class="cls-136" d="M397.84,537.7l.91.31,12.4-.43v-.34Z" transform="translate(-310.52 -491.62)"/><path class="cls-137" d="M398.75,538l.76.26.14.06,11.5-.41v-.34Z" transform="translate(-310.52 -491.62)"/><path class="cls-138" d="M399.65,538.33c.28.09.55.2.81.31l10.69-.37v-.35Z" transform="translate(-310.52 -491.62)"/><path class="cls-139" d="M400.46,538.64c.23.1.44.21.65.32l10-.35v-.34Z" transform="translate(-310.52 -491.62)"/><path class="cls-140" d="M401.11,539l.59.32,9.45-.33v-.34Z" transform="translate(-310.52 -491.62)"/><path class="cls-141" d="M401.7,539.28l.5.33,8.95-.31V539Z" transform="translate(-310.52 -491.62)"/><path class="cls-142" d="M402.2,539.61a3.72,3.72,0,0,1,.45.33l8.5-.3v-.34Z" transform="translate(-310.52 -491.62)"/><path class="cls-143" d="M402.65,539.94a4.12,4.12,0,0,1,.4.33l8.1-.29v-.34Z" transform="translate(-310.52 -491.62)"/><path class="cls-144" d="M403.05,540.27a2.82,2.82,0,0,1,.36.33l7.74-.27V540Z" transform="translate(-310.52 -491.62)"/><path class="cls-145" d="M403.41,540.6l.33.33,7.41-.26v-.34Z" transform="translate(-310.52 -491.62)"/><path class="cls-146" d="M403.74,540.93l.3.33,7.11-.25v-.34Z" transform="translate(-310.52 -491.62)"/><path class="cls-147" d="M404,541.26l.26.33,6.85-.23V541Z" transform="translate(-310.52 -491.62)"/><path class="cls-148" d="M404.3,541.59c.09.12.18.22.26.34l6.59-.23v-.34Z" transform="translate(-310.52 -491.62)"/><path class="cls-149" d="M404.56,541.93l.21.33,6.38-.22v-.34Z" transform="translate(-310.52 -491.62)"/><path class="cls-149" d="M361,551.24c-2.52-.36-5.16-1.21-7.62-.47-5.91,1.79-10.16-1.76-11.61-6.31h-.35v7.11h23C363.28,551.51,362.14,551.4,361,551.24Z" transform="translate(-310.52 -491.62)"/><path class="cls-149" d="M404.77,542.26a10.83,10.83,0,0,1,.9,9.32h5.48V542Z" transform="translate(-310.52 -491.62)"/></g><path class="cls-2" d="M395,514.56a44.68,44.68,0,0,0-25.19-3.31c-6.44.57-14.71,2.18-21.61,9.62a19.52,19.52,0,0,0-5.32,14.64,8.34,8.34,0,0,1,.86-1.1,18.82,18.82,0,0,1,5.13-12.91c6.68-7.22,14.74-8.78,21.08-9.34a43.55,43.55,0,0,1,24.68,3.24c10.29,4.51,15.65,12.57,15.92,24a7.71,7.71,0,0,1-3.14,6.47,9.8,9.8,0,0,1-1.11.75c0,.34.06.68.07,1a13.07,13.07,0,0,0,1.61-1,8.65,8.65,0,0,0,3.49-7.22C411.13,527.56,405.59,519.22,395,514.56Z" transform="translate(-310.52 -491.62)"/><g class="cls-150"><polygon class="cls-151" points="64.87 2.44 62.53 2.52 62.53 2.44 64.87 2.44"/><polygon class="cls-152" points="68.72 2.44 62.53 2.65 62.53 2.52 64.87 2.44 68.72 2.44"/><polygon class="cls-153" points="72.57 2.44 62.53 2.79 62.53 2.65 68.72 2.44 72.57 2.44"/><polygon class="cls-154" points="76.42 2.44 62.53 2.92 62.53 2.79 72.57 2.44 76.42 2.44"/><polygon class="cls-155" points="78.15 2.51 62.53 3.06 62.53 2.92 76.42 2.44 78.15 2.44 78.15 2.51"/><polygon class="cls-46" points="78.15 2.65 62.53 3.19 62.53 3.06 78.15 2.51 78.15 2.65"/><polygon class="cls-47" points="78.15 2.78 62.53 3.32 62.53 3.19 78.15 2.65 78.15 2.78"/><polygon class="cls-48" points="78.15 2.91 62.53 3.46 62.53 3.32 78.15 2.78 78.15 2.91"/><polygon class="cls-49" points="78.15 3.05 62.53 3.59 62.53 3.46 78.15 2.91 78.15 3.05"/><polygon class="cls-50" points="78.15 3.18 62.53 3.73 62.53 3.59 78.15 3.05 78.15 3.18"/><polygon class="cls-51" points="78.15 3.32 62.53 3.86 62.53 3.73 78.15 3.18 78.15 3.32"/><polygon class="cls-52" points="78.15 3.45 62.53 4 62.53 3.86 78.15 3.32 78.15 3.45"/><polygon class="cls-53" points="78.15 3.58 62.53 4.13 62.53 4 78.15 3.45 78.15 3.58"/><polygon class="cls-54" points="78.15 3.72 62.53 4.26 62.53 4.13 78.15 3.58 78.15 3.72"/><polygon class="cls-55" points="78.15 3.85 62.53 4.4 62.53 4.26 78.15 3.72 78.15 3.85"/><polygon class="cls-56" points="78.15 3.99 62.53 4.53 62.53 4.4 78.15 3.85 78.15 3.99"/><polygon class="cls-57" points="78.15 4.12 62.53 4.67 62.53 4.53 78.15 3.99 78.15 4.12"/><polygon class="cls-58" points="78.15 4.26 62.53 4.8 62.53 4.67 78.15 4.12 78.15 4.26"/><polygon class="cls-59" points="78.15 4.39 62.53 4.93 62.53 4.8 78.15 4.26 78.15 4.39"/><polygon class="cls-60" points="78.15 4.52 62.53 5.07 62.53 4.93 78.15 4.39 78.15 4.52"/><polygon class="cls-61" points="78.15 4.66 62.53 5.2 62.53 5.07 78.15 4.52 78.15 4.66"/><polygon class="cls-62" points="78.15 4.79 62.53 5.34 62.53 5.2 78.15 4.66 78.15 4.79"/><polygon class="cls-63" points="78.15 4.93 62.53 5.47 62.53 5.34 78.15 4.79 78.15 4.93"/><polygon class="cls-64" points="78.15 5.06 62.53 5.61 62.53 5.47 78.15 4.93 78.15 5.06"/><polygon class="cls-65" points="78.15 5.2 62.53 5.74 62.53 5.61 78.15 5.06 78.15 5.2"/><polygon class="cls-66" points="78.15 5.33 62.53 5.87 62.53 5.74 78.15 5.2 78.15 5.33"/><polygon class="cls-67" points="78.15 5.46 62.53 6.01 62.53 5.87 78.15 5.33 78.15 5.46"/><polygon class="cls-68" points="78.15 5.6 62.53 6.14 62.53 6.01 78.15 5.46 78.15 5.6"/><polygon class="cls-69" points="78.15 5.73 62.53 6.28 62.53 6.14 78.15 5.6 78.15 5.73"/><polygon class="cls-70" points="78.15 5.87 62.53 6.41 62.53 6.28 78.15 5.73 78.15 5.87"/><polygon class="cls-71" points="78.15 6 62.53 6.54 62.53 6.41 78.15 5.87 78.15 6"/><polygon class="cls-72" points="78.15 6.13 62.53 6.68 62.53 6.54 78.15 6 78.15 6.13"/><polygon class="cls-73" points="78.15 6.27 62.53 6.81 62.53 6.68 78.15 6.13 78.15 6.27"/><polygon class="cls-74" points="78.15 6.4 62.53 6.95 62.53 6.81 78.15 6.27 78.15 6.4"/><polygon class="cls-75" points="78.15 6.54 62.53 7.08 62.53 6.95 78.15 6.4 78.15 6.54"/><polygon class="cls-76" points="78.15 6.67 62.53 7.22 62.53 7.08 78.15 6.54 78.15 6.67"/><polygon class="cls-77" points="78.15 6.81 62.53 7.35 62.53 7.22 78.15 6.67 78.15 6.81"/><polygon class="cls-78" points="78.15 6.94 62.53 7.49 62.53 7.35 78.15 6.81 78.15 6.94"/><polygon class="cls-79" points="78.15 7.08 62.53 7.62 62.53 7.49 78.15 6.94 78.15 7.08"/><polygon class="cls-80" points="78.15 7.21 62.53 7.75 62.53 7.62 78.15 7.08 78.15 7.21"/><polygon class="cls-81" points="78.15 7.34 62.53 7.89 62.53 7.75 78.15 7.21 78.15 7.34"/><polygon class="cls-82" points="78.15 7.48 62.53 8.02 62.53 7.89 78.15 7.34 78.15 7.48"/><polygon class="cls-83" points="78.15 7.61 62.53 8.16 62.53 8.02 78.15 7.48 78.15 7.61"/><polygon class="cls-84" points="78.15 7.75 62.53 8.29 62.53 8.16 78.15 7.61 78.15 7.75"/><polygon class="cls-85" points="78.15 7.88 62.53 8.42 62.53 8.29 78.15 7.75 78.15 7.88"/><polygon class="cls-86" points="78.15 8.01 62.53 8.56 62.53 8.42 78.15 7.88 78.15 8.01"/><polygon class="cls-87" points="78.15 8.15 62.53 8.69 62.53 8.56 78.15 8.01 78.15 8.15"/><polygon class="cls-88" points="78.15 8.28 62.53 8.83 62.53 8.69 78.15 8.15 78.15 8.28"/><polygon class="cls-89" points="78.15 8.42 62.53 8.96 62.53 8.83 78.15 8.28 78.15 8.42"/><polygon class="cls-90" points="78.15 8.55 62.53 9.1 62.53 8.96 78.15 8.42 78.15 8.55"/><polygon class="cls-91" points="78.15 8.69 62.53 9.23 62.53 9.1 78.15 8.55 78.15 8.69"/><polygon class="cls-92" points="78.15 8.82 62.53 9.36 62.53 9.23 78.15 8.69 78.15 8.82"/><polygon class="cls-93" points="78.15 8.95 62.53 9.5 62.53 9.36 78.15 8.82 78.15 8.95"/><polygon class="cls-94" points="78.15 9.09 62.53 9.63 62.53 9.5 78.15 8.95 78.15 9.09"/><polygon class="cls-95" points="78.15 9.22 62.53 9.77 62.53 9.63 78.15 9.09 78.15 9.22"/><polygon class="cls-96" points="78.15 9.36 62.53 9.9 62.53 9.77 78.15 9.22 78.15 9.36"/><polygon class="cls-97" points="78.15 9.49 62.53 10.04 62.53 9.9 78.15 9.36 78.15 9.49"/><polygon class="cls-98" points="78.15 9.63 62.53 10.17 62.53 10.04 78.15 9.49 78.15 9.63"/><polygon class="cls-99" points="78.15 9.76 62.53 10.3 62.53 10.17 78.15 9.63 78.15 9.76"/><polygon class="cls-100" points="78.15 9.89 62.53 10.44 62.53 10.3 78.15 9.76 78.15 9.89"/><polygon class="cls-101" points="78.15 10.03 62.53 10.57 62.53 10.44 78.15 9.89 78.15 10.03"/><polygon class="cls-102" points="78.15 10.16 62.53 10.71 62.53 10.57 78.15 10.03 78.15 10.16"/><polygon class="cls-103" points="78.15 10.3 62.53 10.84 62.53 10.71 78.15 10.16 78.15 10.3"/><polygon class="cls-104" points="78.15 10.43 62.53 10.97 62.53 10.84 78.15 10.3 78.15 10.43"/><polygon class="cls-105" points="78.15 10.56 62.53 11.11 62.53 10.97 78.15 10.43 78.15 10.56"/><polygon class="cls-106" points="78.15 10.7 62.53 11.24 62.53 11.11 78.15 10.56 78.15 10.7"/><polygon class="cls-107" points="78.15 10.83 62.53 11.38 62.53 11.24 78.15 10.7 78.15 10.83"/><polygon class="cls-108" points="78.15 10.97 62.53 11.51 62.53 11.38 78.15 10.83 78.15 10.97"/><polygon class="cls-109" points="78.15 11.1 62.53 11.65 62.53 11.51 78.15 10.97 78.15 11.1"/><polygon class="cls-110" points="78.15 11.24 62.53 11.78 62.53 11.65 78.15 11.1 78.15 11.24"/><polygon class="cls-111" points="78.15 11.37 62.53 11.91 62.53 11.78 78.15 11.24 78.15 11.37"/><polygon class="cls-112" points="78.15 11.51 62.53 12.05 62.53 11.91 78.15 11.37 78.15 11.51"/><polygon class="cls-113" points="78.15 11.64 62.53 12.18 62.53 12.05 78.15 11.51 78.15 11.64"/><polygon class="cls-114" points="78.15 11.77 62.53 12.32 62.53 12.18 78.15 11.64 78.15 11.77"/><polygon class="cls-115" points="78.15 11.91 62.53 12.45 62.53 12.32 78.15 11.77 78.15 11.91"/><polygon class="cls-116" points="78.15 12.04 62.53 12.59 62.53 12.45 78.15 11.91 78.15 12.04"/><polygon class="cls-117" points="78.15 12.18 62.53 12.72 62.53 12.59 78.15 12.04 78.15 12.18"/><polygon class="cls-118" points="78.15 12.31 62.53 12.85 62.53 12.72 78.15 12.18 78.15 12.31"/><polygon class="cls-119" points="78.15 12.44 62.53 12.99 62.53 12.85 78.15 12.31 78.15 12.44"/><polygon class="cls-120" points="78.15 12.58 62.53 13.12 62.53 12.99 78.15 12.44 78.15 12.58"/><polygon class="cls-121" points="78.15 12.71 62.53 13.26 62.53 13.12 78.15 12.58 78.15 12.71"/><polygon class="cls-122" points="78.15 12.85 62.53 13.39 62.53 13.26 78.15 12.71 78.15 12.85"/><polygon class="cls-123" points="78.15 12.98 62.53 13.53 62.53 13.39 78.15 12.85 78.15 12.98"/><polygon class="cls-124" points="78.15 13.12 62.53 13.66 62.53 13.53 78.15 12.98 78.15 13.12"/><polygon class="cls-125" points="78.15 13.25 62.53 13.79 62.53 13.66 78.15 13.12 78.15 13.25"/><polygon class="cls-126" points="78.15 13.38 62.53 13.93 62.53 13.79 78.15 13.25 78.15 13.38"/><polygon class="cls-127" points="78.15 13.52 62.53 14.06 62.53 13.93 78.15 13.38 78.15 13.52"/><polygon class="cls-128" points="78.15 13.65 62.53 14.2 62.53 14.06 78.15 13.52 78.15 13.65"/><polygon class="cls-129" points="78.15 13.79 62.53 14.33 62.53 14.2 78.15 13.65 78.15 13.79"/><polygon class="cls-130" points="78.15 13.92 62.53 14.46 62.53 14.33 78.15 13.79 78.15 13.92"/><polygon class="cls-131" points="78.15 14.05 62.53 14.6 62.53 14.46 78.15 13.92 78.15 14.05"/><polygon class="cls-132" points="78.15 14.19 62.53 14.73 62.53 14.6 78.15 14.05 78.15 14.19"/><polygon class="cls-133" points="78.15 14.32 62.53 14.87 62.53 14.73 78.15 14.19 78.15 14.32"/><polygon class="cls-134" points="78.15 14.46 62.53 15 62.53 14.87 78.15 14.32 78.15 14.46"/><polygon class="cls-135" points="78.15 14.59 62.53 15.14 62.53 15 78.15 14.46 78.15 14.59"/><polygon class="cls-136" points="78.15 14.73 62.53 15.27 62.53 15.14 78.15 14.59 78.15 14.73"/><polygon class="cls-137" points="78.15 14.86 62.53 15.4 62.53 15.27 78.15 14.73 78.15 14.86"/><polygon class="cls-138" points="78.15 14.99 62.53 15.54 62.53 15.4 78.15 14.86 78.15 14.99"/><polygon class="cls-139" points="78.15 15.13 62.53 15.67 62.53 15.54 78.15 14.99 78.15 15.13"/><polygon class="cls-140" points="78.15 15.26 62.53 15.81 62.53 15.67 78.15 15.13 78.15 15.26"/><polygon class="cls-141" points="78.15 15.4 62.53 15.94 62.53 15.81 78.15 15.26 78.15 15.4"/><polygon class="cls-142" points="78.15 15.53 62.53 16.08 62.53 15.94 78.15 15.4 78.15 15.53"/><polygon class="cls-143" points="78.15 15.67 62.53 16.21 62.53 16.08 78.15 15.53 78.15 15.67"/><polygon class="cls-144" points="78.15 15.8 62.53 16.34 62.53 16.21 78.15 15.67 78.15 15.8"/><polygon class="cls-145" points="78.15 15.94 62.53 16.48 62.53 16.34 78.15 15.8 78.15 15.94"/><polygon class="cls-146" points="78.15 16.07 62.53 16.61 62.53 16.48 78.15 15.94 78.15 16.07"/><polygon class="cls-147" points="78.15 16.2 62.53 16.75 62.53 16.61 78.15 16.07 78.15 16.2"/><polygon class="cls-148" points="78.15 16.34 62.53 16.88 62.53 16.75 78.15 16.2 78.15 16.34"/><polygon class="cls-149" points="78.15 16.47 62.53 17.02 62.53 16.88 78.15 16.34 78.15 16.47"/><polygon class="cls-149" points="62.53 17.02 78.15 16.47 78.15 19.52 62.53 19.52 62.53 17.02"/></g><path class="cls-2" d="M376.43,511.64l-.2-.1c-.5-.24-2.12-1.1-2-2.1.05-.51.48-.89,1.28-1.12l.06,0c.08,0,1.91-.47,2.18-5a24.42,24.42,0,0,0-.11-3.59c-.15-1.87-.27-3.34.66-4,.77-.56,2-.43,4.26.46,3.1,1.25,5,3.65,5,6.42a6.17,6.17,0,0,1-3.86,5.78c-4.67,2-7,3.16-7,3.17Zm-.72-2.44c-.54.16-.6.32-.6.32,0,.18.57.7,1.33,1.1.66-.32,2.94-1.39,6.86-3.09a5.28,5.28,0,0,0,3.31-4.93c0-2.39-1.69-4.47-4.43-5.57-1.78-.72-2.92-.92-3.38-.58s-.41,1.7-.28,3.21a26.15,26.15,0,0,1,.11,3.72C378.32,508.45,376.08,509.12,375.71,509.2Z" transform="translate(-310.52 -491.62)"/><g class="cls-156"><polygon class="cls-3" points="58.63 0 51.35 0.25 51.35 0 58.63 0"/><polygon class="cls-3" points="62.72 0 51.35 0.4 51.35 0.25 58.63 0 62.72 0"/><polygon class="cls-157" points="66.81 0 51.35 0.54 51.35 0.4 62.72 0 66.81 0"/><polygon class="cls-158" points="68.11 0.1 51.35 0.68 51.35 0.54 66.81 0 68.11 0 68.11 0.1"/><polygon class="cls-159" points="68.11 0.24 51.35 0.82 51.35 0.68 68.11 0.1 68.11 0.24"/><polygon class="cls-160" points="68.11 0.38 51.35 0.97 51.35 0.82 68.11 0.24 68.11 0.38"/><polygon class="cls-161" points="68.11 0.53 51.35 1.11 51.35 0.97 68.11 0.38 68.11 0.53"/><polygon class="cls-162" points="68.11 0.67 51.35 1.25 51.35 1.11 68.11 0.53 68.11 0.67"/><polygon class="cls-163" points="68.11 0.81 51.35 1.39 51.35 1.25 68.11 0.67 68.11 0.81"/><polygon class="cls-164" points="68.11 0.95 51.35 1.54 51.35 1.39 68.11 0.81 68.11 0.95"/><polygon class="cls-165" points="68.11 1.09 51.35 1.68 51.35 1.54 68.11 0.95 68.11 1.09"/><polygon class="cls-166" points="68.11 1.24 51.35 1.82 51.35 1.68 68.11 1.09 68.11 1.24"/><polygon class="cls-167" points="68.11 1.38 51.35 1.96 51.35 1.82 68.11 1.24 68.11 1.38"/><polygon class="cls-168" points="68.11 1.52 51.35 2.11 51.35 1.96 68.11 1.38 68.11 1.52"/><polygon class="cls-169" points="68.11 1.67 51.35 2.25 51.35 2.11 68.11 1.52 68.11 1.67"/><polygon class="cls-170" points="68.11 1.81 51.35 2.39 51.35 2.25 68.11 1.67 68.11 1.81"/><polygon class="cls-171" points="68.11 1.95 51.35 2.53 51.35 2.39 68.11 1.81 68.11 1.95"/><polygon class="cls-151" points="68.11 2.09 51.35 2.68 51.35 2.53 68.11 1.95 68.11 2.09"/><polygon class="cls-152" points="68.11 2.23 51.35 2.82 51.35 2.68 68.11 2.09 68.11 2.23"/><polygon class="cls-153" points="68.11 2.38 51.35 2.96 51.35 2.82 68.11 2.23 68.11 2.38"/><polygon class="cls-154" points="68.11 2.52 51.35 3.1 51.35 2.96 68.11 2.38 68.11 2.52"/><polygon class="cls-155" points="68.11 2.66 51.35 3.25 51.35 3.1 68.11 2.52 68.11 2.66"/><polygon class="cls-46" points="68.11 2.81 51.35 3.39 51.35 3.25 68.11 2.66 68.11 2.81"/><polygon class="cls-47" points="68.11 2.95 51.35 3.53 51.35 3.39 68.11 2.81 68.11 2.95"/><polygon class="cls-48" points="68.11 3.09 51.35 3.67 51.35 3.53 68.11 2.95 68.11 3.09"/><polygon class="cls-49" points="68.11 3.23 51.35 3.82 51.35 3.67 68.11 3.09 68.11 3.23"/><polygon class="cls-50" points="68.11 3.38 51.35 3.96 51.35 3.82 68.11 3.23 68.11 3.38"/><polygon class="cls-51" points="68.11 3.52 51.35 4.1 51.35 3.96 68.11 3.38 68.11 3.52"/><polygon class="cls-52" points="68.11 3.66 51.35 4.24 51.35 4.1 68.11 3.52 68.11 3.66"/><polygon class="cls-53" points="68.11 3.8 51.35 4.39 51.35 4.24 68.11 3.66 68.11 3.8"/><polygon class="cls-54" points="68.11 3.94 51.35 4.53 51.35 4.39 68.11 3.8 68.11 3.94"/><polygon class="cls-55" points="68.11 4.09 51.35 4.67 51.35 4.53 68.11 3.94 68.11 4.09"/><polygon class="cls-56" points="68.11 4.23 51.35 4.81 51.35 4.67 68.11 4.09 68.11 4.23"/><polygon class="cls-57" points="68.11 4.37 51.35 4.96 51.35 4.81 68.11 4.23 68.11 4.37"/><polygon class="cls-58" points="68.11 4.51 51.35 5.1 51.35 4.96 68.11 4.37 68.11 4.51"/><polygon class="cls-59" points="68.11 4.66 51.35 5.24 51.35 5.1 68.11 4.51 68.11 4.66"/><polygon class="cls-60" points="68.11 4.8 51.35 5.38 51.35 5.24 68.11 4.66 68.11 4.8"/><polygon class="cls-61" points="68.11 4.94 51.35 5.53 51.35 5.38 68.11 4.8 68.11 4.94"/><polygon class="cls-62" points="68.11 5.08 51.35 5.67 51.35 5.53 68.11 4.94 68.11 5.08"/><polygon class="cls-63" points="68.11 5.23 51.35 5.81 51.35 5.67 68.11 5.08 68.11 5.23"/><polygon class="cls-64" points="68.11 5.37 51.35 5.95 51.35 5.81 68.11 5.23 68.11 5.37"/><polygon class="cls-65" points="68.11 5.51 51.35 6.1 51.35 5.95 68.11 5.37 68.11 5.51"/><polygon class="cls-66" points="68.11 5.66 51.35 6.24 51.35 6.1 68.11 5.51 68.11 5.66"/><polygon class="cls-67" points="68.11 5.8 51.35 6.38 51.35 6.24 68.11 5.66 68.11 5.8"/><polygon class="cls-68" points="68.11 5.94 51.35 6.52 51.35 6.38 68.11 5.8 68.11 5.94"/><polygon class="cls-69" points="68.11 6.08 51.35 6.67 51.35 6.52 68.11 5.94 68.11 6.08"/><polygon class="cls-70" points="68.11 6.22 51.35 6.81 51.35 6.67 68.11 6.08 68.11 6.22"/><polygon class="cls-71" points="68.11 6.37 51.35 6.95 51.35 6.81 68.11 6.22 68.11 6.37"/><polygon class="cls-72" points="68.11 6.51 51.35 7.09 51.35 6.95 68.11 6.37 68.11 6.51"/><polygon class="cls-73" points="68.11 6.65 51.35 7.24 51.35 7.09 68.11 6.51 68.11 6.65"/><polygon class="cls-74" points="68.11 6.79 51.35 7.38 51.35 7.24 68.11 6.65 68.11 6.79"/><polygon class="cls-75" points="68.11 6.94 51.35 7.52 51.35 7.38 68.11 6.79 68.11 6.94"/><polygon class="cls-76" points="68.11 7.08 51.35 7.66 51.35 7.52 68.11 6.94 68.11 7.08"/><polygon class="cls-77" points="68.11 7.22 51.35 7.81 51.35 7.66 68.11 7.08 68.11 7.22"/><polygon class="cls-78" points="68.11 7.37 51.35 7.95 51.35 7.81 68.11 7.22 68.11 7.37"/><polygon class="cls-79" points="68.11 7.51 51.35 8.09 51.35 7.95 68.11 7.37 68.11 7.51"/><polygon class="cls-80" points="68.11 7.65 51.35 8.23 51.35 8.09 68.11 7.51 68.11 7.65"/><polygon class="cls-81" points="68.11 7.79 51.35 8.38 51.35 8.23 68.11 7.65 68.11 7.79"/><polygon class="cls-82" points="68.11 7.93 51.35 8.52 51.35 8.38 68.11 7.79 68.11 7.93"/><polygon class="cls-83" points="68.11 8.08 51.35 8.66 51.35 8.52 68.11 7.93 68.11 8.08"/><polygon class="cls-84" points="68.11 8.22 51.35 8.8 51.35 8.66 68.11 8.08 68.11 8.22"/><polygon class="cls-85" points="68.11 8.36 51.35 8.95 51.35 8.8 68.11 8.22 68.11 8.36"/><polygon class="cls-86" points="68.11 8.51 51.35 9.09 51.35 8.95 68.11 8.36 68.11 8.51"/><polygon class="cls-87" points="68.11 8.65 51.35 9.23 51.35 9.09 68.11 8.51 68.11 8.65"/><polygon class="cls-88" points="68.11 8.79 51.35 9.37 51.35 9.23 68.11 8.65 68.11 8.79"/><polygon class="cls-89" points="68.11 8.93 51.35 9.52 51.35 9.37 68.11 8.79 68.11 8.93"/><polygon class="cls-90" points="68.11 9.07 51.35 9.66 51.35 9.52 68.11 8.93 68.11 9.07"/><polygon class="cls-91" points="68.11 9.22 51.35 9.8 51.35 9.66 68.11 9.07 68.11 9.22"/><polygon class="cls-92" points="68.11 9.36 51.35 9.94 51.35 9.8 68.11 9.22 68.11 9.36"/><polygon class="cls-93" points="68.11 9.5 51.35 10.09 51.35 9.94 68.11 9.36 68.11 9.5"/><polygon class="cls-94" points="68.11 9.64 51.35 10.23 51.35 10.09 68.11 9.5 68.11 9.64"/><polygon class="cls-95" points="68.11 9.79 51.35 10.37 51.35 10.23 68.11 9.64 68.11 9.79"/><polygon class="cls-96" points="68.11 9.93 51.35 10.51 51.35 10.37 68.11 9.79 68.11 9.93"/><polygon class="cls-97" points="68.11 10.07 51.35 10.66 51.35 10.51 68.11 9.93 68.11 10.07"/><polygon class="cls-98" points="68.11 10.21 51.35 10.8 51.35 10.66 68.11 10.07 68.11 10.21"/><polygon class="cls-99" points="68.11 10.36 51.35 10.94 51.35 10.8 68.11 10.21 68.11 10.36"/><polygon class="cls-100" points="68.11 10.5 51.35 11.08 51.35 10.94 68.11 10.36 68.11 10.5"/><polygon class="cls-101" points="68.11 10.64 51.35 11.23 51.35 11.08 68.11 10.5 68.11 10.64"/><polygon class="cls-102" points="68.11 10.78 51.35 11.37 51.35 11.23 68.11 10.64 68.11 10.78"/><polygon class="cls-103" points="68.11 10.93 51.35 11.51 51.35 11.37 68.11 10.78 68.11 10.93"/><polygon class="cls-104" points="68.11 11.07 51.35 11.65 51.35 11.51 68.11 10.93 68.11 11.07"/><polygon class="cls-105" points="68.11 11.21 51.35 11.8 51.35 11.65 68.11 11.07 68.11 11.21"/><polygon class="cls-106" points="68.11 11.35 51.35 11.94 51.35 11.8 68.11 11.21 68.11 11.35"/><polygon class="cls-107" points="68.11 11.5 51.35 12.08 51.35 11.94 68.11 11.35 68.11 11.5"/><polygon class="cls-108" points="68.11 11.64 51.35 12.22 51.35 12.08 68.11 11.5 68.11 11.64"/><polygon class="cls-109" points="68.11 11.78 51.35 12.37 51.35 12.22 68.11 11.64 68.11 11.78"/><polygon class="cls-110" points="68.11 11.92 51.35 12.51 51.35 12.37 68.11 11.78 68.11 11.92"/><polygon class="cls-111" points="68.11 12.07 51.35 12.65 51.35 12.51 68.11 11.92 68.11 12.07"/><polygon class="cls-112" points="68.11 12.21 51.35 12.79 51.35 12.65 68.11 12.07 68.11 12.21"/><polygon class="cls-113" points="68.11 12.35 51.35 12.94 51.35 12.79 68.11 12.21 68.11 12.35"/><polygon class="cls-114" points="68.11 12.49 51.35 13.08 51.35 12.94 68.11 12.35 68.11 12.49"/><polygon class="cls-115" points="68.11 12.64 51.35 13.22 51.35 13.08 68.11 12.49 68.11 12.64"/><polygon class="cls-116" points="68.11 12.78 51.35 13.36 51.35 13.22 68.11 12.64 68.11 12.78"/><polygon class="cls-117" points="68.11 12.92 51.35 13.51 51.35 13.36 68.11 12.78 68.11 12.92"/><polygon class="cls-118" points="68.11 13.06 51.35 13.65 51.35 13.51 68.11 12.92 68.11 13.06"/><polygon class="cls-119" points="68.11 13.21 51.35 13.79 51.35 13.65 68.11 13.06 68.11 13.21"/><polygon class="cls-120" points="68.11 13.35 51.35 13.93 51.35 13.79 68.11 13.21 68.11 13.35"/><polygon class="cls-121" points="68.11 13.49 51.35 14.08 51.35 13.93 68.11 13.35 68.11 13.49"/><polygon class="cls-122" points="68.11 13.63 51.35 14.22 51.35 14.08 68.11 13.49 68.11 13.63"/><polygon class="cls-123" points="68.11 13.78 51.35 14.36 51.35 14.22 68.11 13.63 68.11 13.78"/><polygon class="cls-124" points="68.11 13.92 51.35 14.5 51.35 14.36 68.11 13.78 68.11 13.92"/><polygon class="cls-125" points="68.11 14.06 51.35 14.65 51.35 14.5 68.11 13.92 68.11 14.06"/><polygon class="cls-126" points="68.11 14.2 51.35 14.79 51.35 14.65 68.11 14.06 68.11 14.2"/><polygon class="cls-127" points="68.11 14.35 51.35 14.93 51.35 14.79 68.11 14.2 68.11 14.35"/><polygon class="cls-128" points="68.11 14.49 51.35 15.07 51.35 14.93 68.11 14.35 68.11 14.49"/><polygon class="cls-129" points="68.11 14.63 51.35 15.22 51.35 15.07 68.11 14.49 68.11 14.63"/><polygon class="cls-130" points="68.11 14.77 51.35 15.36 51.35 15.22 68.11 14.63 68.11 14.77"/><polygon class="cls-131" points="68.11 14.92 51.35 15.5 51.35 15.36 68.11 14.77 68.11 14.92"/><polygon class="cls-132" points="68.11 15.06 51.35 15.64 51.35 15.5 68.11 14.92 68.11 15.06"/><polygon class="cls-133" points="68.11 15.2 51.35 15.79 51.35 15.64 68.11 15.06 68.11 15.2"/><polygon class="cls-134" points="68.11 15.34 51.35 15.93 51.35 15.79 68.11 15.2 68.11 15.34"/><polygon class="cls-135" points="68.11 15.49 51.35 16.07 51.35 15.93 68.11 15.34 68.11 15.49"/><polygon class="cls-136" points="68.11 15.63 51.35 16.21 51.35 16.07 68.11 15.49 68.11 15.63"/><polygon class="cls-137" points="68.11 15.77 51.35 16.36 51.35 16.21 68.11 15.63 68.11 15.77"/><polygon class="cls-138" points="68.11 15.91 51.35 16.5 51.35 16.36 68.11 15.77 68.11 15.91"/><polygon class="cls-139" points="68.11 16.06 51.35 16.64 51.35 16.5 68.11 15.91 68.11 16.06"/><polygon class="cls-140" points="68.11 16.2 51.35 16.78 51.35 16.64 68.11 16.06 68.11 16.2"/><polygon class="cls-141" points="68.11 16.34 51.35 16.93 51.35 16.78 68.11 16.2 68.11 16.34"/><polygon class="cls-142" points="68.11 16.48 51.35 17.07 51.35 16.93 68.11 16.34 68.11 16.48"/><polygon class="cls-143" points="68.11 16.63 51.35 17.21 51.35 17.07 68.11 16.48 68.11 16.63"/><polygon class="cls-144" points="68.11 16.77 51.35 17.35 51.35 17.21 68.11 16.63 68.11 16.77"/><polygon class="cls-145" points="68.11 16.91 51.35 17.5 51.35 17.35 68.11 16.77 68.11 16.91"/><polygon class="cls-146" points="68.11 17.05 51.35 17.64 51.35 17.5 68.11 16.91 68.11 17.05"/><polygon class="cls-147" points="68.11 17.2 51.35 17.78 51.35 17.64 68.11 17.05 68.11 17.2"/><polygon class="cls-148" points="68.11 17.34 51.35 17.92 51.35 17.78 68.11 17.2 68.11 17.34"/><polygon class="cls-149" points="68.11 17.48 51.35 18.07 51.35 17.92 68.11 17.34 68.11 17.48"/><polygon class="cls-149" points="51.35 18.07 68.11 17.48 68.11 21.49 51.35 21.49 51.35 18.07"/></g><path class="cls-2" d="M375.85,512.43a5.19,5.19,0,0,1-1.61-.33c-.46-.12-6.92-1.88-8.83-6.18a6.75,6.75,0,0,1,.49-6.1c2.38-4.54,4.61-4.49,5.72-4.06,2.27.87,3.37,4.38,2.77,6.71-.76,2.95-.06,3.74.69,4.59a6.37,6.37,0,0,1,.51.63c2.21,3.17,1.59,4,1.38,4.27A1.31,1.31,0,0,1,375.85,512.43Zm-5.22-15.94c-1.26,0-2.63,1.3-3.92,3.76a5.89,5.89,0,0,0-.46,5.3c1.75,3.95,8.17,5.65,8.24,5.67h0c1.47.49,1.71.2,1.72.18.17-.23-.06-1.27-1.41-3.2a5.58,5.58,0,0,0-.44-.55c-.79-.89-1.77-2-.89-5.42.54-2.11-.59-5-2.21-5.63A1.88,1.88,0,0,0,370.63,496.49Z" transform="translate(-310.52 -491.62)"/><path class="cls-172" d="M363.66,545.11S351.87,546.44,347,543s-5.55-14.18,1.53-21.82,15.72-9,21.31-9.47a43.72,43.72,0,0,1,25,3.27c13.39,5.87,16,16.61,16.19,24.36s-9.51,12.24-23,8.56S373.52,544,363.66,545.11Z" transform="translate(-310.52 -491.62)"/><path class="cls-173" d="M375.6,508.76s2.26-.31,2.57-5.41-2.15-9.3,4.18-6.75,5.87,9.29,1.13,11.35-7.05,3.18-7.05,3.18S373.05,509.5,375.6,508.76Z" transform="translate(-310.52 -491.62)"/><path class="cls-174" d="M374.37,511.66s-12.5-3.21-8.07-11.63,8.64-1.55,7.64,2.33.47,4.44,1.27,5.59S378.63,513.11,374.37,511.66Z" transform="translate(-310.52 -491.62)"/><path class="cls-175" d="M379.28,512.49a1.35,1.35,0,0,0,0-.28c0-1.23-2.11-2.23-4.72-2.23s-4.73,1-4.73,2.23c0,0,0,0,0,.08A30.86,30.86,0,0,1,379.28,512.49Z" transform="translate(-310.52 -491.62)"/><path class="cls-176" d="M377.83,512.49s14.84,3.13,16.65,9.29S391.23,516.41,377.83,512.49Z" transform="translate(-310.52 -491.62)"/><path class="cls-176" d="M383.37,513s7.23.79,8.53,3.75S390,514.2,383.37,513Z" transform="translate(-310.52 -491.62)"/><path class="cls-176" d="M374.5,512.49s3.16,7.47,2.48,11.07S375,514.36,374.5,512.49Z" transform="translate(-310.52 -491.62)"/><path class="cls-176" d="M368.54,512.49s-11.73.6-14.1,7.74S356.39,514.62,368.54,512.49Z" transform="translate(-310.52 -491.62)"/><path class="cls-176" d="M371.93,512.49s-7.3.37-8.78,4.82S364.36,513.81,371.93,512.49Z" transform="translate(-310.52 -491.62)"/></g></svg>