<svg id="Layer_1" data-name="Layer 1" xmlns="http://www.w3.org/2000/svg" xmlns:xlink="http://www.w3.org/1999/xlink" viewBox="0 0 140.03 140.2"><defs><style>.cls-1{fill:none;}.cls-2{fill:#00aeef;}.cls-3{opacity:0.08;}.cls-4{fill:#fff;}.cls-5{clip-path:url(#clip-path);}.cls-6{fill:#e5b985;}.cls-7{fill:#de3a14;}.cls-8{fill:#333623;}.cls-9{fill:#34371f;}.cls-10{fill:#343620;}.cls-11{fill:#4f140e;}.cls-12{fill:#99e2fc;}.cls-13{fill:#90c6e7;}.cls-14{fill:#2289c2;}.cls-15{fill:#1d100a;}.cls-16{fill:#3e2f28;}.cls-17{fill:#88c6e7;}.cls-18{fill:#0c0a0c;}.cls-19{fill:#825a32;}.cls-20{fill:#2d2226;}.cls-21{fill:#0d0b0e;}.cls-22{fill:#0e0e13;}.cls-23{fill:#2e2228;}.cls-24{fill:#160e0d;}.cls-25{fill:#100a0a;}.cls-26{fill:#14090a;}.cls-27{fill:#eff2f8;}.cls-28{fill:#2c0b0d;}.cls-29{fill:#530e0e;}.cls-30{fill:#dc8194;}.cls-31{fill:#f6e6ee;}.cls-32{fill:#2e2f35;}.cls-33{fill:#ecf0f8;}.cls-34{fill:#302f35;}.cls-35{fill:#0d0b0b;}.cls-36{fill:#595e66;}.cls-37{fill:#2f2f33;}.cls-38{fill:#ebf2f9;}.cls-39{fill:#dec8bf;}.cls-40{fill:#e7eaf0;}.cls-41{fill:#585b64;}.cls-42{fill:#0a0a0d;}.cls-43{fill:#e1e6ee;}.cls-44{clip-path:url(#clip-path-2);}.cls-45{fill:#0899df;}.cls-46{fill:#0898df;}.cls-47{fill:#0997de;}.cls-48{fill:#0996dd;}.cls-49{fill:#0995dc;}.cls-50{fill:#0a94dc;}.cls-51{fill:#0a93db;}.cls-52{fill:#0a92da;}.cls-53{fill:#0b91d9;}.cls-54{fill:#0b90d9;}.cls-55{fill:#0c8fd8;}.cls-56{fill:#0c8ed7;}.cls-57{fill:#0c8dd6;}.cls-58{fill:#0d8cd6;}.cls-59{fill:#0d8bd5;}.cls-60{fill:#0d8ad4;}.cls-61{fill:#0e89d3;}.cls-62{fill:#0e88d3;}.cls-63{fill:#0e87d2;}.cls-64{fill:#0f86d1;}.cls-65{fill:#0f85d0;}.cls-66{fill:#1084d0;}.cls-67{fill:#1083cf;}.cls-68{fill:#1082ce;}.cls-69{fill:#1181cd;}.cls-70{fill:#1180cd;}.cls-71{fill:#117fcc;}.cls-72{fill:#127ecb;}.cls-73{fill:#127dca;}.cls-74{fill:#137cca;}.cls-75{fill:#137bc9;}.cls-76{fill:#137ac8;}.cls-77{fill:#1479c7;}.cls-78{fill:#1478c7;}.cls-79{fill:#1477c6;}.cls-80{fill:#1576c5;}.cls-81{fill:#1575c4;}.cls-82{fill:#1674c4;}.cls-83{fill:#1673c3;}.cls-84{fill:#1672c2;}.cls-85{fill:#1771c1;}.cls-86{fill:#1770c1;}.cls-87{fill:#176ec0;}.cls-88{fill:#186dbf;}.cls-89{fill:#186cbe;}.cls-90{fill:#186bbe;}.cls-91{fill:#196abd;}.cls-92{fill:#1969bc;}.cls-93{fill:#1a68bb;}.cls-94{fill:#1a67bb;}.cls-95{fill:#1a66ba;}.cls-96{fill:#1b65b9;}.cls-97{fill:#1b64b8;}.cls-98{fill:#1b63b8;}.cls-99{fill:#1c62b7;}.cls-100{fill:#1c61b6;}.cls-101{fill:#1d60b5;}.cls-102{fill:#1d5fb5;}.cls-103{fill:#1d5eb4;}.cls-104{fill:#1e5db3;}.cls-105{fill:#1e5cb2;}.cls-106{fill:#1e5bb2;}.cls-107{fill:#1f5ab1;}.cls-108{fill:#1f59b0;}.cls-109{fill:#2058af;}.cls-110{fill:#2057af;}.cls-111{fill:#2056ae;}.cls-112{fill:#2155ad;}.cls-113{fill:#2154ac;}.cls-114{fill:#2153ac;}.cls-115{fill:#2252ab;}.cls-116{fill:#2251aa;}.cls-117{fill:#2350a9;}.cls-118{fill:#234fa9;}.cls-119{fill:#234ea8;}.cls-120{fill:#244da7;}.cls-121{fill:#244ca6;}.cls-122{fill:#244ba6;}.cls-123{fill:#254aa5;}.cls-124{fill:#2549a4;}.cls-125{fill:#2548a3;}.cls-126{fill:#2647a3;}.cls-127{fill:#2646a2;}.cls-128{fill:#2745a1;}.cls-129{fill:#2744a0;}.cls-130{fill:#2743a0;}.cls-131{fill:#28429f;}.cls-132{fill:#28419e;}.cls-133{fill:#28409d;}.cls-134{fill:#293f9d;}.cls-135{fill:#293e9c;}.cls-136{fill:#2a3d9b;}.cls-137{fill:#2a3c9a;}.cls-138{fill:#2a3b9a;}.cls-139{fill:#2b3a99;}.cls-140{fill:#2b3998;}.cls-141{fill:#2b3897;}.cls-142{fill:#2c3797;}.cls-143{fill:#2c3696;}.cls-144{fill:#2d3595;}.cls-145{fill:#2d3494;}.cls-146{fill:#2d3394;}.cls-147{fill:#2e3293;}.cls-148{fill:#2e3192;}.cls-149{clip-path:url(#clip-path-3);}.cls-150{fill:#069ee3;}.cls-151{fill:#069de2;}.cls-152{fill:#079ce2;}.cls-153{fill:#079be1;}.cls-154{fill:#079ae0;}.cls-155{clip-path:url(#clip-path-4);}.cls-156{fill:#00adee;}.cls-157{fill:#01acee;}.cls-158{fill:#01abed;}.cls-159{fill:#01aaec;}.cls-160{fill:#02a9eb;}.cls-161{fill:#02a8eb;}.cls-162{fill:#03a7ea;}.cls-163{fill:#03a6e9;}.cls-164{fill:#03a5e8;}.cls-165{fill:#04a4e8;}.cls-166{fill:#04a3e7;}.cls-167{fill:#04a2e6;}.cls-168{fill:#05a1e5;}.cls-169{fill:#05a0e5;}.cls-170{fill:#069fe4;}.cls-171{fill:url(#linear-gradient);}.cls-172{fill:url(#linear-gradient-2);}.cls-173{fill:url(#linear-gradient-3);}.cls-174{fill:url(#linear-gradient-4);}.cls-175{fill:#2b3990;}</style><clipPath id="clip-path" transform="translate(-283.87 -489.09)"><path class="cls-1" d="M408.58,523.41a48.35,48.35,0,1,0-94.48,14.5,40.34,40.34,0,0,0,75.37,24A48.27,48.27,0,0,0,408.58,523.41Z"/></clipPath><clipPath id="clip-path-2" transform="translate(-283.87 -489.09)"><path class="cls-1" d="M343.66,542.58s-11.79,1.33-16.7-2.1-5.55-14.18,1.53-21.82,15.72-9,21.31-9.48a43.72,43.72,0,0,1,25,3.27c13.39,5.88,16,16.62,16.19,24.37s-9.51,12.24-23,8.55S353.52,541.49,343.66,542.58Z"/></clipPath><clipPath id="clip-path-3" transform="translate(-283.87 -489.09)"><path class="cls-1" d="M355.6,506.23s2.26-.31,2.57-5.4-2.15-9.3,4.18-6.76,5.87,9.3,1.13,11.35-7.05,3.19-7.05,3.19S353.05,507,355.6,506.23Z"/></clipPath><clipPath id="clip-path-4" transform="translate(-283.87 -489.09)"><path class="cls-1" d="M354.37,509.14s-12.5-3.22-8.07-11.63,8.64-1.55,7.64,2.32.47,4.44,1.27,5.59S358.63,510.58,354.37,509.14Z"/></clipPath><linearGradient id="linear-gradient" x1="355.82" y1="497.86" x2="357.32" y2="540.7" gradientUnits="userSpaceOnUse"><stop offset="0" stop-color="#00aeef"/><stop offset="1" stop-color="#2e3192"/></linearGradient><linearGradient id="linear-gradient-2" x1="360.35" y1="489.07" x2="360.94" y2="505.83" xlink:href="#linear-gradient"/><linearGradient id="linear-gradient-3" x1="350.5" y1="489.04" x2="351.12" y2="506.83" xlink:href="#linear-gradient"/><linearGradient id="linear-gradient-4" x1="354.48" y1="506.22" x2="354.65" y2="511.14" xlink:href="#linear-gradient"/></defs><title>dhobiaya logo1svg</title><path class="cls-2" d="M323.54,525.84c-4.52-5.27-11.68,5.63-10.47,18.76,1.93,20.91,19,32.1,19,32.1s-15.19-16.3-14.18-32.19C318.66,532.23,326,528.72,323.54,525.84Zm-2.14,1.27c-.36.85-1.08,1.11-1.71,1.69a12.07,12.07,0,0,0-2,2.39,39.31,39.31,0,0,0-2.62,5.28s0,0,0,0a23.41,23.41,0,0,1,2.19-6.68c.75-1.39,2-3.67,3.74-3.41A.57.57,0,0,1,321.4,527.11Z" transform="translate(-283.87 -489.09)"/><path class="cls-2" d="M390,565.52c5.45-15.61,2.32-32.33,2.32-32.33s.28,16.21-2.67,24.95c-3.94,11.66-10.88,13.45-9.77,16.77S386,576.8,390,565.52ZM381.91,574a12.44,12.44,0,0,0,3.53-2.2c.11-.11.28.12.18.27-1,1.33-1.87,3-3.23,3.62C381.61,576,381.13,574.32,381.91,574Z" transform="translate(-283.87 -489.09)"/><circle class="cls-2" cx="390.65" cy="531.87" r="6.95" transform="translate(-459.96 -295.31) rotate(-22.89)"/><path class="cls-2" d="M389.14,521.2s-.05,0-.05,0c0,2,.08,4-.11,6-.14,1.47-.63,2.5-2.21,2.92-.9.23-1.91.24-2.83.4a.06.06,0,0,0,0,.12c1.9.06,4.33.4,5.24-1.68C390.2,526.68,389.29,523.58,389.14,521.2Z" transform="translate(-283.87 -489.09)"/><path class="cls-2" d="M283.87,621.88V607.72a1.88,1.88,0,0,1,.55-1.41,1.91,1.91,0,0,1,1.41-.54H290a8.52,8.52,0,0,1,6.55,2.51,9.31,9.31,0,0,1,2.35,6.61,8.92,8.92,0,0,1-2.35,6.5,8.49,8.49,0,0,1-6.3,2.39h-4.4a2.33,2.33,0,0,1-1.39-.45A1.7,1.7,0,0,1,283.87,621.88Zm3.79-12.62v11h2.56a4.3,4.3,0,0,0,3.56-1.52,6.31,6.31,0,0,0,1.2-4,6.09,6.09,0,0,0-1.25-4,4.59,4.59,0,0,0-3.76-1.52Z" transform="translate(-283.87 -489.09)"/><path class="cls-2" d="M300.64,621.91V606.33a2.09,2.09,0,0,1,.51-1.47,1.71,1.71,0,0,1,1.32-.55,1.67,1.67,0,0,1,1.31.55,2.09,2.09,0,0,1,.51,1.47v5h0a4,4,0,0,1,3.27-1.26,5.06,5.06,0,0,1,3.63,1.31,4.68,4.68,0,0,1,1.39,3.59v7a2.08,2.08,0,0,1-.5,1.47,1.71,1.71,0,0,1-1.32.55,1.65,1.65,0,0,1-1.32-.55,2.13,2.13,0,0,1-.5-1.47v-6.35a2.41,2.41,0,0,0-.67-1.85,2.37,2.37,0,0,0-1.72-.65,2.17,2.17,0,0,0-1.7.71,2.61,2.61,0,0,0-.61,1.79v6.35a2.09,2.09,0,0,1-.51,1.47,1.71,1.71,0,0,1-1.32.55,1.68,1.68,0,0,1-1.32-.55A2.13,2.13,0,0,1,300.64,621.91Z" transform="translate(-283.87 -489.09)"/><path class="cls-2" d="M320.69,610a6,6,0,0,1,4.66,2.1,7.27,7.27,0,0,1,1.86,5,7.12,7.12,0,0,1-1.83,4.93,6.43,6.43,0,0,1-9.4,0,7.15,7.15,0,0,1-1.81-4.93,7.26,7.26,0,0,1,1.85-5A6,6,0,0,1,320.69,610Zm2.13,4.46a2.58,2.58,0,0,0-4.27,0,4.61,4.61,0,0,0-.74,2.58,4.56,4.56,0,0,0,.74,2.57,2.59,2.59,0,0,0,4.27,0,4.48,4.48,0,0,0,.74-2.57A4.54,4.54,0,0,0,322.82,614.49Z" transform="translate(-283.87 -489.09)"/><path class="cls-2" d="M328.75,621.91V606.33a2.09,2.09,0,0,1,.51-1.47,1.85,1.85,0,0,1,2.63,0,2.13,2.13,0,0,1,.5,1.47v5a5.16,5.16,0,0,1,3.46-1.26,5,5,0,0,1,4.31,2.16,8.31,8.31,0,0,1,1.57,4.95A7.62,7.62,0,0,1,340,622a5.31,5.31,0,0,1-4.31,2.07,4.54,4.54,0,0,1-1.92-.43,3.14,3.14,0,0,1-1.42-1.24,1.73,1.73,0,0,1-1.82,1.51,1.69,1.69,0,0,1-1.33-.55A2.12,2.12,0,0,1,328.75,621.91Zm4.38-7.49a4.38,4.38,0,0,0-.74,2.55,4.89,4.89,0,0,0,.73,2.64,2.32,2.32,0,0,0,2.08,1.15,2.43,2.43,0,0,0,2.12-1.13,4.44,4.44,0,0,0,.77-2.56,4.5,4.5,0,0,0-.77-2.57,2.55,2.55,0,0,0-4.19-.08Z" transform="translate(-283.87 -489.09)"/><path class="cls-2" d="M344.9,604.72a2,2,0,0,1,1.43.6,1.93,1.93,0,0,1,.61,1.43,2,2,0,0,1-.59,1.45,1.9,1.9,0,0,1-1.42.62,1.79,1.79,0,0,1-1.36-.65,2,2,0,0,1-.58-1.43,2.09,2.09,0,0,1,.54-1.41A1.77,1.77,0,0,1,344.9,604.72Zm-1.81,17.19V612.2a2.13,2.13,0,0,1,.5-1.47,1.72,1.72,0,0,1,1.33-.56,1.66,1.66,0,0,1,1.3.56,2.09,2.09,0,0,1,.51,1.47v9.71a2.09,2.09,0,0,1-.51,1.47,1.86,1.86,0,0,1-2.64,0A2.12,2.12,0,0,1,343.09,621.91Z" transform="translate(-283.87 -489.09)"/><path class="cls-2" d="M354.19,606.06a2.67,2.67,0,0,1,3.32,0,3.3,3.3,0,0,1,1,1.53l5,13.76a3.19,3.19,0,0,1,.2,1.1,1.35,1.35,0,0,1-.52,1,1.71,1.71,0,0,1-1.22.47,1.77,1.77,0,0,1-1.85-1.3l-.76-2.38h-7l-.77,2.35a1.73,1.73,0,0,1-1.81,1.33,2,2,0,0,1-1.33-.5,1.47,1.47,0,0,1-.55-1.09,2.85,2.85,0,0,1,.17-1l5.09-13.76A3.44,3.44,0,0,1,354.19,606.06Zm1.63,3.36-2.4,7.34h4.81l-2.36-7.34Z" transform="translate(-283.87 -489.09)"/><path class="cls-2" d="M363.25,611.64a1.32,1.32,0,0,1,.56-1,1.84,1.84,0,0,1,1.16-.46,1.81,1.81,0,0,1,1.83,1.3l2.49,6.85,2.68-6.85a1.85,1.85,0,0,1,3-.84,1.36,1.36,0,0,1,.56,1.06,2.31,2.31,0,0,1-.18,1l-6.1,15.18c-.38,1-1,1.44-1.71,1.43a2,2,0,0,1-1.4-.47,1.36,1.36,0,0,1-.51-1,3,3,0,0,1,.24-1.15l1.59-3.94-4-10A3,3,0,0,1,363.25,611.64Z" transform="translate(-283.87 -489.09)"/><path class="cls-2" d="M388.94,612.56v9q0,1.77-.75,2.16a2.28,2.28,0,0,1-1.07.21c-.86,0-1.41-.51-1.66-1.54a4.42,4.42,0,0,1-3.47,1.7,5.47,5.47,0,0,1-4.3-2,7.37,7.37,0,0,1-1.72-5,7.47,7.47,0,0,1,1.76-5.07,5.28,5.28,0,0,1,4.13-2,4.14,4.14,0,0,1,3.6,1.66,1.6,1.6,0,0,1,.58-1.08,1.67,1.67,0,0,1,1.13-.44c.85,0,1.37.29,1.55.87A4.94,4.94,0,0,1,388.94,612.56Zm-8.58,1.93a4.54,4.54,0,0,0-.74,2.58,4.48,4.48,0,0,0,.74,2.57,2.54,2.54,0,0,0,4.21,0,4.63,4.63,0,0,0,.73-2.57,4.68,4.68,0,0,0-.72-2.58,2.53,2.53,0,0,0-4.22,0Z" transform="translate(-283.87 -489.09)"/><path class="cls-2" d="M391.4,622.26A1.69,1.69,0,0,1,392,621a2,2,0,0,1,1.39-.53,2,2,0,0,1,1.4.53,1.69,1.69,0,0,1,.58,1.29,1.66,1.66,0,0,1-.58,1.29,2,2,0,0,1-1.4.53,2,2,0,0,1-1.39-.53A1.73,1.73,0,0,1,391.4,622.26Z" transform="translate(-283.87 -489.09)"/><path class="cls-2" d="M397.78,627.28V612.2a2.09,2.09,0,0,1,.51-1.47,1.69,1.69,0,0,1,1.31-.56,1.74,1.74,0,0,1,1.83,1.52,3,3,0,0,1,1.44-1.24,5.27,5.27,0,0,1,6.32,1.74,8.31,8.31,0,0,1,1.57,4.95,7.62,7.62,0,0,1-1.69,4.88,5.31,5.31,0,0,1-4.31,2.07,4.9,4.9,0,0,1-3.33-1.27v4.46a2.05,2.05,0,0,1-.51,1.47,1.73,1.73,0,0,1-1.32.54,1.7,1.7,0,0,1-1.32-.54A2.09,2.09,0,0,1,397.78,627.28Zm4.39-12.86a4.31,4.31,0,0,0-.74,2.55,4.89,4.89,0,0,0,.72,2.64,2.32,2.32,0,0,0,2.08,1.15,2.43,2.43,0,0,0,2.12-1.13,4.44,4.44,0,0,0,.77-2.56,4.5,4.5,0,0,0-.77-2.57,2.54,2.54,0,0,0-4.18-.08Z" transform="translate(-283.87 -489.09)"/><path class="cls-2" d="M412.29,621.91V606.33a2.09,2.09,0,0,1,.51-1.47,1.71,1.71,0,0,1,1.32-.55,1.67,1.67,0,0,1,1.31.55,2.09,2.09,0,0,1,.51,1.47v8.5l4-3.87a2.38,2.38,0,0,1,1.56-.79,1.55,1.55,0,0,1,1.2.51,1.78,1.78,0,0,1,.44,1.22,1.85,1.85,0,0,1-.71,1.36l-3.24,2.89,4.27,5a1.81,1.81,0,0,1,.46,1.23,1.68,1.68,0,0,1-.51,1.21,1.66,1.66,0,0,1-1.27.5c-.51,0-1.07-.37-1.69-1.12L416,617.48h-.05v4.43a2.09,2.09,0,0,1-.51,1.47,1.71,1.71,0,0,1-1.32.55,1.68,1.68,0,0,1-1.32-.55A2.13,2.13,0,0,1,412.29,621.91Z" transform="translate(-283.87 -489.09)"/><circle class="cls-2" cx="70.67" cy="58.07" r="38.35"/><circle class="cls-2" cx="70.67" cy="58.07" r="35.46"/><g class="cls-3"><path d="M387,553.26c.12,5.32-3.66,9.83-6.23,14.21-1.35-2-2.79-4.05-4.17-6-4.66-6.43-11.18-19.86-11.18-19.86l3.2,1.26a57,57,0,0,0,4.32-4.32c4.09-4.56,3.43-5.72,3.43-5.72s-10.88-8.86-14.58-9.72-10.18,1.7-10.18,1.7a17.58,17.58,0,0,1-5.32.06l-1.44-.2a7.74,7.74,0,0,1,.54,6,10.16,10.16,0,0,1-4.23,5.49h0l-.23.14-.24.12h0a10.2,10.2,0,0,1-6.88.82,7.77,7.77,0,0,1-4.92-3.56l-.56,1.33a17.48,17.48,0,0,1-2.78,4.54,29.64,29.64,0,0,0-5.6,5.76c.31,2.64.77,5.27,1,7.92.36,1,.74,2,1.15,2.91,1.18,2.3,2.53,4.53,3.9,6.74a25.55,25.55,0,0,0,6-2,.06.06,0,0,1,.06.1,17.83,17.83,0,0,1-5.81,2.24l.93,1.51c3.07-.64,5.15-1.32,5.15-1.32l.55-3.4s5.07,7.74,8.75,14.6l-.48-.34c-1.18-.78-2.45-1.42-3.64-2.18-.05,0-.09,0-.05.06a36.47,36.47,0,0,0,3.11,2.85,9.59,9.59,0,0,0,2.83,1.68.22.22,0,0,0,.18,0A30.29,30.29,0,0,0,361,578.83a49.23,49.23,0,0,1-10.23.45c-2.37-.13-5.43-.32-7.65-1.61.34.72.66,1.4.94,2.05a21.52,21.52,0,0,1,2.23.46,54.91,54.91,0,0,0,7,.53l3.29-.05,1.85-.47a.3.3,0,0,0,.11.28,1.46,1.46,0,0,0,1.86,0,.36.36,0,0,0,.14-.25.58.58,0,0,0,.19.37h0a.51.51,0,0,0,.43.1l.48-.1H363l.6-.17c1.34-.4,2.66-.85,4-1.35-.11,0-.22,0-.33,0a.42.42,0,0,0,.18-.17,10.37,10.37,0,0,0,3.21-1.66l1.19-.3a.23.23,0,0,1,.24.07,47.87,47.87,0,0,0,10.17-7.29c-.13-.2-.27-.4-.4-.61-2.19,2.72-6.08,4.78-8.52,6.37-.09,0-.18-.07-.1-.13a49.62,49.62,0,0,0,7.55-6.43,3.26,3.26,0,0,0,.77-.84c.09-.15.24-.37.34-.58A16,16,0,0,0,385,562c1-2.7,2.39-5.81,2-8.74A0,0,0,0,0,387,553.26ZM371.17,538a20.16,20.16,0,0,0,3.39-5.31c0-.07.14,0,.11,0A14.43,14.43,0,0,1,372,537.5c-1.16,1.45-2.34,3.33-4,4.23,0,0,0,0,0,0A27.43,27.43,0,0,0,371.17,538Zm-38.38,20.36c-1.14-3-3.05-5.24-5-7.76-1.63-2.15-3.19-4.41-5.83-5.29,0,0,0,0,0,0a3.64,3.64,0,0,0-1.27-.13c-.06,0-.06-.08,0-.1a3,3,0,0,1,1.66.08c2.09-.54,4.63,2.35,5.75,3.67a20.51,20.51,0,0,1,4.92,9.48A.13.13,0,0,1,332.79,558.39Zm7.5-19.26c-3.41,1.3-9.54,1.15-11.71-2.3a0,0,0,0,1,0,0c2.58,3.13,7.92,3.1,11.38,1.68,4.45-1.82,8-6.32,7.34-11.29a.09.09,0,0,1,.17,0C348.73,532.22,344.85,537.38,340.29,539.13Zm21.16,34,0,0a1.09,1.09,0,0,1-.74.84l-.11,0a.78.78,0,0,1-.27.09.79.79,0,0,1-.65-.22.89.89,0,0,1-.29-.26,1,1,0,0,1-.16-.86v0a.92.92,0,0,1,.29-.65l.06-.09a.79.79,0,0,1,.59-.31.82.82,0,0,1,.79.1,1.13,1.13,0,0,1,.36.36.8.8,0,0,1,.25.47A.89.89,0,0,1,361.45,573.15Zm1.46,5.34c1-.21,2-.44,2.94-.72,0,0,0,0,0,0C364.88,578.06,363.9,578.29,362.91,578.49Zm2.74-4.64a.18.18,0,0,1-.19.25,2.06,2.06,0,0,1-.26,0h0s0,0,0,0a.31.31,0,0,1-.18-.33.48.48,0,0,1,.08-.16.33.33,0,0,1,.56.07l0,0a.2.2,0,0,1,.06.23Zm-2-13.64c-.69,2-3.08,2.26-4.91,2.15a0,0,0,0,1,0-.09c2.23-.62,4.54-.67,4.73-3.53.11-1.54-.29-3.06-.18-4.61,0-.06.11,0,.11,0C363.43,556.12,364.32,558.26,363.64,560.21Zm.32-20.42a31.82,31.82,0,0,1-5.74-8.27c-.87-1.71-3-5.52-1.19-7.28a0,0,0,0,1,.07.06c-1.63,2.47,1,6.42,2.25,8.54a51.87,51.87,0,0,0,4.74,6.82C364.17,539.75,364,539.88,364,539.79Z" transform="translate(-283.87 -489.09)"/></g><circle class="cls-4" cx="76.93" cy="76.69" r="7.19"/><circle class="cls-4" cx="70.67" cy="58.07" r="35.46"/><g class="cls-5"><path class="cls-6" d="M368.67,584.66h-9.3a5.92,5.92,0,0,1-.49-2.23,23.56,23.56,0,0,0-.37-2.48,3.86,3.86,0,0,1,.71-3.34,5.64,5.64,0,0,1,4.49-2.34,3.85,3.85,0,0,1,3.22,1.11.77.77,0,0,0,.38.31.41.41,0,0,1,.13.1.81.81,0,0,1,.23.66,9.25,9.25,0,0,0,.44,1.62,12.31,12.31,0,0,1,.35,1.77,37,37,0,0,1,.38,4.2C368.83,584.26,368.86,584.48,368.67,584.66Z" transform="translate(-283.87 -489.09)"/><path class="cls-7" d="M342,584.66l.11-.34a1.73,1.73,0,0,1,1.25-.32c1.64,0,3.28.07,4.92,0,2.15,0,4.31,0,6.46,0,1.4,0,2.8,0,4.2-.06.33.2.3.44.11.72Z" transform="translate(-283.87 -489.09)"/><path class="cls-6" d="M367.78,576.69a22.53,22.53,0,0,1,1.17,6c.06.64,0,1.29.05,1.94h-.33a34.08,34.08,0,0,0-.59-6,4.52,4.52,0,0,0-.55-1.76.44.44,0,0,1,0-.52C367.85,576.31,367.71,576.56,367.78,576.69Z" transform="translate(-283.87 -489.09)"/><path class="cls-6" d="M359,584.66a1.39,1.39,0,0,0-.09-.7.6.6,0,0,1-.28-.51c-.08-1-.27-1.89-.28-2.85a.79.79,0,0,1,.21-.71c.15,0,.2.13.21.28a33.15,33.15,0,0,0,.56,4.32,1,1,0,0,1,0,.17Z" transform="translate(-283.87 -489.09)"/><path class="cls-7" d="M367.06,575.31a2.33,2.33,0,0,0-.37-.67c-.43-.53-.89-1-1.31-1.59a2,2,0,0,0-.33-.38,11.34,11.34,0,0,0-5.53-2.71c-.25-.05-.51-.13-.74.06a3.16,3.16,0,0,1-2.34,2.14,12,12,0,0,1-3,.63,1.21,1.21,0,0,0-1.06.76c-.38.78-.76,1.56-1.07,2.37a53.16,53.16,0,0,0-2.29,7.26c.05-.44.22-.87.25-1.32.21-2.62.62-5.2,1-7.79.2-1.3.22-1.3-1-2a1.11,1.11,0,0,1-.6-1.52c.07-.22.23-.42.17-.68a.42.42,0,0,0-.55-.16c-.12,0,.05.17-.05.19a4.11,4.11,0,0,0-2.67,1.8,11.42,11.42,0,0,0-1.6,3.15c-.47,1.28-.77,2.61-1.17,3.92l-.18,0a1.11,1.11,0,0,1,.06.57c.11.08.14.18.09.42a22,22,0,0,0-.71,4.48c.3.14.55-.12.85-.12,2.24,0,4.49,0,6.73,0h8.79c.2,0,.42,0,.48-.25a25.22,25.22,0,0,1-.35-4.07,5,5,0,0,1,.08-1.81,5.07,5.07,0,0,1,3.83-3.45c1.61-.36,3.15-.35,4.4,1C367.11,575.57,367.1,575.43,367.06,575.31Z" transform="translate(-283.87 -489.09)"/><path class="cls-6" d="M343,579.09a8.82,8.82,0,0,1-2.95-1.28l-.48-.26a61.7,61.7,0,0,1-4.78-3.91c-.16-.15-.3-.32-.46-.48l0-.07c.1-.14.2-.27.39-.18A39.31,39.31,0,0,0,339.6,577a13.6,13.6,0,0,0,3,1.71C342.79,578.75,343.09,578.75,343,579.09Z" transform="translate(-283.87 -489.09)"/><path class="cls-7" d="M367.15,575.35c0,.15.07.3.11.44a.31.31,0,0,1-.35-.21c0-.63-.49-1-.8-1.4s-.58-.7-.87-1a.28.28,0,0,1,.4,0,5,5,0,0,1,1.49,1.86A.4.4,0,0,1,367.15,575.35Z" transform="translate(-283.87 -489.09)"/><path class="cls-6" d="M346,569.83a10.59,10.59,0,0,1,2.32,0c0,.07.25.14,0,.21-2.18.65-3.13,2.42-3.9,4.33a35.13,35.13,0,0,0-1.42,4.72c-.08-.32-.4-.22-.59-.3a24.12,24.12,0,0,1-4.83-3.14,31.3,31.3,0,0,1-2.6-2.29.67.67,0,0,1-.31-.44.33.33,0,0,1,0-.32,15.48,15.48,0,0,1,1.54-2.34.4.4,0,0,1,.58-.11c.34.22.55.07.75-.19a4,4,0,0,1,.54-.62c.28-.26.5-.5.13-.87a.31.31,0,0,1,0-.41,8,8,0,0,1,2-2,1.42,1.42,0,0,1,.89.41c1.53,1.07,3.13,2.06,4.58,3.25C345.76,569.78,345.84,569.88,346,569.83Z" transform="translate(-283.87 -489.09)"/><path class="cls-6" d="M348.86,569.93c.37-.18.86,0,1.18-.34a.88.88,0,0,1,.5-.12,14.82,14.82,0,0,0,6-.76,1.18,1.18,0,0,1,.64-.11c.28.1.35.35.44.59s0,.34.23.41.76.06,1,.45c.17.69-.28,1.12-.73,1.47a7.33,7.33,0,0,1-4,1.37,1.91,1.91,0,0,0-1.83,1.22,69.52,69.52,0,0,0-2.74,7.64c-.2.63-.38,1.26-.63,1.88.1-1.17.18-2.34.33-3.49.25-2,.57-4,.84-6,.06-.45.39-.94.18-1.33s-.76-.38-1.14-.6C348.25,571.77,348.16,570.92,348.86,569.93Z" transform="translate(-283.87 -489.09)"/><path class="cls-8" d="M353.4,575.59c0,.3-.17.51-.47.51a.46.46,0,0,1-.48-.5.45.45,0,0,1,.47-.5C353.26,575.1,353.37,575.31,353.4,575.59Z" transform="translate(-283.87 -489.09)"/><path class="cls-9" d="M351.74,578.35c.37,0,.53.18.54.47a.44.44,0,0,1-.44.52.44.44,0,0,1-.49-.47C351.35,578.57,351.47,578.37,351.74,578.35Z" transform="translate(-283.87 -489.09)"/><path class="cls-10" d="M351.09,582.25c0,.27-.17.5-.48.49a.46.46,0,0,1-.46-.51.43.43,0,0,1,.47-.48C350.94,581.75,351.06,582,351.09,582.25Z" transform="translate(-283.87 -489.09)"/><path class="cls-11" d="M340.21,566.16a20.18,20.18,0,0,0-1.77,1.81c-.2.22-.25.4,0,.58s.22.38,0,.6c-.36.37-.69.76-1,1.16-.2.24-.38.33-.61.05s-.39-.18-.57.06a20.47,20.47,0,0,0-1.61,2.5c-.1.05-.11.24-.28.19l.08-.28a1,1,0,0,1,.19-.67,12.92,12.92,0,0,1,1-1.55c.22-.3.45-.58.3-1a.55.55,0,0,1,.14-.47,12.26,12.26,0,0,1,1-1.18.55.55,0,0,1,.52-.26c.45.11.66-.18.93-.43.5-.47.89-1.09,1.61-1.29C340.17,566,340.24,566.05,340.21,566.16Z" transform="translate(-283.87 -489.09)"/><path class="cls-6" d="M340.1,566a13.74,13.74,0,0,0-1.84,1.74c-.16.18-.28.34-.52.1s-.34,0-.47.1c-.39.44-.77.89-1.15,1.34-.07.08-.18.21-.09.29.42.4.05.65-.16.92-.54.72-.94,1.53-1.41,2.3a46.28,46.28,0,0,1-5-5.32,6.9,6.9,0,0,0-1.25-1.45l-.12,0c-.53-.14-.56-.68-.84-1a3.81,3.81,0,0,1-.17-2.64,18.4,18.4,0,0,0,.37-3.06,23.3,23.3,0,0,1,.33-2.35,33.2,33.2,0,0,1,.76-3.67,36.89,36.89,0,0,1,3.11-9.13,2.62,2.62,0,0,0,.05-1.24c.06-.38-.15-.83.26-1.13a11.47,11.47,0,0,1,1.76,0,18.28,18.28,0,0,0,3.38-.27,13.7,13.7,0,0,1,1.57-.17c.46,0,.52.19.36.62s-.63.7-1,1c-.54.45-1,1-1.51,1.45a.85.85,0,0,0-.19.67c0,.83,0,1.66,0,2.49a34.21,34.21,0,0,1-.14,4.3c-.09.91-.12,1.82-.24,2.73a55.15,55.15,0,0,1-.94,6.14c-.14.68-.11,1.21.58,1.58a5.49,5.49,0,0,1,.81.65,20.94,20.94,0,0,0,2.23,1.75l1.29,1C340.1,565.78,340.23,565.87,340.1,566Z" transform="translate(-283.87 -489.09)"/><path class="cls-12" d="M349.52,540.92h.19c.45.14.92,0,1.36.11a.06.06,0,0,0,.08,0c.48.15,1-.06,1.47.12.83.1,1.66.24,2.5.31,2,.17,3.92.52,5.87.84l2.91.5c.33.13.71,0,1,.21l.19,0c.37.12.78,0,1.14.21.53.23,1.13.17,1.67.36a.84.84,0,0,1,.52.28,20.78,20.78,0,0,1,1.66,2.2,2.69,2.69,0,0,1,.41,1.74.76.76,0,0,1-.74.7c-.43.05-.87-.11-.91-.53a3,3,0,0,0-1.05-1.73,2.47,2.47,0,0,1,.83,1.69c0,.26,0,.55-.24.7s-.5,0-.71-.14a55.65,55.65,0,0,0-5.07-2.94,21.11,21.11,0,0,0-6.88-2.31,35.08,35.08,0,0,0-5.12-.38,18.85,18.85,0,0,0-4.16.44,4.18,4.18,0,0,0-1.28.51,1.24,1.24,0,0,1-.34.18c-.42.1-.85.19-1.19-.18a1.14,1.14,0,0,1,0-1.25,3.39,3.39,0,0,1,.8-.89,5,5,0,0,1,2-.83C347.49,540.9,348.51,540.78,349.52,540.92Z" transform="translate(-283.87 -489.09)"/><path class="cls-13" d="M344.53,541.8a8,8,0,0,0-.72.82.92.92,0,0,0,0,1.14.84.84,0,0,0,1.08,0,7.3,7.3,0,0,1,3.78-1,24.67,24.67,0,0,1,3-.13,28.71,28.71,0,0,1,6.85.94,23.62,23.62,0,0,1,4.37,1.86,54.42,54.42,0,0,1,5,2.93c.48.31.57.24.61-.32a2.84,2.84,0,0,0-.89-1.9,3,3,0,0,0-.5-.43,2.53,2.53,0,0,1,1.89,2,.55.55,0,0,0,.59.63c.35,0,.76,0,.78-.56a2.7,2.7,0,0,0-.42-1.67,19.51,19.51,0,0,0-2-2.53c.22-.07.43.09.65.08a.21.21,0,0,1,.24,0c.42.54.82,1.08,1.22,1.62a5.56,5.56,0,0,1,.85,1.66,2,2,0,0,1-.25,1.64.89.89,0,0,1-.86.39,1.63,1.63,0,0,0-1.09.27.57.57,0,0,1-.58,0,3.62,3.62,0,0,0-.8-.21c-.46-.33-.88-.72-1.35-1a4.94,4.94,0,0,0-.92-.54c-.64-.43-1.39-.65-2-1.05a17,17,0,0,0-1.77-1,20.89,20.89,0,0,0-6.55-1.9,23.21,23.21,0,0,0-7.53.12c-.43.09-.84.28-1.26.41a1.65,1.65,0,0,0-.73.35c-.23.13-.45.27-.72.11,0,0,0-.08-.06-.08-.61-.1-1.06-.32-1-1.06A1.44,1.44,0,0,1,344,542a.3.3,0,0,0,0-.1c.26-.12,0-.46.23-.58S344.57,541.55,344.53,541.8Z" transform="translate(-283.87 -489.09)"/><path class="cls-6" d="M336,554.56a12.41,12.41,0,0,1,0-1.93c.42-2.6.1-5.21.21-7.81a.61.61,0,0,1,.15-.51c.55-.5,1.05-1.07,1.63-1.55.32-.27.74-.47.94-.92s.05-.39-.24-.37a28.76,28.76,0,0,0-3.06.39,11.63,11.63,0,0,1-1.87,0c0-.22.13-.28.31-.32a8.84,8.84,0,0,0,2.67-.3,14.08,14.08,0,0,0,2.35-.25h.68c.22.59-.3.89-.59,1.18-.75.77-1.56,1.49-2.36,2.21a.82.82,0,0,0-.34.74c0,1.4,0,2.79,0,4.19,0,.18.06.36-.05.53A43.07,43.07,0,0,1,336,554.56Z" transform="translate(-283.87 -489.09)"/><path class="cls-14" d="M349.52,540.92H346.3a5.16,5.16,0,0,1-1.83.21c-.29,0-.6,0-.82-.23v-.1h5.24C349.1,540.81,349.34,540.74,349.52,540.92Z" transform="translate(-283.87 -489.09)"/><path class="cls-14" d="M366.24,543.24a2.34,2.34,0,0,1-1.14-.21C365.47,543.12,365.93,542.78,366.24,543.24Z" transform="translate(-283.87 -489.09)"/><path class="cls-14" d="M352.62,541.15a5.59,5.59,0,0,1-1.47-.12C351.64,541.07,352.15,540.9,352.62,541.15Z" transform="translate(-283.87 -489.09)"/><path class="cls-14" d="M351.07,541a4.13,4.13,0,0,1-1.36-.11C350.16,541,350.63,540.79,351.07,541Z" transform="translate(-283.87 -489.09)"/><path class="cls-14" d="M364.91,543a3.5,3.5,0,0,1-1-.21C364.24,542.88,364.64,542.6,364.91,543Z" transform="translate(-283.87 -489.09)"/><path class="cls-6" d="M339.54,561.63a7.37,7.37,0,0,1,.23-3.55h.05a.77.77,0,0,0,.92.5c.38-.06.8.15,1.15-.21.19-.19.34,0,.45.15a3.42,3.42,0,0,0,1.14,1.16c.32.15.32.61.42.93a3.06,3.06,0,0,0,.67,1.13,2.26,2.26,0,0,1,.68,1c.05.24.21.2.38.14a1.23,1.23,0,0,1,.77.12c.83.24,1.64.75,2.56.32a.63.63,0,0,1,.38-.07c.68.13,1.25-.25,1.87-.37a.51.51,0,0,0,.36-.24,8,8,0,0,1,2-1.91c.17-.13.33-.22.27-.48-.08-.45.21-.54.56-.55s.69.15.73-.41c0-.19.29-.2.48-.15a1.41,1.41,0,0,0,1.35-.22c.28-.21.68-.1,1-.07.17,0,.38.12.42-.19s-.19-.43-.36-.58a5.06,5.06,0,0,0-4.33-1.57.44.44,0,0,1-.37,0c-.14-.25.05-.37.18-.52a1.07,1.07,0,0,0-.51-1.79,1.28,1.28,0,0,0-1.28.25,1.28,1.28,0,0,1,2.11.79,1.2,1.2,0,0,1-.79,1.16,14.31,14.31,0,0,1-6.54,1.92,2.43,2.43,0,0,1-2.35-2.88,3.22,3.22,0,0,1,.57-1.43,32.93,32.93,0,0,1,2.14-2.73l.11-.12c.64-.47,1-1.21,1.62-1.73.18-.15.33-.34.57-.51-.29,0-.35-.18-.42-.37a1,1,0,0,0-.89-.64,2.42,2.42,0,0,0-2.89,1.55c-.05.1-.11.19-.24.19a.26.26,0,0,1-.18-.17c-.05-.35.16-.68.12-1,.14-1.11.3-2.22.5-3.33a1.54,1.54,0,0,1,.36-.79,3.87,3.87,0,0,1,1.5-.54,19.43,19.43,0,0,1,6-.21,30.43,30.43,0,0,1,6.13,1.16c.52.16,1,.39,1.54.59a.7.7,0,0,1,.52.79,4.65,4.65,0,0,0-.29,1.29,2.07,2.07,0,0,0,.38,1.08,5.2,5.2,0,0,1,.37,5.36c-.23.52-.4,1.07-.61,1.6s0,.57.37.67c.78.19,1.23.09,1.57-.39a12,12,0,0,0,.56-1.4l.06-.15a17.59,17.59,0,0,1,1.19-2.57,3.34,3.34,0,0,1,.25-.4,3.41,3.41,0,0,1,1.43-1.36l.16,0a1.73,1.73,0,0,1,1.86,1.14,3.85,3.85,0,0,1-.79,4.26,2.19,2.19,0,0,1-2.5.3c0-.08-.11,0,0,0a5.7,5.7,0,0,1-.32,1.57c-.54,1.46-1.12,2.91-1.78,4.33a16.36,16.36,0,0,1-2.61,4.19,13.47,13.47,0,0,1-3.34,2.49,9.38,9.38,0,0,1-4,1,20.19,20.19,0,0,1-2.91,0,22.08,22.08,0,0,1-3-.36,10.71,10.71,0,0,1-4.22-2c-.49-.42-.95-.86-1.42-1.3a7.1,7.1,0,0,1-1.95-3.63s0,0,0,0S339.57,561.61,339.54,561.63Z" transform="translate(-283.87 -489.09)"/><path class="cls-6" d="M358.6,558.67c0,.39,0,.6-.55.37a.94.94,0,0,0-1.2.19c-.28.32-.71.19-1.09.1s-.7-.33-.48.33c.05.16-.06.19-.18.19h-.55c-.36,0-.81-.07-.42.53a.23.23,0,0,1-.15.35c-.41.12-.61.53-.94.7a4.27,4.27,0,0,0-1.43,1.5c-.09.12-.26.1-.41.14a11.07,11.07,0,0,1-2.08.39c-.46,0-1,.14-1.45.15a.63.63,0,0,1-.42-.1c-.21-.25-.39-.38-.7-.13-.06,0-.27,0-.28-.08-.1-.67-.47-.34-.74-.19s-.48.15-.44-.25a.85.85,0,0,0-.35-.72,3.57,3.57,0,0,1-1.2-2.12c0-.11,0-.25-.16-.26-.78-.12-.88-.91-1.3-1.31-.67.77-1.54,0-2.23.36-.12-.28.17-.53-.08-.73l0-.23a1.9,1.9,0,0,1,1.33,0c1.52.26,3.05.39,4.59.51.6,0,1.2.12,1.8.12a.6.6,0,0,0,.53-.23.73.73,0,0,1,.3-.16c.22,0,.33.12.46.25.16-.11.1-.35.27-.45s.32.06.36.26c.05.64.05.66.67.65a24,24,0,0,0,3.69-.13,6.49,6.49,0,0,1,1.32,0c.9,0,1.78-.16,2.67-.21C358.07,558.48,358.39,558.36,358.6,558.67Z" transform="translate(-283.87 -489.09)"/><path class="cls-6" d="M344.65,549.44l.1.11c.18.12.17.33.21.5a1.24,1.24,0,0,0,1.09,1l.16,0c.56.16.61.31.23.74a21.26,21.26,0,0,0-1.54,2,2.85,2.85,0,0,0-.61,1.4.81.81,0,0,1-.83.87,8.48,8.48,0,0,0-3,1.25c-.12.09-.27.21-.43,0a3.76,3.76,0,0,1,.8-2c.77-.93,1.54-1.86,2.27-2.81.1-.12.1-.27.17-.4.35-.76.78-1.48,1.08-2.27A.81.81,0,0,1,344.65,549.44Z" transform="translate(-283.87 -489.09)"/><path class="cls-15" d="M340,557.4a9,9,0,0,1,3.41-1.43,1.8,1.8,0,0,1,.61-.05c.23.46-.18.42-.39.46a10,10,0,0,0-2.57,1,.7.7,0,0,0-.26.2,13.37,13.37,0,0,0,2.32.33c.26,0,.44-.17.63-.3s.4-.39.69-.43.31.19.41.34a1.62,1.62,0,0,0,1.42.7,5,5,0,0,0,1.59-.07c.13,0,.3,0,.29.19a.57.57,0,0,1-.69.38,59.47,59.47,0,0,1-6.38-.67c-.43-.08-.87-.11-1.3-.16C339.74,557.63,340,557.55,340,557.4Z" transform="translate(-283.87 -489.09)"/><path class="cls-6" d="M350.05,569.16c-.45-.38-1-.22-1.52-.28a10.82,10.82,0,0,1-8.19-5.19l-.13-.17a6.66,6.66,0,0,1-.67-1.89l0-.32a8.58,8.58,0,0,0,1.43,3,12.55,12.55,0,0,0,1.71,1.78,11.12,11.12,0,0,0,3.62,2.06,10.43,10.43,0,0,0,2.58.5,8.83,8.83,0,0,1,1.26.14c.43.15.48.42.22.77-.12,0-.25.1-.36,0S350,569.3,350.05,569.16Z" transform="translate(-283.87 -489.09)"/><path class="cls-16" d="M344.52,548.57a14.54,14.54,0,0,0-.2-3.23,3.91,3.91,0,0,1,0-.68l.06-.14c.34,0,.5-.25.74-.39a1,1,0,0,1,.61-.21c.14.19-.06.29-.11.43a9.88,9.88,0,0,0-.56,2.63c-.09.48-.16,1-.24,1.46-.09.14,0,.42-.34.35A.18.18,0,0,1,344.52,548.57Z" transform="translate(-283.87 -489.09)"/><path class="cls-6" d="M340.1,566a10,10,0,0,0-1.91-1.59c-.49-.39-1-.73-1.49-1.11-.12-.1-.38-.16-.24-.41l3.34,2.44c2,1.51,4.26,2.77,6.17,4.46-.18.16-.32,0-.43-.09-1.49-1.2-3.15-2.16-4.68-3.29a1.38,1.38,0,0,0-.65-.29Z" transform="translate(-283.87 -489.09)"/><path class="cls-6" d="M344.52,548.57l0,.19c.17.2.1.41,0,.62a12.08,12.08,0,0,1-1.06,2.38c0,.08-.11.15-.22.12a4.48,4.48,0,0,1,.21-2A3.62,3.62,0,0,1,344.52,548.57Z" transform="translate(-283.87 -489.09)"/><path class="cls-6" d="M343.32,552.22a.86.86,0,0,1-.18.61c-.64.73-1.24,1.49-1.86,2.24-.12.14-.2.37-.46.35a3.62,3.62,0,0,1,.81-1.16A17,17,0,0,0,343.3,552,.17.17,0,0,1,343.32,552.22Z" transform="translate(-283.87 -489.09)"/><path class="cls-6" d="M343.32,552.22l0-.25a.28.28,0,0,1,0-.09,6.83,6.83,0,0,0,1.23-3.12c.18,0,.2-.22.31-.32a2.59,2.59,0,0,1-.2,1A8.7,8.7,0,0,1,343.32,552.22Z" transform="translate(-283.87 -489.09)"/><path class="cls-6" d="M350.4,569.6c0-.28.06-.58-.22-.77a22.29,22.29,0,0,0,5.16-.33c.66-.17,1.28-.45,1.92-.68a.82.82,0,0,1,0,.89c-.64.08-1.21.42-1.84.56a17.27,17.27,0,0,1-4.7.42A1.28,1.28,0,0,1,350.4,569.6Z" transform="translate(-283.87 -489.09)"/><path class="cls-6" d="M357.26,568.71v-.89a20.29,20.29,0,0,0,3-2.16,9.26,9.26,0,0,0,1.58-2.1,40.83,40.83,0,0,0,2.36-5c.22-.53.42-1.06.62-1.59a.46.46,0,0,1,.17.41,2.74,2.74,0,0,1-.29,1,38.34,38.34,0,0,1-2,4.48c-.08.14-.14.3-.32.36a.31.31,0,0,0-.19.25,11.25,11.25,0,0,1-4.41,4.35c-.28.15-.26.37-.22.61.07.41.15.83.22,1.24-.11.08-.23.07-.22-.08A3.69,3.69,0,0,0,357.26,568.71Z" transform="translate(-283.87 -489.09)"/><path class="cls-17" d="M343.55,540.83l.09,0a9.08,9.08,0,0,0,1.95.09c.24,0,.48,0,.71,0l-1.77.88c-.17-.1,0-.43-.34-.44S343.54,541.28,343.55,540.83Z" transform="translate(-283.87 -489.09)"/><path class="cls-18" d="M363.25,555.65a.66.66,0,0,1-.78.66h-.27c-1.37,0-1.5-.21-1.07-1.44a18.52,18.52,0,0,0,.92-2.72,3.79,3.79,0,0,0-.46-2.92c-.16-.24-.25-.53-.41-.78a2.15,2.15,0,0,1-.05-2.35.71.71,0,0,0,0-.62c0-.14,0-.2.17-.16.47.23.94.45,1.4.69.13.07.34.08.33.31a2.15,2.15,0,0,0,.25,1,24.09,24.09,0,0,1,.38,3.39c.07.71.1,1.42.2,2.13a6.32,6.32,0,0,1-.08,1.31h0A7.43,7.43,0,0,0,363.25,555.65Z" transform="translate(-283.87 -489.09)"/><path class="cls-19" d="M361.31,545.32c-.24.22.16.59-.18.78a.54.54,0,0,0-.4-.69,28.41,28.41,0,0,0-8.28-1.75,17.42,17.42,0,0,0-6.19.46c-.21.06-.41.16-.61.23,0-.14.07-.29.11-.43a12.61,12.61,0,0,1,5.64-.82A22.2,22.2,0,0,1,361.31,545.32Z" transform="translate(-283.87 -489.09)"/><path class="cls-20" d="M366.55,549.88a7.18,7.18,0,0,0-1.31,1.33.71.71,0,0,1-.23-.49c-.17-.86-.26-1.73-.38-2.6-.06-.36-.06-.77.5-.77a2.57,2.57,0,0,1,.87.55A9.7,9.7,0,0,1,366.55,549.88Z" transform="translate(-283.87 -489.09)"/><path class="cls-21" d="M365.13,547.35c-.47.19-.35.58-.29.93.15,1,.32,1.94.4,2.93l-.22.34c-.21.29-.37.16-.48-.09a2.71,2.71,0,0,1-.16-.8c-.1-1.06-.24-2.12-.44-3.17-.11-.56-.4-.64-.81-.26a1.5,1.5,0,0,0-.81-.24l.72-.67A11.93,11.93,0,0,1,365.13,547.35Z" transform="translate(-283.87 -489.09)"/><path class="cls-22" d="M366.55,549.88c-.21,0-.23-.22-.26-.36a6.54,6.54,0,0,0-.41-1.5c-.05-.11.05-.1.12-.12.44.33,1,.51,1.25,1.08l-.13.39c0,.27-.15.48-.46.5Z" transform="translate(-283.87 -489.09)"/><path class="cls-6" d="M344.1,556l-.67,0c.59,0,.73-.43.79-.94a3,3,0,0,1,.58-1.24,14.1,14.1,0,0,1,1.54-2c.38-.39.2-.47-.19-.54a1.5,1.5,0,0,1-1.4-1.71c.66-1.9,1.87-1.94,3.17-1.87a1,1,0,0,1,.9.53c.16.42.28.69.79.29-.92.88-1.58,1.93-2.54,2.7a.45.45,0,0,1,0-.46c.34-.38.7-.75,1-1.15.13-.09.18-.25.29-.35.31-.42.27-.77-.11-1a2.29,2.29,0,0,0-2.94.94,1.11,1.11,0,0,0,.89,1.71,1.7,1.7,0,0,0,.6,0c.18,0,.17.17.24.28-.73,1-1.6,1.92-2.26,3a2.69,2.69,0,0,0,.08,3.18,1.85,1.85,0,0,0,1.54.72,11.52,11.52,0,0,0,4-.75A14,14,0,0,0,353,556.2c.84-.47.93-1.38.2-1.85a1.17,1.17,0,0,0-1.41.16,3.2,3.2,0,0,1-.43.47,1.31,1.31,0,0,1,2-.8c.65.48.91,1.36.21,1.85a.46.46,0,0,0-.22.37.34.34,0,0,1-.24.18c-.26.16-.55.26-.81.41l-.2.12c-.84.4-1.76.59-2.62.95a.27.27,0,0,1-.23,0c0-.17-.1-.18-.23-.11-.15.28-.45.11-.67.21l-.23.11c-.32-.16-.64,0-.95,0a2.79,2.79,0,0,1-2.79-1.16C344,556.88,344.1,556.42,344.1,556Z" transform="translate(-283.87 -489.09)"/><path class="cls-23" d="M363.13,547.23c.07-.2-.16-.51.18-.61s.79.5.82.74c.18,1.32.37,2.65.55,4,0,.26.1.34.34.22l-1.23,2.64a5.88,5.88,0,0,1-.18-1.62c-.18-1.45-.25-2.91-.37-4.36C363.22,547.88,363.17,547.55,363.13,547.23Z" transform="translate(-283.87 -489.09)"/><path class="cls-24" d="M349.3,558.09l.12-.13c.27-.11.27.11.29.26s.19.33.42.33c.88,0,1.76,0,2.64,0,.13,0,.32,0,.37-.15s-.12-.21-.19-.31c-.27-.37-.79-.56-.81-1.12l.15-.1c.26-.12.46,0,.67.15a4.67,4.67,0,0,1,1.09.93,1.37,1.37,0,0,0,1.35.52,1.67,1.67,0,0,0,.72-.13,11.89,11.89,0,0,0-1.29-1.52c-.22-.25-.51-.13-.78-.13s-.74.2-1-.22l.34-.05c2.18-.58,3.85.58,5.18,2a.22.22,0,0,1,0,.29c-1.76.08-3.52.13-5.27.24-1.19.07-2.39.06-3.58,0-.4,0-.6-.09-.47-.53A1.22,1.22,0,0,0,349.3,558.09Z" transform="translate(-283.87 -489.09)"/><path class="cls-25" d="M356.8,547.45a11.42,11.42,0,0,0-3.13-1.26c-.38-.09-.41-.34-.34-.62s.11-.57.49-.57A3.52,3.52,0,0,1,356.8,547.45Z" transform="translate(-283.87 -489.09)"/><path class="cls-26" d="M345.37,547a3.36,3.36,0,0,1,2.87-2.21c.2,0,.48-.09.49.26s.13.85-.29.9A10.43,10.43,0,0,0,345.37,547Z" transform="translate(-283.87 -489.09)"/><path class="cls-6" d="M354.87,552.2a3.37,3.37,0,0,1-.55,0,1.82,1.82,0,0,1-1.68-2.27,6.12,6.12,0,0,1,.29-1.4,1,1,0,0,1,.79-.71c1.87-.29,3.6.92,3.16,3.14C356.69,551.91,356,552.3,354.87,552.2Z" transform="translate(-283.87 -489.09)"/><path class="cls-6" d="M365.91,555.89c-.36-.3-.54-.13-.65.25a5.41,5.41,0,0,1-.45,1.3l0-.48c.13-.45.24-.91.37-1.36s-.28-.36-.32-.64c.33.13.55.4.9.5a2.32,2.32,0,0,0,2.77-1.65,3.59,3.59,0,0,0-.13-3,1.62,1.62,0,0,0-1.72-1c.23-.09.29-.35.46-.5,0,.12,0,.25.17.3a2.54,2.54,0,0,1,1.67,2.54,3.61,3.61,0,0,1-1.52,3.35A3,3,0,0,1,365.91,555.89Z" transform="translate(-283.87 -489.09)"/><path class="cls-6" d="M366.66,553.31c-.52-.09-1-.23-1.38.19a1.76,1.76,0,0,1,1.77-1.48C366.85,552.43,365.7,552.49,366.66,553.31Z" transform="translate(-283.87 -489.09)"/><path class="cls-23" d="M363.25,555.65a2.4,2.4,0,0,1,.54-1.45A5.76,5.76,0,0,1,363.25,555.65Z" transform="translate(-283.87 -489.09)"/><path class="cls-27" d="M343.87,559.6c-.18-.3-.12-.64-.29-1.09a10.73,10.73,0,0,0,10.35.65,3.16,3.16,0,0,1-.87,1.34,1,1,0,0,1-.54.36,11.49,11.49,0,0,1-6.47-.07,9.57,9.57,0,0,1-1.62-.68A1.21,1.21,0,0,1,343.87,559.6Z" transform="translate(-283.87 -489.09)"/><path class="cls-28" d="M346,560.62a18,18,0,0,0,2.83.47,14.22,14.22,0,0,0,4.25-.59,4.71,4.71,0,0,1-1.39,1.52,2.13,2.13,0,0,1-1,.58,1.41,1.41,0,0,0-1.27-.32c-.15,0-.32.07-.44,0-.77-.44-1.43-.08-2.11.24a1.78,1.78,0,0,1-1.18-.36l-.13-.1c-.1-.07-.25-.07-.31-.21C345.09,561.56,345.62,560.7,346,560.62Z" transform="translate(-283.87 -489.09)"/><path class="cls-29" d="M346,560.62c0,.38-.34.58-.58.83s-.07.43.12.61c-.52,0-.75-.41-1-.76a2.67,2.67,0,0,1-.68-1.7A18.62,18.62,0,0,0,346,560.62Z" transform="translate(-283.87 -489.09)"/><path class="cls-30" d="M346.85,562.38c.62-.38,1.22-.86,2-.26.2.15.42,0,.64-.06.75-.11,1,0,1.18.54a.29.29,0,0,1-.28.12,10.32,10.32,0,0,1-2.22.09C347.69,562.75,347.18,562.84,346.85,562.38Z" transform="translate(-283.87 -489.09)"/><path class="cls-31" d="M346.85,562.38a9.28,9.28,0,0,0,2.78.26c.24,0,.51-.1.74.08-1.54.76-3,.31-4.47-.28-.11,0-.29-.08-.25-.28A4.39,4.39,0,0,0,346.85,562.38Z" transform="translate(-283.87 -489.09)"/><path class="cls-6" d="M348.4,558.19a1.81,1.81,0,0,1,.67-.21.86.86,0,0,1,0,.16c0,.21.07.49-.2.55s-.17-.27-.29-.4A.45.45,0,0,0,348.4,558.19Z" transform="translate(-283.87 -489.09)"/><path class="cls-6" d="M354.76,559.56c-.2,0-.27-.1-.33-.24.1-.17.18-.06.25,0A.2.2,0,0,1,354.76,559.56Z" transform="translate(-283.87 -489.09)"/><path class="cls-32" d="M344.1,556l.33,1.17a1.79,1.79,0,0,1-2.06.82,14.51,14.51,0,0,0-2-.3,2.47,2.47,0,0,1,1.08-.72,6.61,6.61,0,0,1,2.49-.79C344,556.18,344.06,556.09,344.1,556Z" transform="translate(-283.87 -489.09)"/><path class="cls-33" d="M346.87,551A1.34,1.34,0,0,1,345,549.6a1.86,1.86,0,0,1,1.18-1.54,3.52,3.52,0,0,1,1.9-.14.8.8,0,0,1,.71.8c0,.28,0,.57-.38.59a.54.54,0,0,1-.2-.1c-.51-.45-1-.49-1.34-.15a1.43,1.43,0,0,0-.21,1.57A.69.69,0,0,1,346.87,551Z" transform="translate(-283.87 -489.09)"/><path class="cls-34" d="M353.06,556.45a1.93,1.93,0,0,0,1.14,0,.77.77,0,0,1,.9.33,20.55,20.55,0,0,1,1.33,1.66,5.32,5.32,0,0,1-1.85.18c-.22,0-.29-.17-.41-.3a5.43,5.43,0,0,0-1.88-1.48C352.55,556.72,352.81,556.59,353.06,556.45Z" transform="translate(-283.87 -489.09)"/><path class="cls-34" d="M352.14,557l1.26,1.31c.22.22.24.33-.13.39a26.66,26.66,0,0,1-3.46.09c-.25,0-.28-.16-.3-.36s.17-.33-.09-.42C350.29,557.51,351.25,557.33,352.14,557Z" transform="translate(-283.87 -489.09)"/><path class="cls-35" d="M348.16,549.67a3.68,3.68,0,0,1-1,1.14c-.53-.09-.72-.38-.63-1s.37-.93,1-.87c.18.18,0,.64.47.58A.28.28,0,0,1,348.16,549.67Z" transform="translate(-283.87 -489.09)"/><path class="cls-36" d="M348.16,549.67H348a.87.87,0,0,0-.46-.58.72.72,0,0,0-.86.58.92.92,0,0,0,.5,1.15c0,.13,0,.26-.08.39h0l-.21-.18a1.39,1.39,0,0,1-.08-2.07,1,1,0,0,1,1.65.36C348.42,549.48,348.39,549.65,348.16,549.67Z" transform="translate(-283.87 -489.09)"/><path class="cls-37" d="M355.72,556.69a5.41,5.41,0,0,1,2.34,1.46c.18.19.13.3-.09.33s-.61.14-.82-.15C356.73,557.73,356.18,557.25,355.72,556.69Z" transform="translate(-283.87 -489.09)"/><path class="cls-38" d="M354.37,552c-1.17-.23-1.56-.74-1.48-2a6.44,6.44,0,0,1,.15-1c.18-.85.48-1.07,1.33-1a2.28,2.28,0,0,1,2.24,1.69c.05.13.1.27-.05.37s-.28-.22-.37-.37a.89.89,0,0,0-1.42-.26,1.5,1.5,0,0,0-.32,2c.12.18.32.32.3.57S354.51,552.05,354.37,552Z" transform="translate(-283.87 -489.09)"/><path class="cls-39" d="M356.51,550l.1-.34a1.85,1.85,0,0,1-.33,2,1.88,1.88,0,0,1-1.91.34l.34-.11a1.61,1.61,0,0,0,1.67-1.74C356.38,550.08,356.44,550,356.51,550Z" transform="translate(-283.87 -489.09)"/><path class="cls-40" d="M347.51,549.08c.16-.05.33-.18.48,0s.09.39,0,.58a.28.28,0,0,1-.47,0A.43.43,0,0,1,347.51,549.08Z" transform="translate(-283.87 -489.09)"/><path class="cls-41" d="M356.51,550a2.36,2.36,0,0,1-.23,1.28,1.22,1.22,0,0,1-1.57.62,1.65,1.65,0,0,1-.51-2.06,1.37,1.37,0,0,1,1.27-.89C356.11,549,356.34,549.47,356.51,550Z" transform="translate(-283.87 -489.09)"/><path class="cls-42" d="M356,550.12a.61.61,0,0,1,.07.14,1.12,1.12,0,0,1-.82,1.26.83.83,0,0,1-.83-.71,1.13,1.13,0,0,1,.74-1.35,2.46,2.46,0,0,1,.28,0C355.49,549.74,355.43,550.17,356,550.12Z" transform="translate(-283.87 -489.09)"/><path class="cls-43" d="M356,550.12c-.17.16-.37.3-.56.09a.66.66,0,0,1,0-.77c.16-.05.32-.2.49,0A.59.59,0,0,1,356,550.12Z" transform="translate(-283.87 -489.09)"/><g class="cls-44"><polygon class="cls-45" points="38.47 17.48 37.54 17.52 37.54 17.48 38.47 17.48"/><polygon class="cls-46" points="48.32 17.48 37.54 17.86 37.54 17.52 38.47 17.48 48.32 17.48"/><polygon class="cls-47" points="58.16 17.48 37.54 18.2 37.54 17.86 48.32 17.48 58.16 17.48"/><polygon class="cls-48" points="68.01 17.48 37.54 18.55 37.54 18.2 58.16 17.48 68.01 17.48"/><polygon class="cls-49" points="77.85 17.48 37.54 18.89 37.54 18.55 68.01 17.48 77.85 17.48"/><polygon class="cls-50" points="87.7 17.48 37.54 19.23 37.54 18.89 77.85 17.48 87.7 17.48"/><polygon class="cls-51" points="97.54 17.48 37.54 19.57 37.54 19.23 87.7 17.48 97.54 17.48"/><polygon class="cls-52" points="107.28 17.49 37.54 19.92 37.54 19.57 97.54 17.48 107.28 17.48 107.28 17.49"/><polygon class="cls-53" points="107.28 17.83 37.54 20.26 37.54 19.92 107.28 17.49 107.28 17.83"/><polygon class="cls-54" points="107.28 18.17 37.54 20.6 37.54 20.26 107.28 17.83 107.28 18.17"/><polygon class="cls-55" points="107.28 18.52 37.54 20.95 37.54 20.6 107.28 18.17 107.28 18.52"/><polygon class="cls-56" points="107.28 18.86 37.54 21.29 37.54 20.95 107.28 18.52 107.28 18.86"/><polygon class="cls-57" points="107.28 19.2 37.54 21.63 37.54 21.29 107.28 18.86 107.28 19.2"/><polygon class="cls-58" points="107.28 19.55 37.54 21.98 37.54 21.63 107.28 19.2 107.28 19.55"/><polygon class="cls-59" points="107.28 19.89 37.54 22.32 37.54 21.98 107.28 19.55 107.28 19.89"/><polygon class="cls-60" points="107.28 20.23 37.54 22.66 37.54 22.32 107.28 19.89 107.28 20.23"/><polygon class="cls-61" points="107.28 20.57 37.54 23.01 37.54 22.66 107.28 20.23 107.28 20.57"/><polygon class="cls-62" points="107.28 20.92 37.54 23.35 37.54 23.01 107.28 20.57 107.28 20.92"/><polygon class="cls-63" points="107.28 21.26 37.54 23.69 37.54 23.35 107.28 20.92 107.28 21.26"/><polygon class="cls-64" points="107.28 21.6 37.54 24.04 37.54 23.69 107.28 21.26 107.28 21.6"/><polygon class="cls-65" points="107.28 21.95 37.54 24.38 37.54 24.04 107.28 21.6 107.28 21.95"/><polygon class="cls-66" points="107.28 22.29 37.54 24.72 37.54 24.38 107.28 21.95 107.28 22.29"/><polygon class="cls-67" points="107.28 22.63 37.54 25.06 37.54 24.72 107.28 22.29 107.28 22.63"/><polygon class="cls-68" points="107.28 22.98 37.54 25.41 37.54 25.06 107.28 22.63 107.28 22.98"/><polygon class="cls-69" points="107.28 23.32 37.54 25.75 37.54 25.41 107.28 22.98 107.28 23.32"/><polygon class="cls-70" points="107.28 23.66 37.54 26.09 37.54 25.75 107.28 23.32 107.28 23.66"/><polygon class="cls-71" points="107.28 24.01 37.54 26.44 37.54 26.09 107.28 23.66 107.28 24.01"/><polygon class="cls-72" points="107.28 24.35 37.54 26.78 37.54 26.44 107.28 24.01 107.28 24.35"/><polygon class="cls-73" points="107.28 24.69 37.54 27.12 37.54 26.78 107.28 24.35 107.28 24.69"/><polygon class="cls-74" points="107.28 25.04 37.54 27.47 37.54 27.12 107.28 24.69 107.28 25.04"/><polygon class="cls-75" points="107.28 25.38 37.54 27.81 37.54 27.47 107.28 25.04 107.28 25.38"/><polygon class="cls-76" points="107.28 25.72 37.54 28.15 37.54 27.81 107.28 25.38 107.28 25.72"/><polygon class="cls-77" points="107.28 26.07 37.54 28.5 37.54 28.15 107.28 25.72 107.28 26.07"/><polygon class="cls-78" points="107.28 26.41 37.54 28.84 37.54 28.5 107.28 26.07 107.28 26.41"/><polygon class="cls-79" points="107.28 26.75 37.54 29.18 37.54 28.84 107.28 26.41 107.28 26.75"/><polygon class="cls-80" points="107.28 27.09 37.54 29.52 37.54 29.18 107.28 26.75 107.28 27.09"/><polygon class="cls-81" points="107.28 27.44 37.54 29.87 37.54 29.52 107.28 27.09 107.28 27.44"/><polygon class="cls-82" points="107.28 27.78 37.54 30.21 37.54 29.87 107.28 27.44 107.28 27.78"/><polygon class="cls-83" points="107.28 28.12 37.54 30.55 37.54 30.21 107.28 27.78 107.28 28.12"/><polygon class="cls-84" points="107.28 28.47 37.54 30.9 37.54 30.55 107.28 28.12 107.28 28.47"/><polygon class="cls-85" points="107.28 28.81 37.54 31.24 37.54 30.9 107.28 28.47 107.28 28.81"/><polygon class="cls-86" points="107.28 29.15 37.54 31.58 37.54 31.24 107.28 28.81 107.28 29.15"/><polygon class="cls-87" points="107.28 29.5 37.54 31.93 37.54 31.58 107.28 29.15 107.28 29.5"/><polygon class="cls-88" points="107.28 29.84 37.54 32.27 37.54 31.93 107.28 29.5 107.28 29.84"/><polygon class="cls-89" points="107.28 30.18 37.54 32.61 37.54 32.27 107.28 29.84 107.28 30.18"/><polygon class="cls-90" points="107.28 30.52 37.54 32.96 37.54 32.61 107.28 30.18 107.28 30.52"/><polygon class="cls-91" points="107.28 30.87 37.54 33.3 37.54 32.96 107.28 30.52 107.28 30.87"/><polygon class="cls-92" points="107.28 31.21 37.54 33.64 37.54 33.3 107.28 30.87 107.28 31.21"/><polygon class="cls-93" points="107.28 31.55 37.54 33.98 37.54 33.64 107.28 31.21 107.28 31.55"/><polygon class="cls-94" points="107.28 31.9 37.54 34.33 37.54 33.98 107.28 31.55 107.28 31.9"/><polygon class="cls-95" points="107.28 32.24 37.54 34.67 37.54 34.33 107.28 31.9 107.28 32.24"/><polygon class="cls-96" points="107.28 32.58 37.54 35.01 37.54 34.67 107.28 32.24 107.28 32.58"/><polygon class="cls-97" points="107.28 32.93 37.54 35.36 37.54 35.01 107.28 32.58 107.28 32.93"/><polygon class="cls-98" points="107.28 33.27 37.54 35.7 37.54 35.36 107.28 32.93 107.28 33.27"/><polygon class="cls-99" points="107.28 33.61 37.54 36.04 37.54 35.7 107.28 33.27 107.28 33.61"/><polygon class="cls-100" points="107.28 33.96 37.54 36.39 37.54 36.04 107.28 33.61 107.28 33.96"/><polygon class="cls-101" points="107.28 34.3 37.54 36.73 37.54 36.39 107.28 33.96 107.28 34.3"/><polygon class="cls-102" points="107.28 34.64 37.54 37.07 37.54 36.73 107.28 34.3 107.28 34.64"/><polygon class="cls-103" points="107.28 34.98 37.54 37.42 37.54 37.07 107.28 34.64 107.28 34.98"/><polygon class="cls-104" points="107.28 35.33 37.54 37.76 37.54 37.42 107.28 34.98 107.28 35.33"/><polygon class="cls-105" points="107.28 35.67 37.54 38.1 37.54 37.76 107.28 35.33 107.28 35.67"/><polygon class="cls-106" points="107.28 36.02 37.54 38.45 37.54 38.1 107.28 35.67 107.28 36.02"/><polygon class="cls-107" points="107.28 36.36 37.54 38.79 37.54 38.45 107.28 36.02 107.28 36.36"/><polygon class="cls-108" points="107.28 36.7 37.54 39.13 37.54 38.79 107.28 36.36 107.28 36.7"/><polygon class="cls-109" points="107.28 37.04 37.54 39.48 37.54 39.13 107.28 36.7 107.28 37.04"/><path class="cls-110" d="M321.41,528.57v.34l9.58-.33a26.14,26.14,0,0,1,5.79-.21l54.37-1.89v-.34Z" transform="translate(-283.87 -489.09)"/><path class="cls-111" d="M331,528.58l-9.58.33v.34L329,529A20.46,20.46,0,0,1,331,528.58Z" transform="translate(-283.87 -489.09)"/><path class="cls-111" d="M336.78,528.37c.84.06,1.68.15,2.52.26l51.85-1.81v-.34Z" transform="translate(-283.87 -489.09)"/><path class="cls-112" d="M328.12,529.21c.29-.09.57-.15.86-.22l-7.57.26v.34l6.23-.21C327.8,529.32,328,529.26,328.12,529.21Z" transform="translate(-283.87 -489.09)"/><path class="cls-112" d="M339.3,528.63l2,.27,49.86-1.74v-.34Z" transform="translate(-283.87 -489.09)"/><path class="cls-113" d="M341.29,528.9l.66.1,1.31.18,47.89-1.67v-.35Z" transform="translate(-283.87 -489.09)"/><path class="cls-113" d="M327.64,529.38l-6.23.21v.35l5.29-.19C327,529.62,327.32,529.49,327.64,529.38Z" transform="translate(-283.87 -489.09)"/><path class="cls-114" d="M326.7,529.75l-5.29.19v.34l4.54-.16C326.19,530,326.44,529.87,326.7,529.75Z" transform="translate(-283.87 -489.09)"/><path class="cls-114" d="M343.26,529.18c1,.12,2.05.19,3.07.23l44.82-1.56v-.34Z" transform="translate(-283.87 -489.09)"/><path class="cls-115" d="M326,530.12l-4.54.16v.34l3.95-.13C325.55,530.36,325.75,530.24,326,530.12Z" transform="translate(-283.87 -489.09)"/><path class="cls-115" d="M346.33,529.41c2.27.1,4.53,0,6.88,0,.68,0,1.35,0,2,0l35.92-1.26v-.34Z" transform="translate(-283.87 -489.09)"/><path class="cls-116" d="M325.36,530.49l-3.95.13V531l3.45-.12A5.74,5.74,0,0,1,325.36,530.49Z" transform="translate(-283.87 -489.09)"/><path class="cls-116" d="M355.23,529.45c1,0,2,.12,3,.23l32.91-1.14v-.35Z" transform="translate(-283.87 -489.09)"/><path class="cls-117" d="M324.86,530.85l-3.45.12v.34l3-.1C324.54,531.08,324.7,531,324.86,530.85Z" transform="translate(-283.87 -489.09)"/><path class="cls-117" d="M358.24,529.68c.66.08,1.3.17,1.95.28l31-1.08v-.34Z" transform="translate(-283.87 -489.09)"/><path class="cls-118" d="M324.39,531.21l-3,.1v.34l2.61-.09C324.14,531.44,324.26,531.32,324.39,531.21Z" transform="translate(-283.87 -489.09)"/><path class="cls-118" d="M360.19,530c.53.09,1.06.18,1.58.29l29.38-1v-.34Z" transform="translate(-283.87 -489.09)"/><path class="cls-119" d="M361.77,530.25l1.38.29,28-1v-.35Z" transform="translate(-283.87 -489.09)"/><path class="cls-120" d="M363.15,530.54l1.24.3,26.76-.93v-.34Z" transform="translate(-283.87 -489.09)"/><path class="cls-121" d="M364.39,530.84l1.16.3,25.6-.89v-.34Z" transform="translate(-283.87 -489.09)"/><path class="cls-122" d="M365.55,531.14l1.11.31,24.49-.85v-.35Z" transform="translate(-283.87 -489.09)"/><path class="cls-123" d="M366.66,531.45l1,.31,23.46-.82v-.34Z" transform="translate(-283.87 -489.09)"/><path class="cls-124" d="M367.69,531.76l1,.3,22.45-.78v-.34Z" transform="translate(-283.87 -489.09)"/><path class="cls-125" d="M368.7,532.06l1,.31,21.48-.75v-.34Z" transform="translate(-283.87 -489.09)"/><path class="cls-126" d="M369.67,532.37l.94.31,20.54-.71v-.35Z" transform="translate(-283.87 -489.09)"/><path class="cls-127" d="M370.61,532.68l.94.31,19.6-.68V532Z" transform="translate(-283.87 -489.09)"/><path class="cls-128" d="M371.55,533l.91.32,18.69-.66v-.34Z" transform="translate(-283.87 -489.09)"/><path class="cls-129" d="M372.46,533.31l.9.31,17.79-.62v-.35Z" transform="translate(-283.87 -489.09)"/><path class="cls-130" d="M373.36,533.62l.9.31,16.89-.59V533Z" transform="translate(-283.87 -489.09)"/><path class="cls-131" d="M374.26,533.93l.89.31,16-.56v-.34Z" transform="translate(-283.87 -489.09)"/><path class="cls-132" d="M375.15,534.24l.89.31,15.11-.52v-.35Z" transform="translate(-283.87 -489.09)"/><path class="cls-133" d="M376,534.55l.9.31,14.21-.49V534Z" transform="translate(-283.87 -489.09)"/><path class="cls-134" d="M376.94,534.86l.9.32,13.31-.47v-.34Z" transform="translate(-283.87 -489.09)"/><path class="cls-135" d="M377.84,535.18l.91.31,12.4-.43v-.35Z" transform="translate(-283.87 -489.09)"/><path class="cls-136" d="M378.75,535.49l.76.25.14.06,11.5-.4v-.34Z" transform="translate(-283.87 -489.09)"/><path class="cls-137" d="M379.65,535.8c.28.1.55.2.81.31l10.69-.37v-.34Z" transform="translate(-283.87 -489.09)"/><path class="cls-138" d="M380.46,536.11c.23.1.44.21.65.32l10-.35v-.34Z" transform="translate(-283.87 -489.09)"/><path class="cls-139" d="M381.11,536.43c.2.11.4.21.59.33l9.45-.33v-.35Z" transform="translate(-283.87 -489.09)"/><path class="cls-140" d="M381.7,536.76c.18.1.34.21.5.32l8.95-.31v-.34Z" transform="translate(-283.87 -489.09)"/><path class="cls-141" d="M382.2,537.08l.45.33,8.5-.3v-.34Z" transform="translate(-283.87 -489.09)"/><path class="cls-142" d="M382.65,537.41l.4.33,8.1-.28v-.35Z" transform="translate(-283.87 -489.09)"/><path class="cls-143" d="M383.05,537.74l.36.33,7.74-.27v-.34Z" transform="translate(-283.87 -489.09)"/><path class="cls-144" d="M383.41,538.07l.33.33,7.41-.26v-.34Z" transform="translate(-283.87 -489.09)"/><path class="cls-145" d="M383.74,538.4l.3.33,7.11-.24v-.35Z" transform="translate(-283.87 -489.09)"/><path class="cls-146" d="M384,538.73l.26.34,6.85-.24v-.34Z" transform="translate(-283.87 -489.09)"/><path class="cls-147" d="M384.3,539.07l.26.33,6.59-.23v-.34Z" transform="translate(-283.87 -489.09)"/><path class="cls-148" d="M384.56,539.4l.21.34,6.38-.22v-.35Z" transform="translate(-283.87 -489.09)"/><path class="cls-148" d="M341,548.71c-2.52-.35-5.16-1.21-7.62-.47-5.91,1.79-10.16-1.76-11.61-6.31l-.35,0v7.11h23C343.28,549,342.14,548.87,341,548.71Z" transform="translate(-283.87 -489.09)"/><path class="cls-148" d="M384.77,539.74a10.82,10.82,0,0,1,.9,9.32h5.48v-9.54Z" transform="translate(-283.87 -489.09)"/></g><path class="cls-4" d="M375,512a44.52,44.52,0,0,0-25.19-3.3c-6.44.56-14.71,2.17-21.61,9.62A19.5,19.5,0,0,0,322.83,533a9.9,9.9,0,0,1,.86-1.1A18.82,18.82,0,0,1,328.82,519c6.68-7.22,14.74-8.78,21.08-9.34a43.76,43.76,0,0,1,24.68,3.24c10.29,4.51,15.65,12.57,15.92,24a7.72,7.72,0,0,1-3.14,6.47,11.33,11.33,0,0,1-1.11.75c0,.33.06.67.07,1a12,12,0,0,0,1.61-1,8.63,8.63,0,0,0,3.49-7.21C391.13,525,385.59,516.7,375,512Z" transform="translate(-283.87 -489.09)"/><g class="cls-149"><polygon class="cls-150" points="71.52 2.44 69.18 2.52 69.18 2.44 71.52 2.44"/><polygon class="cls-151" points="75.37 2.44 69.18 2.65 69.18 2.52 71.52 2.44 75.37 2.44"/><polygon class="cls-152" points="79.22 2.44 69.18 2.79 69.18 2.65 75.37 2.44 79.22 2.44"/><polygon class="cls-153" points="83.08 2.44 69.18 2.92 69.18 2.79 79.22 2.44 83.08 2.44"/><polygon class="cls-154" points="84.8 2.51 69.18 3.06 69.18 2.92 83.08 2.44 84.8 2.44 84.8 2.51"/><polygon class="cls-45" points="84.8 2.65 69.18 3.19 69.18 3.06 84.8 2.51 84.8 2.65"/><polygon class="cls-46" points="84.8 2.78 69.18 3.32 69.18 3.19 84.8 2.65 84.8 2.78"/><polygon class="cls-47" points="84.8 2.91 69.18 3.46 69.18 3.32 84.8 2.78 84.8 2.91"/><polygon class="cls-48" points="84.8 3.05 69.18 3.59 69.18 3.46 84.8 2.91 84.8 3.05"/><polygon class="cls-49" points="84.8 3.18 69.18 3.73 69.18 3.59 84.8 3.05 84.8 3.18"/><polygon class="cls-50" points="84.8 3.32 69.18 3.86 69.18 3.73 84.8 3.18 84.8 3.32"/><polygon class="cls-51" points="84.8 3.45 69.18 4 69.18 3.86 84.8 3.32 84.8 3.45"/><polygon class="cls-52" points="84.8 3.58 69.18 4.13 69.18 4 84.8 3.45 84.8 3.58"/><polygon class="cls-53" points="84.8 3.72 69.18 4.26 69.18 4.13 84.8 3.58 84.8 3.72"/><polygon class="cls-54" points="84.8 3.85 69.18 4.4 69.18 4.26 84.8 3.72 84.8 3.85"/><polygon class="cls-55" points="84.8 3.99 69.18 4.53 69.18 4.4 84.8 3.85 84.8 3.99"/><polygon class="cls-56" points="84.8 4.12 69.18 4.67 69.18 4.53 84.8 3.99 84.8 4.12"/><polygon class="cls-57" points="84.8 4.26 69.18 4.8 69.18 4.67 84.8 4.12 84.8 4.26"/><polygon class="cls-58" points="84.8 4.39 69.18 4.93 69.18 4.8 84.8 4.26 84.8 4.39"/><polygon class="cls-59" points="84.8 4.52 69.18 5.07 69.18 4.93 84.8 4.39 84.8 4.52"/><polygon class="cls-60" points="84.8 4.66 69.18 5.2 69.18 5.07 84.8 4.52 84.8 4.66"/><polygon class="cls-61" points="84.8 4.79 69.18 5.34 69.18 5.2 84.8 4.66 84.8 4.79"/><polygon class="cls-62" points="84.8 4.93 69.18 5.47 69.18 5.34 84.8 4.79 84.8 4.93"/><polygon class="cls-63" points="84.8 5.06 69.18 5.61 69.18 5.47 84.8 4.93 84.8 5.06"/><polygon class="cls-64" points="84.8 5.2 69.18 5.74 69.18 5.61 84.8 5.06 84.8 5.2"/><polygon class="cls-65" points="84.8 5.33 69.18 5.87 69.18 5.74 84.8 5.2 84.8 5.33"/><polygon class="cls-66" points="84.8 5.46 69.18 6.01 69.18 5.87 84.8 5.33 84.8 5.46"/><polygon class="cls-67" points="84.8 5.6 69.18 6.14 69.18 6.01 84.8 5.46 84.8 5.6"/><polygon class="cls-68" points="84.8 5.73 69.18 6.28 69.18 6.14 84.8 5.6 84.8 5.73"/><polygon class="cls-69" points="84.8 5.87 69.18 6.41 69.18 6.28 84.8 5.73 84.8 5.87"/><polygon class="cls-70" points="84.8 6 69.18 6.54 69.18 6.41 84.8 5.87 84.8 6"/><polygon class="cls-71" points="84.8 6.13 69.18 6.68 69.18 6.54 84.8 6 84.8 6.13"/><polygon class="cls-72" points="84.8 6.27 69.18 6.81 69.18 6.68 84.8 6.13 84.8 6.27"/><polygon class="cls-73" points="84.8 6.4 69.18 6.95 69.18 6.81 84.8 6.27 84.8 6.4"/><polygon class="cls-74" points="84.8 6.54 69.18 7.08 69.18 6.95 84.8 6.4 84.8 6.54"/><polygon class="cls-75" points="84.8 6.67 69.18 7.22 69.18 7.08 84.8 6.54 84.8 6.67"/><polygon class="cls-76" points="84.8 6.81 69.18 7.35 69.18 7.22 84.8 6.67 84.8 6.81"/><polygon class="cls-77" points="84.8 6.94 69.18 7.49 69.18 7.35 84.8 6.81 84.8 6.94"/><polygon class="cls-78" points="84.8 7.08 69.18 7.62 69.18 7.49 84.8 6.94 84.8 7.08"/><polygon class="cls-79" points="84.8 7.21 69.18 7.75 69.18 7.62 84.8 7.08 84.8 7.21"/><polygon class="cls-80" points="84.8 7.34 69.18 7.89 69.18 7.75 84.8 7.21 84.8 7.34"/><polygon class="cls-81" points="84.8 7.48 69.18 8.02 69.18 7.89 84.8 7.34 84.8 7.48"/><polygon class="cls-82" points="84.8 7.61 69.18 8.16 69.18 8.02 84.8 7.48 84.8 7.61"/><polygon class="cls-83" points="84.8 7.75 69.18 8.29 69.18 8.16 84.8 7.61 84.8 7.75"/><polygon class="cls-84" points="84.8 7.88 69.18 8.42 69.18 8.29 84.8 7.75 84.8 7.88"/><polygon class="cls-85" points="84.8 8.01 69.18 8.56 69.18 8.42 84.8 7.88 84.8 8.01"/><polygon class="cls-86" points="84.8 8.15 69.18 8.69 69.18 8.56 84.8 8.01 84.8 8.15"/><polygon class="cls-87" points="84.8 8.28 69.18 8.83 69.18 8.69 84.8 8.15 84.8 8.28"/><polygon class="cls-88" points="84.8 8.42 69.18 8.96 69.18 8.83 84.8 8.28 84.8 8.42"/><polygon class="cls-89" points="84.8 8.55 69.18 9.1 69.18 8.96 84.8 8.42 84.8 8.55"/><polygon class="cls-90" points="84.8 8.69 69.18 9.23 69.18 9.1 84.8 8.55 84.8 8.69"/><polygon class="cls-91" points="84.8 8.82 69.18 9.36 69.18 9.23 84.8 8.69 84.8 8.82"/><polygon class="cls-92" points="84.8 8.95 69.18 9.5 69.18 9.36 84.8 8.82 84.8 8.95"/><polygon class="cls-93" points="84.8 9.09 69.18 9.63 69.18 9.5 84.8 8.95 84.8 9.09"/><polygon class="cls-94" points="84.8 9.22 69.18 9.77 69.18 9.63 84.8 9.09 84.8 9.22"/><polygon class="cls-95" points="84.8 9.36 69.18 9.9 69.18 9.77 84.8 9.22 84.8 9.36"/><polygon class="cls-96" points="84.8 9.49 69.18 10.04 69.18 9.9 84.8 9.36 84.8 9.49"/><polygon class="cls-97" points="84.8 9.63 69.18 10.17 69.18 10.04 84.8 9.49 84.8 9.63"/><polygon class="cls-98" points="84.8 9.76 69.18 10.3 69.18 10.17 84.8 9.63 84.8 9.76"/><polygon class="cls-99" points="84.8 9.89 69.18 10.44 69.18 10.3 84.8 9.76 84.8 9.89"/><polygon class="cls-100" points="84.8 10.03 69.18 10.57 69.18 10.44 84.8 9.89 84.8 10.03"/><polygon class="cls-101" points="84.8 10.16 69.18 10.71 69.18 10.57 84.8 10.03 84.8 10.16"/><polygon class="cls-102" points="84.8 10.3 69.18 10.84 69.18 10.71 84.8 10.16 84.8 10.3"/><polygon class="cls-103" points="84.8 10.43 69.18 10.97 69.18 10.84 84.8 10.3 84.8 10.43"/><polygon class="cls-104" points="84.8 10.56 69.18 11.11 69.18 10.97 84.8 10.43 84.8 10.56"/><polygon class="cls-105" points="84.8 10.7 69.18 11.24 69.18 11.11 84.8 10.56 84.8 10.7"/><polygon class="cls-106" points="84.8 10.83 69.18 11.38 69.18 11.24 84.8 10.7 84.8 10.83"/><polygon class="cls-107" points="84.8 10.97 69.18 11.51 69.18 11.38 84.8 10.83 84.8 10.97"/><polygon class="cls-108" points="84.8 11.1 69.18 11.65 69.18 11.51 84.8 10.97 84.8 11.1"/><polygon class="cls-109" points="84.8 11.24 69.18 11.78 69.18 11.65 84.8 11.1 84.8 11.24"/><polygon class="cls-110" points="84.8 11.37 69.18 11.91 69.18 11.78 84.8 11.24 84.8 11.37"/><polygon class="cls-111" points="84.8 11.51 69.18 12.05 69.18 11.91 84.8 11.37 84.8 11.51"/><polygon class="cls-112" points="84.8 11.64 69.18 12.18 69.18 12.05 84.8 11.51 84.8 11.64"/><polygon class="cls-113" points="84.8 11.77 69.18 12.32 69.18 12.18 84.8 11.64 84.8 11.77"/><polygon class="cls-114" points="84.8 11.91 69.18 12.45 69.18 12.32 84.8 11.77 84.8 11.91"/><polygon class="cls-115" points="84.8 12.04 69.18 12.59 69.18 12.45 84.8 11.91 84.8 12.04"/><polygon class="cls-116" points="84.8 12.18 69.18 12.72 69.18 12.59 84.8 12.04 84.8 12.18"/><polygon class="cls-117" points="84.8 12.31 69.18 12.85 69.18 12.72 84.8 12.18 84.8 12.31"/><polygon class="cls-118" points="84.8 12.44 69.18 12.99 69.18 12.85 84.8 12.31 84.8 12.44"/><polygon class="cls-119" points="84.8 12.58 69.18 13.12 69.18 12.99 84.8 12.44 84.8 12.58"/><polygon class="cls-120" points="84.8 12.71 69.18 13.26 69.18 13.12 84.8 12.58 84.8 12.71"/><polygon class="cls-121" points="84.8 12.85 69.18 13.39 69.18 13.26 84.8 12.71 84.8 12.85"/><polygon class="cls-122" points="84.8 12.98 69.18 13.53 69.18 13.39 84.8 12.85 84.8 12.98"/><polygon class="cls-123" points="84.8 13.12 69.18 13.66 69.18 13.53 84.8 12.98 84.8 13.12"/><polygon class="cls-124" points="84.8 13.25 69.18 13.79 69.18 13.66 84.8 13.12 84.8 13.25"/><polygon class="cls-125" points="84.8 13.38 69.18 13.93 69.18 13.79 84.8 13.25 84.8 13.38"/><polygon class="cls-126" points="84.8 13.52 69.18 14.06 69.18 13.93 84.8 13.38 84.8 13.52"/><polygon class="cls-127" points="84.8 13.65 69.18 14.2 69.18 14.06 84.8 13.52 84.8 13.65"/><polygon class="cls-128" points="84.8 13.79 69.18 14.33 69.18 14.2 84.8 13.65 84.8 13.79"/><polygon class="cls-129" points="84.8 13.92 69.18 14.46 69.18 14.33 84.8 13.79 84.8 13.92"/><polygon class="cls-130" points="84.8 14.05 69.18 14.6 69.18 14.46 84.8 13.92 84.8 14.05"/><polygon class="cls-131" points="84.8 14.19 69.18 14.73 69.18 14.6 84.8 14.05 84.8 14.19"/><polygon class="cls-132" points="84.8 14.32 69.18 14.87 69.18 14.73 84.8 14.19 84.8 14.32"/><polygon class="cls-133" points="84.8 14.46 69.18 15 69.18 14.87 84.8 14.32 84.8 14.46"/><polygon class="cls-134" points="84.8 14.59 69.18 15.14 69.18 15 84.8 14.46 84.8 14.59"/><polygon class="cls-135" points="84.8 14.73 69.18 15.27 69.18 15.14 84.8 14.59 84.8 14.73"/><polygon class="cls-136" points="84.8 14.86 69.18 15.4 69.18 15.27 84.8 14.73 84.8 14.86"/><polygon class="cls-137" points="84.8 14.99 69.18 15.54 69.18 15.4 84.8 14.86 84.8 14.99"/><polygon class="cls-138" points="84.8 15.13 69.18 15.67 69.18 15.54 84.8 14.99 84.8 15.13"/><polygon class="cls-139" points="84.8 15.26 69.18 15.81 69.18 15.67 84.8 15.13 84.8 15.26"/><polygon class="cls-140" points="84.8 15.4 69.18 15.94 69.18 15.81 84.8 15.26 84.8 15.4"/><polygon class="cls-141" points="84.8 15.53 69.18 16.08 69.18 15.94 84.8 15.4 84.8 15.53"/><polygon class="cls-142" points="84.8 15.67 69.18 16.21 69.18 16.08 84.8 15.53 84.8 15.67"/><polygon class="cls-143" points="84.8 15.8 69.18 16.34 69.18 16.21 84.8 15.67 84.8 15.8"/><polygon class="cls-144" points="84.8 15.94 69.18 16.48 69.18 16.34 84.8 15.8 84.8 15.94"/><polygon class="cls-145" points="84.8 16.07 69.18 16.61 69.18 16.48 84.8 15.94 84.8 16.07"/><polygon class="cls-146" points="84.8 16.2 69.18 16.75 69.18 16.61 84.8 16.07 84.8 16.2"/><polygon class="cls-147" points="84.8 16.34 69.18 16.88 69.18 16.75 84.8 16.2 84.8 16.34"/><polygon class="cls-148" points="84.8 16.47 69.18 17.02 69.18 16.88 84.8 16.34 84.8 16.47"/><polygon class="cls-148" points="69.18 17.02 84.8 16.47 84.8 19.52 69.18 19.52 69.18 17.02"/></g><path class="cls-4" d="M356.43,509.12l-.2-.1c-.5-.24-2.12-1.1-2-2.1.05-.51.48-.89,1.28-1.13h.06c.08,0,1.91-.47,2.18-5a24.47,24.47,0,0,0-.11-3.59c-.15-1.86-.27-3.34.66-4,.77-.57,2-.43,4.26.46,3.1,1.25,5,3.64,5,6.41a6.16,6.16,0,0,1-3.86,5.78c-4.67,2-7,3.17-7,3.18Zm-.72-2.44c-.54.16-.6.31-.6.31,0,.18.57.7,1.33,1.11.66-.32,2.94-1.4,6.86-3.1a5.28,5.28,0,0,0,3.31-4.93c0-2.38-1.69-4.47-4.43-5.57-1.78-.72-2.92-.91-3.38-.57s-.41,1.69-.28,3.21a26.06,26.06,0,0,1,.11,3.72C358.32,505.93,356.08,506.6,355.71,506.68Z" transform="translate(-283.87 -489.09)"/><g class="cls-155"><polygon class="cls-2" points="65.28 0 58 0.25 58 0 65.28 0"/><polygon class="cls-2" points="69.37 0 58 0.4 58 0.25 65.28 0 69.37 0"/><polygon class="cls-156" points="73.46 0 58 0.54 58 0.4 69.37 0 73.46 0"/><polygon class="cls-157" points="74.76 0.1 58 0.68 58 0.54 73.46 0 74.76 0 74.76 0.1"/><polygon class="cls-158" points="74.76 0.24 58 0.82 58 0.68 74.76 0.1 74.76 0.24"/><polygon class="cls-159" points="74.76 0.38 58 0.97 58 0.82 74.76 0.24 74.76 0.38"/><polygon class="cls-160" points="74.76 0.53 58 1.11 58 0.97 74.76 0.38 74.76 0.53"/><polygon class="cls-161" points="74.76 0.67 58 1.25 58 1.11 74.76 0.53 74.76 0.67"/><polygon class="cls-162" points="74.76 0.81 58 1.39 58 1.25 74.76 0.67 74.76 0.81"/><polygon class="cls-163" points="74.76 0.95 58 1.54 58 1.39 74.76 0.81 74.76 0.95"/><polygon class="cls-164" points="74.76 1.09 58 1.68 58 1.54 74.76 0.95 74.76 1.09"/><polygon class="cls-165" points="74.76 1.24 58 1.82 58 1.68 74.76 1.09 74.76 1.24"/><polygon class="cls-166" points="74.76 1.38 58 1.96 58 1.82 74.76 1.24 74.76 1.38"/><polygon class="cls-167" points="74.76 1.52 58 2.11 58 1.96 74.76 1.38 74.76 1.52"/><polygon class="cls-168" points="74.76 1.67 58 2.25 58 2.11 74.76 1.52 74.76 1.67"/><polygon class="cls-169" points="74.76 1.81 58 2.39 58 2.25 74.76 1.67 74.76 1.81"/><polygon class="cls-170" points="74.76 1.95 58 2.53 58 2.39 74.76 1.81 74.76 1.95"/><polygon class="cls-150" points="74.76 2.09 58 2.68 58 2.53 74.76 1.95 74.76 2.09"/><polygon class="cls-151" points="74.76 2.23 58 2.82 58 2.68 74.76 2.09 74.76 2.23"/><polygon class="cls-152" points="74.76 2.38 58 2.96 58 2.82 74.76 2.23 74.76 2.38"/><polygon class="cls-153" points="74.76 2.52 58 3.1 58 2.96 74.76 2.38 74.76 2.52"/><polygon class="cls-154" points="74.76 2.66 58 3.25 58 3.1 74.76 2.52 74.76 2.66"/><polygon class="cls-45" points="74.76 2.81 58 3.39 58 3.25 74.76 2.66 74.76 2.81"/><polygon class="cls-46" points="74.76 2.95 58 3.53 58 3.39 74.76 2.81 74.76 2.95"/><polygon class="cls-47" points="74.76 3.09 58 3.67 58 3.53 74.76 2.95 74.76 3.09"/><polygon class="cls-48" points="74.76 3.23 58 3.82 58 3.67 74.76 3.09 74.76 3.23"/><polygon class="cls-49" points="74.76 3.38 58 3.96 58 3.82 74.76 3.23 74.76 3.38"/><polygon class="cls-50" points="74.76 3.52 58 4.1 58 3.96 74.76 3.38 74.76 3.52"/><polygon class="cls-51" points="74.76 3.66 58 4.24 58 4.1 74.76 3.52 74.76 3.66"/><polygon class="cls-52" points="74.76 3.8 58 4.39 58 4.24 74.76 3.66 74.76 3.8"/><polygon class="cls-53" points="74.76 3.94 58 4.53 58 4.39 74.76 3.8 74.76 3.94"/><polygon class="cls-54" points="74.76 4.09 58 4.67 58 4.53 74.76 3.94 74.76 4.09"/><polygon class="cls-55" points="74.76 4.23 58 4.81 58 4.67 74.76 4.09 74.76 4.23"/><polygon class="cls-56" points="74.76 4.37 58 4.96 58 4.81 74.76 4.23 74.76 4.37"/><polygon class="cls-57" points="74.76 4.51 58 5.1 58 4.96 74.76 4.37 74.76 4.51"/><polygon class="cls-58" points="74.76 4.66 58 5.24 58 5.1 74.76 4.51 74.76 4.66"/><polygon class="cls-59" points="74.76 4.8 58 5.38 58 5.24 74.76 4.66 74.76 4.8"/><polygon class="cls-60" points="74.76 4.94 58 5.53 58 5.38 74.76 4.8 74.76 4.94"/><polygon class="cls-61" points="74.76 5.08 58 5.67 58 5.53 74.76 4.94 74.76 5.08"/><polygon class="cls-62" points="74.76 5.23 58 5.81 58 5.67 74.76 5.08 74.76 5.23"/><polygon class="cls-63" points="74.76 5.37 58 5.95 58 5.81 74.76 5.23 74.76 5.37"/><polygon class="cls-64" points="74.76 5.51 58 6.1 58 5.95 74.76 5.37 74.76 5.51"/><polygon class="cls-65" points="74.76 5.66 58 6.24 58 6.1 74.76 5.51 74.76 5.66"/><polygon class="cls-66" points="74.76 5.8 58 6.38 58 6.24 74.76 5.66 74.76 5.8"/><polygon class="cls-67" points="74.76 5.94 58 6.52 58 6.38 74.76 5.8 74.76 5.94"/><polygon class="cls-68" points="74.76 6.08 58 6.67 58 6.52 74.76 5.94 74.76 6.08"/><polygon class="cls-69" points="74.76 6.22 58 6.81 58 6.67 74.76 6.08 74.76 6.22"/><polygon class="cls-70" points="74.76 6.37 58 6.95 58 6.81 74.76 6.22 74.76 6.37"/><polygon class="cls-71" points="74.76 6.51 58 7.09 58 6.95 74.76 6.37 74.76 6.51"/><polygon class="cls-72" points="74.76 6.65 58 7.24 58 7.09 74.76 6.51 74.76 6.65"/><polygon class="cls-73" points="74.76 6.79 58 7.38 58 7.24 74.76 6.65 74.76 6.79"/><polygon class="cls-74" points="74.76 6.94 58 7.52 58 7.38 74.76 6.79 74.76 6.94"/><polygon class="cls-75" points="74.76 7.08 58 7.66 58 7.52 74.76 6.94 74.76 7.08"/><polygon class="cls-76" points="74.76 7.22 58 7.81 58 7.66 74.76 7.08 74.76 7.22"/><polygon class="cls-77" points="74.76 7.37 58 7.95 58 7.81 74.76 7.22 74.76 7.37"/><polygon class="cls-78" points="74.76 7.51 58 8.09 58 7.95 74.76 7.37 74.76 7.51"/><polygon class="cls-79" points="74.76 7.65 58 8.23 58 8.09 74.76 7.51 74.76 7.65"/><polygon class="cls-80" points="74.76 7.79 58 8.38 58 8.23 74.76 7.65 74.76 7.79"/><polygon class="cls-81" points="74.76 7.93 58 8.52 58 8.38 74.76 7.79 74.76 7.93"/><polygon class="cls-82" points="74.76 8.08 58 8.66 58 8.52 74.76 7.93 74.76 8.08"/><polygon class="cls-83" points="74.76 8.22 58 8.8 58 8.66 74.76 8.08 74.76 8.22"/><polygon class="cls-84" points="74.76 8.36 58 8.95 58 8.8 74.76 8.22 74.76 8.36"/><polygon class="cls-85" points="74.76 8.51 58 9.09 58 8.95 74.76 8.36 74.76 8.51"/><polygon class="cls-86" points="74.76 8.65 58 9.23 58 9.09 74.76 8.51 74.76 8.65"/><polygon class="cls-87" points="74.76 8.79 58 9.37 58 9.23 74.76 8.65 74.76 8.79"/><polygon class="cls-88" points="74.76 8.93 58 9.52 58 9.37 74.76 8.79 74.76 8.93"/><polygon class="cls-89" points="74.76 9.07 58 9.66 58 9.52 74.76 8.93 74.76 9.07"/><polygon class="cls-90" points="74.76 9.22 58 9.8 58 9.66 74.76 9.07 74.76 9.22"/><polygon class="cls-91" points="74.76 9.36 58 9.94 58 9.8 74.76 9.22 74.76 9.36"/><polygon class="cls-92" points="74.76 9.5 58 10.09 58 9.94 74.76 9.36 74.76 9.5"/><polygon class="cls-93" points="74.76 9.64 58 10.23 58 10.09 74.76 9.5 74.76 9.64"/><polygon class="cls-94" points="74.76 9.79 58 10.37 58 10.23 74.76 9.64 74.76 9.79"/><polygon class="cls-95" points="74.76 9.93 58 10.51 58 10.37 74.76 9.79 74.76 9.93"/><polygon class="cls-96" points="74.76 10.07 58 10.66 58 10.51 74.76 9.93 74.76 10.07"/><polygon class="cls-97" points="74.76 10.21 58 10.8 58 10.66 74.76 10.07 74.76 10.21"/><polygon class="cls-98" points="74.76 10.36 58 10.94 58 10.8 74.76 10.21 74.76 10.36"/><polygon class="cls-99" points="74.76 10.5 58 11.08 58 10.94 74.76 10.36 74.76 10.5"/><polygon class="cls-100" points="74.76 10.64 58 11.23 58 11.08 74.76 10.5 74.76 10.64"/><polygon class="cls-101" points="74.76 10.78 58 11.37 58 11.23 74.76 10.64 74.76 10.78"/><polygon class="cls-102" points="74.76 10.93 58 11.51 58 11.37 74.76 10.78 74.76 10.93"/><polygon class="cls-103" points="74.76 11.07 58 11.65 58 11.51 74.76 10.93 74.76 11.07"/><polygon class="cls-104" points="74.76 11.21 58 11.8 58 11.65 74.76 11.07 74.76 11.21"/><polygon class="cls-105" points="74.76 11.35 58 11.94 58 11.8 74.76 11.21 74.76 11.35"/><polygon class="cls-106" points="74.76 11.5 58 12.08 58 11.94 74.76 11.35 74.76 11.5"/><polygon class="cls-107" points="74.76 11.64 58 12.22 58 12.08 74.76 11.5 74.76 11.64"/><polygon class="cls-108" points="74.76 11.78 58 12.37 58 12.22 74.76 11.64 74.76 11.78"/><polygon class="cls-109" points="74.76 11.92 58 12.51 58 12.37 74.76 11.78 74.76 11.92"/><polygon class="cls-110" points="74.76 12.07 58 12.65 58 12.51 74.76 11.92 74.76 12.07"/><polygon class="cls-111" points="74.76 12.21 58 12.79 58 12.65 74.76 12.07 74.76 12.21"/><polygon class="cls-112" points="74.76 12.35 58 12.94 58 12.79 74.76 12.21 74.76 12.35"/><polygon class="cls-113" points="74.76 12.49 58 13.08 58 12.94 74.76 12.35 74.76 12.49"/><polygon class="cls-114" points="74.76 12.64 58 13.22 58 13.08 74.76 12.49 74.76 12.64"/><polygon class="cls-115" points="74.76 12.78 58 13.36 58 13.22 74.76 12.64 74.76 12.78"/><polygon class="cls-116" points="74.76 12.92 58 13.51 58 13.36 74.76 12.78 74.76 12.92"/><polygon class="cls-117" points="74.76 13.06 58 13.65 58 13.51 74.76 12.92 74.76 13.06"/><polygon class="cls-118" points="74.76 13.21 58 13.79 58 13.65 74.76 13.06 74.76 13.21"/><polygon class="cls-119" points="74.76 13.35 58 13.93 58 13.79 74.76 13.21 74.76 13.35"/><polygon class="cls-120" points="74.76 13.49 58 14.08 58 13.93 74.76 13.35 74.76 13.49"/><polygon class="cls-121" points="74.76 13.63 58 14.22 58 14.08 74.76 13.49 74.76 13.63"/><polygon class="cls-122" points="74.76 13.78 58 14.36 58 14.22 74.76 13.63 74.76 13.78"/><polygon class="cls-123" points="74.76 13.92 58 14.5 58 14.36 74.76 13.78 74.76 13.92"/><polygon class="cls-124" points="74.76 14.06 58 14.65 58 14.5 74.76 13.92 74.76 14.06"/><polygon class="cls-125" points="74.76 14.2 58 14.79 58 14.65 74.76 14.06 74.76 14.2"/><polygon class="cls-126" points="74.76 14.35 58 14.93 58 14.79 74.76 14.2 74.76 14.35"/><polygon class="cls-127" points="74.76 14.49 58 15.07 58 14.93 74.76 14.35 74.76 14.49"/><polygon class="cls-128" points="74.76 14.63 58 15.22 58 15.07 74.76 14.49 74.76 14.63"/><polygon class="cls-129" points="74.76 14.77 58 15.36 58 15.22 74.76 14.63 74.76 14.77"/><polygon class="cls-130" points="74.76 14.92 58 15.5 58 15.36 74.76 14.77 74.76 14.92"/><polygon class="cls-131" points="74.76 15.06 58 15.64 58 15.5 74.76 14.92 74.76 15.06"/><polygon class="cls-132" points="74.76 15.2 58 15.79 58 15.64 74.76 15.06 74.76 15.2"/><polygon class="cls-133" points="74.76 15.34 58 15.93 58 15.79 74.76 15.2 74.76 15.34"/><polygon class="cls-134" points="74.76 15.49 58 16.07 58 15.93 74.76 15.34 74.76 15.49"/><polygon class="cls-135" points="74.76 15.63 58 16.21 58 16.07 74.76 15.49 74.76 15.63"/><polygon class="cls-136" points="74.76 15.77 58 16.36 58 16.21 74.76 15.63 74.76 15.77"/><polygon class="cls-137" points="74.76 15.91 58 16.5 58 16.36 74.76 15.77 74.76 15.91"/><polygon class="cls-138" points="74.76 16.06 58 16.64 58 16.5 74.76 15.91 74.76 16.06"/><polygon class="cls-139" points="74.76 16.2 58 16.78 58 16.64 74.76 16.06 74.76 16.2"/><polygon class="cls-140" points="74.76 16.34 58 16.93 58 16.78 74.76 16.2 74.76 16.34"/><polygon class="cls-141" points="74.76 16.48 58 17.07 58 16.93 74.76 16.34 74.76 16.48"/><polygon class="cls-142" points="74.76 16.63 58 17.21 58 17.07 74.76 16.48 74.76 16.63"/><polygon class="cls-143" points="74.76 16.77 58 17.35 58 17.21 74.76 16.63 74.76 16.77"/><polygon class="cls-144" points="74.76 16.91 58 17.5 58 17.35 74.76 16.77 74.76 16.91"/><polygon class="cls-145" points="74.76 17.05 58 17.64 58 17.5 74.76 16.91 74.76 17.05"/><polygon class="cls-146" points="74.76 17.2 58 17.78 58 17.64 74.76 17.05 74.76 17.2"/><polygon class="cls-147" points="74.76 17.34 58 17.92 58 17.78 74.76 17.2 74.76 17.34"/><polygon class="cls-148" points="74.76 17.48 58 18.07 58 17.92 74.76 17.34 74.76 17.48"/><polygon class="cls-148" points="58 18.07 74.76 17.48 74.76 21.49 58 21.49 58 18.07"/></g><path class="cls-4" d="M355.85,509.91a5.2,5.2,0,0,1-1.61-.34c-.46-.12-6.92-1.88-8.83-6.17a6.77,6.77,0,0,1,.49-6.11c2.38-4.53,4.61-4.49,5.72-4.06,2.27.87,3.37,4.39,2.77,6.72-.76,2.94-.06,3.74.69,4.58.18.21.35.41.51.63,2.21,3.17,1.59,4,1.38,4.28A1.31,1.31,0,0,1,355.85,509.91Zm-5.22-16c-1.26,0-2.63,1.3-3.92,3.76a5.89,5.89,0,0,0-.46,5.3c1.75,4,8.17,5.65,8.24,5.67h0c1.47.5,1.71.2,1.72.19.17-.23-.06-1.28-1.41-3.21a5.47,5.47,0,0,0-.44-.54c-.79-.89-1.77-2-.89-5.42.54-2.12-.59-5-2.21-5.63A1.69,1.69,0,0,0,350.63,494Z" transform="translate(-283.87 -489.09)"/><path class="cls-171" d="M343.66,542.58s-11.79,1.33-16.7-2.1-5.55-14.18,1.53-21.82,15.72-9,21.31-9.48a43.72,43.72,0,0,1,25,3.27c13.39,5.88,16,16.62,16.19,24.37s-9.51,12.24-23,8.55S353.52,541.49,343.66,542.58Z" transform="translate(-283.87 -489.09)"/><path class="cls-172" d="M355.6,506.23s2.26-.31,2.57-5.4-2.15-9.3,4.18-6.76,5.87,9.3,1.13,11.35-7.05,3.19-7.05,3.19S353.05,507,355.6,506.23Z" transform="translate(-283.87 -489.09)"/><path class="cls-173" d="M354.37,509.14s-12.5-3.22-8.07-11.63,8.64-1.55,7.64,2.32.47,4.44,1.27,5.59S358.63,510.58,354.37,509.14Z" transform="translate(-283.87 -489.09)"/><path class="cls-174" d="M359.28,510a1.26,1.26,0,0,0,0-.28c0-1.23-2.11-2.22-4.72-2.22s-4.73,1-4.73,2.22c0,0,0,.06,0,.09A31.18,31.18,0,0,1,359.28,510Z" transform="translate(-283.87 -489.09)"/><path class="cls-175" d="M357.83,510s14.84,3.14,16.65,9.3S371.23,513.88,357.83,510Z" transform="translate(-283.87 -489.09)"/><path class="cls-175" d="M363.37,510.43s7.23.78,8.53,3.74S370,511.67,363.37,510.43Z" transform="translate(-283.87 -489.09)"/><path class="cls-175" d="M354.5,510s3.16,7.47,2.48,11.07S355,511.84,354.5,510Z" transform="translate(-283.87 -489.09)"/><path class="cls-175" d="M348.54,510s-11.73.6-14.1,7.75S336.39,512.09,348.54,510Z" transform="translate(-283.87 -489.09)"/><path class="cls-175" d="M351.93,510s-7.3.38-8.78,4.83S344.36,511.29,351.93,510Z" transform="translate(-283.87 -489.09)"/></g></svg>